%TF.GenerationSoftware,Altium Limited,Altium Designer,21.6.4 (81)*%
G04 Layer_Color=2752767*
%FSLAX26Y26*%
%MOIN*%
%TF.SameCoordinates,57458678-C278-4CFF-9AA2-19D65F52AC30*%
%TF.FilePolarity,Positive*%
%TF.FileFunction,Drawing*%
%TF.Part,Single*%
G01*
G75*
%TA.AperFunction,NonConductor*%
%ADD55C,0.005000*%
%ADD56C,0.006667*%
D55*
X1091220Y480000D02*
Y520000D01*
X1131220D01*
Y480000D01*
X1091220D01*
X1012480D02*
Y520000D01*
X1052480D01*
Y480000D01*
X1012480D01*
X933740D02*
Y520000D01*
X973740D01*
Y480000D01*
X933740D01*
X776260D02*
Y520000D01*
X816260D01*
Y480000D01*
X776260D01*
X697520D02*
Y520000D01*
X737520D01*
Y480000D01*
X697520D01*
X855000D02*
Y520000D01*
X895000D01*
Y480000D01*
X855000D01*
X157630Y-113803D02*
X137630Y-73803D01*
X177630D01*
X157630Y-113803D01*
Y75173D02*
X137630Y115173D01*
X177630D01*
X157630Y75173D01*
Y-82307D02*
X137630Y-42307D01*
X177630D01*
X157630Y-82307D01*
Y43677D02*
X137630Y83677D01*
X177630D01*
X157630Y43677D01*
Y-50811D02*
X137630Y-10811D01*
X177630D01*
X157630Y-50811D01*
Y12181D02*
X137630Y52181D01*
X177630D01*
X157630Y12181D01*
X185189Y-129551D02*
X165189Y-89551D01*
X205189D01*
X185189Y-129551D01*
Y90921D02*
X165189Y130921D01*
X205189D01*
X185189Y90921D01*
Y-98055D02*
X165189Y-58055D01*
X205189D01*
X185189Y-98055D01*
Y59425D02*
X165189Y99425D01*
X205189D01*
X185189Y59425D01*
Y-66559D02*
X165189Y-26559D01*
X205189D01*
X185189Y-66559D01*
Y27929D02*
X165189Y67929D01*
X205189D01*
X185189Y27929D01*
Y-35063D02*
X165189Y4937D01*
X205189D01*
X185189Y-35063D01*
Y-3567D02*
X165189Y36433D01*
X205189D01*
X185189Y-3567D01*
X1345472Y-80039D02*
X1355472Y-70039D01*
X1365472D01*
X1355472Y-60039D01*
X1365472Y-50039D01*
X1355472D01*
X1345472Y-40039D01*
X1335472Y-50039D01*
X1325472D01*
X1335472Y-60039D01*
X1325472Y-70039D01*
X1335472D01*
X1345472Y-80039D01*
X1313484D02*
X1323484Y-70039D01*
X1333484D01*
X1323484Y-60039D01*
X1333484Y-50039D01*
X1323484D01*
X1313484Y-40039D01*
X1303484Y-50039D01*
X1293484D01*
X1303484Y-60039D01*
X1293484Y-70039D01*
X1303484D01*
X1313484Y-80039D01*
X1281496D02*
X1291496Y-70039D01*
X1301496D01*
X1291496Y-60039D01*
X1301496Y-50039D01*
X1291496D01*
X1281496Y-40039D01*
X1271496Y-50039D01*
X1261496D01*
X1271496Y-60039D01*
X1261496Y-70039D01*
X1271496D01*
X1281496Y-80039D01*
X712598Y-234567D02*
X722598Y-224567D01*
X732598D01*
X722598Y-214567D01*
X732598Y-204567D01*
X722598D01*
X712598Y-194567D01*
X702598Y-204567D01*
X692598D01*
X702598Y-214567D01*
X692598Y-224567D01*
X702598D01*
X712598Y-234567D01*
X744095D02*
X754095Y-224567D01*
X764095D01*
X754095Y-214567D01*
X764095Y-204567D01*
X754095D01*
X744095Y-194567D01*
X734095Y-204567D01*
X724095D01*
X734095Y-214567D01*
X724095Y-224567D01*
X734095D01*
X744095Y-234567D01*
X774606Y-295591D02*
X784606Y-285591D01*
X794606D01*
X784606Y-275591D01*
X794606Y-265591D01*
X784606D01*
X774606Y-255591D01*
X764606Y-265591D01*
X754606D01*
X764606Y-275591D01*
X754606Y-285591D01*
X764606D01*
X774606Y-295591D01*
Y-266063D02*
X784606Y-256063D01*
X794606D01*
X784606Y-246063D01*
X794606Y-236063D01*
X784606D01*
X774606Y-226063D01*
X764606Y-236063D01*
X754606D01*
X764606Y-246063D01*
X754606Y-256063D01*
X764606D01*
X774606Y-266063D01*
X146654Y250669D02*
X156654Y260669D01*
X166654D01*
X156654Y270669D01*
X166654Y280669D01*
X156654D01*
X146654Y290669D01*
X136654Y280669D01*
X126653D01*
X136654Y270669D01*
X126653Y260669D01*
X136654D01*
X146654Y250669D01*
X300197D02*
X310197Y260669D01*
X320197D01*
X310197Y270669D01*
X320197Y280669D01*
X310197D01*
X300197Y290669D01*
X290197Y280669D01*
X280197D01*
X290197Y270669D01*
X280197Y260669D01*
X290197D01*
X300197Y250669D01*
X269488D02*
X279488Y260669D01*
X289488D01*
X279488Y270669D01*
X289488Y280669D01*
X279488D01*
X269488Y290669D01*
X259488Y280669D01*
X249488D01*
X259488Y270669D01*
X249488Y260669D01*
X259488D01*
X269488Y250669D01*
X238779D02*
X248779Y260669D01*
X258779D01*
X248779Y270669D01*
X258779Y280669D01*
X248779D01*
X238779Y290669D01*
X228779Y280669D01*
X218779D01*
X228779Y270669D01*
X218779Y260669D01*
X228779D01*
X238779Y250669D01*
X208071D02*
X218071Y260669D01*
X228071D01*
X218071Y270669D01*
X228071Y280669D01*
X218071D01*
X208071Y290669D01*
X198071Y280669D01*
X188071D01*
X198071Y270669D01*
X188071Y260669D01*
X198071D01*
X208071Y250669D01*
X177362D02*
X187362Y260669D01*
X197362D01*
X187362Y270669D01*
X197362Y280669D01*
X187362D01*
X177362Y290669D01*
X167362Y280669D01*
X157362D01*
X167362Y270669D01*
X157362Y260669D01*
X167362D01*
X177362Y250669D01*
X586614Y537087D02*
X596614Y547087D01*
X606614D01*
X596614Y557087D01*
X606614Y567087D01*
X596614D01*
X586614Y577087D01*
X576614Y567087D01*
X566614D01*
X576614Y557087D01*
X566614Y547087D01*
X576614D01*
X586614Y537087D01*
X553149D02*
X563149Y547087D01*
X573149D01*
X563149Y557087D01*
X573149Y567087D01*
X563149D01*
X553149Y577087D01*
X543149Y567087D01*
X533149D01*
X543149Y557087D01*
X533149Y547087D01*
X543149D01*
X553149Y537087D01*
X519685D02*
X529685Y547087D01*
X539685D01*
X529685Y557087D01*
X539685Y567087D01*
X529685D01*
X519685Y577087D01*
X509685Y567087D01*
X499685D01*
X509685Y557087D01*
X499685Y547087D01*
X509685D01*
X519685Y537087D01*
X486220D02*
X496220Y547087D01*
X506220D01*
X496220Y557087D01*
X506220Y567087D01*
X496220D01*
X486220Y577087D01*
X476220Y567087D01*
X466220D01*
X476220Y557087D01*
X466220Y547087D01*
X476220D01*
X486220Y537087D01*
X452756D02*
X462756Y547087D01*
X472756D01*
X462756Y557087D01*
X472756Y567087D01*
X462756D01*
X452756Y577087D01*
X442756Y567087D01*
X432756D01*
X442756Y557087D01*
X432756Y547087D01*
X442756D01*
X452756Y537087D01*
X419291D02*
X429291Y547087D01*
X439291D01*
X429291Y557087D01*
X439291Y567087D01*
X429291D01*
X419291Y577087D01*
X409291Y567087D01*
X399291D01*
X409291Y557087D01*
X399291Y547087D01*
X409291D01*
X419291Y537087D01*
X608268Y177835D02*
X618268Y187835D01*
X628268D01*
X618268Y197835D01*
X628268Y207835D01*
X618268D01*
X608268Y217835D01*
X598268Y207835D01*
X588268D01*
X598268Y197835D01*
X588268Y187835D01*
X598268D01*
X608268Y177835D01*
Y221142D02*
X618268Y231142D01*
X628268D01*
X618268Y241142D01*
X628268Y251142D01*
X618268D01*
X608268Y261142D01*
X598268Y251142D01*
X588268D01*
X598268Y241142D01*
X588268Y231142D01*
X598268D01*
X608268Y221142D01*
X1455709Y169961D02*
X1465709Y179961D01*
X1475709D01*
X1465709Y189961D01*
X1475709Y199961D01*
X1465709D01*
X1455709Y209961D01*
X1445709Y199961D01*
X1435709D01*
X1445709Y189961D01*
X1435709Y179961D01*
X1445709D01*
X1455709Y169961D01*
X1408465Y245748D02*
X1418465Y255748D01*
X1428465D01*
X1418465Y265748D01*
X1428465Y275748D01*
X1418465D01*
X1408465Y285748D01*
X1398465Y275748D01*
X1388465D01*
X1398465Y265748D01*
X1388465Y255748D01*
X1398465D01*
X1408465Y245748D01*
X1430118Y225079D02*
X1440118Y235079D01*
X1450118D01*
X1440118Y245079D01*
X1450118Y255079D01*
X1440118D01*
X1430118Y265079D01*
X1420118Y255079D01*
X1410118D01*
X1420118Y245079D01*
X1410118Y235079D01*
X1420118D01*
X1430118Y225079D01*
X1452756Y205394D02*
X1462756Y215394D01*
X1472756D01*
X1462756Y225394D01*
X1472756Y235394D01*
X1462756D01*
X1452756Y245394D01*
X1442756Y235394D01*
X1432756D01*
X1442756Y225394D01*
X1432756Y215394D01*
X1442756D01*
X1452756Y205394D01*
X1488189Y305787D02*
X1498189Y315787D01*
X1508189D01*
X1498189Y325787D01*
X1508189Y335787D01*
X1498189D01*
X1488189Y345787D01*
X1478189Y335787D01*
X1468189D01*
X1478189Y325787D01*
X1468189Y315787D01*
X1478189D01*
X1488189Y305787D01*
X1507874Y201457D02*
X1517874Y211457D01*
X1527874D01*
X1517874Y221457D01*
X1527874Y231457D01*
X1517874D01*
X1507874Y241457D01*
X1497874Y231457D01*
X1487874D01*
X1497874Y221457D01*
X1487874Y211457D01*
X1497874D01*
X1507874Y201457D01*
X1537402Y167008D02*
X1547402Y177008D01*
X1557402D01*
X1547402Y187008D01*
X1557402Y197008D01*
X1547402D01*
X1537402Y207008D01*
X1527402Y197008D01*
X1517402D01*
X1527402Y187008D01*
X1517402Y177008D01*
X1527402D01*
X1537402Y167008D01*
X1507874D02*
X1517874Y177008D01*
X1527874D01*
X1517874Y187008D01*
X1527874Y197008D01*
X1517874D01*
X1507874Y207008D01*
X1497874Y197008D01*
X1487874D01*
X1497874Y187008D01*
X1487874Y177008D01*
X1497874D01*
X1507874Y167008D01*
X1418307Y-240472D02*
X1428307Y-230472D01*
X1438307D01*
X1428307Y-220472D01*
X1438307Y-210472D01*
X1428307D01*
X1418307Y-200472D01*
X1408307Y-210472D01*
X1398307D01*
X1408307Y-220472D01*
X1398307Y-230472D01*
X1408307D01*
X1418307Y-240472D01*
X1451772D02*
X1461772Y-230472D01*
X1471772D01*
X1461772Y-220472D01*
X1471772Y-210472D01*
X1461772D01*
X1451772Y-200472D01*
X1441772Y-210472D01*
X1431772D01*
X1441772Y-220472D01*
X1431772Y-230472D01*
X1441772D01*
X1451772Y-240472D01*
X1485236D02*
X1495236Y-230472D01*
X1505236D01*
X1495236Y-220472D01*
X1505236Y-210472D01*
X1495236D01*
X1485236Y-200472D01*
X1475236Y-210472D01*
X1465236D01*
X1475236Y-220472D01*
X1465236Y-230472D01*
X1475236D01*
X1485236Y-240472D01*
X1500000Y-211929D02*
X1510000Y-201929D01*
X1520000D01*
X1510000Y-191929D01*
X1520000Y-181929D01*
X1510000D01*
X1500000Y-171929D01*
X1490000Y-181929D01*
X1480000D01*
X1490000Y-191929D01*
X1480000Y-201929D01*
X1490000D01*
X1500000Y-211929D01*
X1469980D02*
X1479980Y-201929D01*
X1489980D01*
X1479980Y-191929D01*
X1489980Y-181929D01*
X1479980D01*
X1469980Y-171929D01*
X1459980Y-181929D01*
X1449980D01*
X1459980Y-191929D01*
X1449980Y-201929D01*
X1459980D01*
X1469980Y-211929D01*
X1439961D02*
X1449961Y-201929D01*
X1459961D01*
X1449961Y-191929D01*
X1459961Y-181929D01*
X1449961D01*
X1439961Y-171929D01*
X1429961Y-181929D01*
X1419961D01*
X1429961Y-191929D01*
X1419961Y-201929D01*
X1429961D01*
X1439961Y-211929D01*
X208661Y119764D02*
X218661Y129764D01*
X228661D01*
X218661Y139764D01*
X228661Y149764D01*
X218661D01*
X208661Y159764D01*
X198661Y149764D01*
X188661D01*
X198661Y139764D01*
X188661Y129764D01*
X198661D01*
X208661Y119764D01*
X239173D02*
X249173Y129764D01*
X259173D01*
X249173Y139764D01*
X259173Y149764D01*
X249173D01*
X239173Y159764D01*
X229173Y149764D01*
X219173D01*
X229173Y139764D01*
X219173Y129764D01*
X229173D01*
X239173Y119764D01*
X271654D02*
X281654Y129764D01*
X291654D01*
X281654Y139764D01*
X291654Y149764D01*
X281654D01*
X271654Y159764D01*
X261654Y149764D01*
X251654D01*
X261654Y139764D01*
X251654Y129764D01*
X261654D01*
X271654Y119764D01*
Y148307D02*
X281654Y158307D01*
X291654D01*
X281654Y168307D01*
X291654Y178307D01*
X281654D01*
X271654Y188307D01*
X261654Y178307D01*
X251654D01*
X261654Y168307D01*
X251654Y158307D01*
X261654D01*
X271654Y148307D01*
X239173D02*
X249173Y158307D01*
X259173D01*
X249173Y168307D01*
X259173Y178307D01*
X249173D01*
X239173Y188307D01*
X229173Y178307D01*
X219173D01*
X229173Y168307D01*
X219173Y158307D01*
X229173D01*
X239173Y148307D01*
X208661D02*
X218661Y158307D01*
X228661D01*
X218661Y168307D01*
X228661Y178307D01*
X218661D01*
X208661Y188307D01*
X198661Y178307D01*
X188661D01*
X198661Y168307D01*
X188661Y158307D01*
X198661D01*
X208661Y148307D01*
X247047Y-185354D02*
X257047Y-175354D01*
X267047D01*
X257047Y-165354D01*
X267047Y-155354D01*
X257047D01*
X247047Y-145354D01*
X237047Y-155354D01*
X227047D01*
X237047Y-165354D01*
X227047Y-175354D01*
X237047D01*
X247047Y-185354D01*
X215551D02*
X225551Y-175354D01*
X235551D01*
X225551Y-165354D01*
X235551Y-155354D01*
X225551D01*
X215551Y-145354D01*
X205551Y-155354D01*
X195551D01*
X205551Y-165354D01*
X195551Y-175354D01*
X205551D01*
X215551Y-185354D01*
X246063Y-156811D02*
X256063Y-146811D01*
X266063D01*
X256063Y-136811D01*
X266063Y-126811D01*
X256063D01*
X246063Y-116811D01*
X236063Y-126811D01*
X226063D01*
X236063Y-136811D01*
X226063Y-146811D01*
X236063D01*
X246063Y-156811D01*
X215551D02*
X225551Y-146811D01*
X235551D01*
X225551Y-136811D01*
X235551Y-126811D01*
X225551D01*
X215551Y-116811D01*
X205551Y-126811D01*
X195551D01*
X205551Y-136811D01*
X195551Y-146811D01*
X205551D01*
X215551Y-156811D01*
X558071Y-441260D02*
X568071Y-431260D01*
X578071D01*
X568071Y-421260D01*
X578071Y-411260D01*
X568071D01*
X558071Y-401260D01*
X548071Y-411260D01*
X538071D01*
X548071Y-421260D01*
X538071Y-431260D01*
X548071D01*
X558071Y-441260D01*
X523130D02*
X533130Y-431260D01*
X543130D01*
X533130Y-421260D01*
X543130Y-411260D01*
X533130D01*
X523130Y-401260D01*
X513130Y-411260D01*
X503130D01*
X513130Y-421260D01*
X503130Y-431260D01*
X513130D01*
X523130Y-441260D01*
X488189D02*
X498189Y-431260D01*
X508189D01*
X498189Y-421260D01*
X508189Y-411260D01*
X498189D01*
X488189Y-401260D01*
X478189Y-411260D01*
X468189D01*
X478189Y-421260D01*
X468189Y-431260D01*
X478189D01*
X488189Y-441260D01*
X423228Y-405827D02*
X433228Y-395827D01*
X443228D01*
X433228Y-385827D01*
X443228Y-375827D01*
X433228D01*
X423228Y-365827D01*
X413228Y-375827D01*
X403228D01*
X413228Y-385827D01*
X403228Y-395827D01*
X413228D01*
X423228Y-405827D01*
Y-373839D02*
X433228Y-363839D01*
X443228D01*
X433228Y-353839D01*
X443228Y-343839D01*
X433228D01*
X423228Y-333839D01*
X413228Y-343839D01*
X403228D01*
X413228Y-353839D01*
X403228Y-363839D01*
X413228D01*
X423228Y-373839D01*
Y-341850D02*
X433228Y-331850D01*
X443228D01*
X433228Y-321850D01*
X443228Y-311850D01*
X433228D01*
X423228Y-301850D01*
X413228Y-311850D01*
X403228D01*
X413228Y-321850D01*
X403228Y-331850D01*
X413228D01*
X423228Y-341850D01*
X477362Y-234567D02*
X487362Y-224567D01*
X497362D01*
X487362Y-214567D01*
X497362Y-204567D01*
X487362D01*
X477362Y-194567D01*
X467362Y-204567D01*
X457362D01*
X467362Y-214567D01*
X457362Y-224567D01*
X467362D01*
X477362Y-234567D01*
X445374D02*
X455374Y-224567D01*
X465374D01*
X455374Y-214567D01*
X465374Y-204567D01*
X455374D01*
X445374Y-194567D01*
X435374Y-204567D01*
X425374D01*
X435374Y-214567D01*
X425374Y-224567D01*
X435374D01*
X445374Y-234567D01*
X413386D02*
X423386Y-224567D01*
X433386D01*
X423386Y-214567D01*
X433386Y-204567D01*
X423386D01*
X413386Y-194567D01*
X403386Y-204567D01*
X393386D01*
X403386Y-214567D01*
X393386Y-224567D01*
X403386D01*
X413386Y-234567D01*
X381398D02*
X391398Y-224567D01*
X401398D01*
X391398Y-214567D01*
X401398Y-204567D01*
X391398D01*
X381398Y-194567D01*
X371398Y-204567D01*
X361398D01*
X371398Y-214567D01*
X361398Y-224567D01*
X371398D01*
X381398Y-234567D01*
X349409D02*
X359409Y-224567D01*
X369409D01*
X359409Y-214567D01*
X369409Y-204567D01*
X359409D01*
X349409Y-194567D01*
X339409Y-204567D01*
X329409D01*
X339409Y-214567D01*
X329409Y-224567D01*
X339409D01*
X349409Y-234567D01*
X275590Y-282795D02*
X285590Y-272795D01*
X295590D01*
X285590Y-262795D01*
X295590Y-252795D01*
X285590D01*
X275590Y-242795D01*
X265590Y-252795D01*
X255590D01*
X265590Y-262795D01*
X255590Y-272795D01*
X265590D01*
X275590Y-282795D01*
X243766D02*
X253766Y-272795D01*
X263766D01*
X253766Y-262795D01*
X263766Y-252795D01*
X253766D01*
X243766Y-242795D01*
X233766Y-252795D01*
X223766D01*
X233766Y-262795D01*
X223766Y-272795D01*
X233766D01*
X243766Y-282795D01*
X211942D02*
X221942Y-272795D01*
X231942D01*
X221942Y-262795D01*
X231942Y-252795D01*
X221942D01*
X211942Y-242795D01*
X201942Y-252795D01*
X191942D01*
X201942Y-262795D01*
X191942Y-272795D01*
X201942D01*
X211942Y-282795D01*
X180118D02*
X190118Y-272795D01*
X200118D01*
X190118Y-262795D01*
X200118Y-252795D01*
X190118D01*
X180118Y-242795D01*
X170118Y-252795D01*
X160118D01*
X170118Y-262795D01*
X160118Y-272795D01*
X170118D01*
X180118Y-282795D01*
X1139764Y398307D02*
X1149764Y408307D01*
X1159764D01*
X1149764Y418307D01*
X1159764Y428307D01*
X1149764D01*
X1139764Y438307D01*
X1129764Y428307D01*
X1119764D01*
X1129764Y418307D01*
X1119764Y408307D01*
X1129764D01*
X1139764Y398307D01*
Y366811D02*
X1149764Y376811D01*
X1159764D01*
X1149764Y386811D01*
X1159764Y396811D01*
X1149764D01*
X1139764Y406811D01*
X1129764Y396811D01*
X1119764D01*
X1129764Y386811D01*
X1119764Y376811D01*
X1129764D01*
X1139764Y366811D01*
Y337284D02*
X1149764Y347284D01*
X1159764D01*
X1149764Y357284D01*
X1159764Y367284D01*
X1149764D01*
X1139764Y377284D01*
X1129764Y367284D01*
X1119764D01*
X1129764Y357284D01*
X1119764Y347284D01*
X1129764D01*
X1139764Y337284D01*
Y308740D02*
X1149764Y318740D01*
X1159764D01*
X1149764Y328740D01*
X1159764Y338740D01*
X1149764D01*
X1139764Y348740D01*
X1129764Y338740D01*
X1119764D01*
X1129764Y328740D01*
X1119764Y318740D01*
X1129764D01*
X1139764Y308740D01*
X1109252D02*
X1119252Y318740D01*
X1129252D01*
X1119252Y328740D01*
X1129252Y338740D01*
X1119252D01*
X1109252Y348740D01*
X1099252Y338740D01*
X1089252D01*
X1099252Y328740D01*
X1089252Y318740D01*
X1099252D01*
X1109252Y308740D01*
Y337284D02*
X1119252Y347284D01*
X1129252D01*
X1119252Y357284D01*
X1129252Y367284D01*
X1119252D01*
X1109252Y377284D01*
X1099252Y367284D01*
X1089252D01*
X1099252Y357284D01*
X1089252Y347284D01*
X1099252D01*
X1109252Y337284D01*
Y366811D02*
X1119252Y376811D01*
X1129252D01*
X1119252Y386811D01*
X1129252Y396811D01*
X1119252D01*
X1109252Y406811D01*
X1099252Y396811D01*
X1089252D01*
X1099252Y386811D01*
X1089252Y376811D01*
X1099252D01*
X1109252Y366811D01*
Y398307D02*
X1119252Y408307D01*
X1129252D01*
X1119252Y418307D01*
X1129252Y428307D01*
X1119252D01*
X1109252Y438307D01*
X1099252Y428307D01*
X1089252D01*
X1099252Y418307D01*
X1089252Y408307D01*
X1099252D01*
X1109252Y398307D01*
X682087Y400276D02*
X692087Y410276D01*
X702087D01*
X692087Y420276D01*
X702087Y430276D01*
X692087D01*
X682087Y440276D01*
X672087Y430276D01*
X662087D01*
X672087Y420276D01*
X662087Y410276D01*
X672087D01*
X682087Y400276D01*
Y367795D02*
X692087Y377795D01*
X702087D01*
X692087Y387795D01*
X702087Y397795D01*
X692087D01*
X682087Y407795D01*
X672087Y397795D01*
X662087D01*
X672087Y387795D01*
X662087Y377795D01*
X672087D01*
X682087Y367795D01*
Y337284D02*
X692087Y347284D01*
X702087D01*
X692087Y357284D01*
X702087Y367284D01*
X692087D01*
X682087Y377284D01*
X672087Y367284D01*
X662087D01*
X672087Y357284D01*
X662087Y347284D01*
X672087D01*
X682087Y337284D01*
Y308740D02*
X692087Y318740D01*
X702087D01*
X692087Y328740D01*
X702087Y338740D01*
X692087D01*
X682087Y348740D01*
X672087Y338740D01*
X662087D01*
X672087Y328740D01*
X662087Y318740D01*
X672087D01*
X682087Y308740D01*
X713583D02*
X723583Y318740D01*
X733583D01*
X723583Y328740D01*
X733583Y338740D01*
X723583D01*
X713583Y348740D01*
X703583Y338740D01*
X693583D01*
X703583Y328740D01*
X693583Y318740D01*
X703583D01*
X713583Y308740D01*
Y337284D02*
X723583Y347284D01*
X733583D01*
X723583Y357284D01*
X733583Y367284D01*
X723583D01*
X713583Y377284D01*
X703583Y367284D01*
X693583D01*
X703583Y357284D01*
X693583Y347284D01*
X703583D01*
X713583Y337284D01*
Y367795D02*
X723583Y377795D01*
X733583D01*
X723583Y387795D01*
X733583Y397795D01*
X723583D01*
X713583Y407795D01*
X703583Y397795D01*
X693583D01*
X703583Y387795D01*
X693583Y377795D01*
X703583D01*
X713583Y367795D01*
Y400276D02*
X723583Y410276D01*
X733583D01*
X723583Y420276D01*
X733583Y430276D01*
X723583D01*
X713583Y440276D01*
X703583Y430276D01*
X693583D01*
X703583Y420276D01*
X693583Y410276D01*
X703583D01*
X713583Y400276D01*
X462598Y330394D02*
X472598Y340394D01*
X482598D01*
X472598Y350394D01*
X482598Y360394D01*
X472598D01*
X462598Y370394D01*
X452598Y360394D01*
X442598D01*
X452598Y350394D01*
X442598Y340394D01*
X452598D01*
X462598Y330394D01*
X438976Y307756D02*
X448976Y317756D01*
X458976D01*
X448976Y327756D01*
X458976Y337756D01*
X448976D01*
X438976Y347756D01*
X428976Y337756D01*
X418976D01*
X428976Y327756D01*
X418976Y317756D01*
X428976D01*
X438976Y307756D01*
X417323Y286102D02*
X427323Y296102D01*
X437323D01*
X427323Y306102D01*
X437323Y316102D01*
X427323D01*
X417323Y326102D01*
X407323Y316102D01*
X397323D01*
X407323Y306102D01*
X397323Y296102D01*
X407323D01*
X417323Y286102D01*
X392716Y262480D02*
X402716Y272480D01*
X412716D01*
X402716Y282480D01*
X412716Y292480D01*
X402716D01*
X392716Y302480D01*
X382716Y292480D01*
X372716D01*
X382716Y282480D01*
X372716Y272480D01*
X382716D01*
X392716Y262480D01*
X391732Y217205D02*
X401732Y227205D01*
X411732D01*
X401732Y237205D01*
X411732Y247205D01*
X401732D01*
X391732Y257205D01*
X381732Y247205D01*
X371732D01*
X381732Y237205D01*
X371732Y227205D01*
X381732D01*
X391732Y217205D01*
X370079Y239843D02*
X380079Y249843D01*
X390079D01*
X380079Y259842D01*
X390079Y269842D01*
X380079D01*
X370079Y279842D01*
X360079Y269842D01*
X350079D01*
X360079Y259842D01*
X350079Y249843D01*
X360079D01*
X370079Y239843D01*
X1007874Y-232598D02*
X1017874Y-222598D01*
X1027874D01*
X1017874Y-212598D01*
X1027874Y-202598D01*
X1017874D01*
X1007874Y-192598D01*
X997874Y-202598D01*
X987874D01*
X997874Y-212598D01*
X987874Y-222598D01*
X997874D01*
X1007874Y-232598D01*
X1099409Y40039D02*
X1109409Y50039D01*
X1119409D01*
X1109409Y60039D01*
X1119409Y70039D01*
X1109409D01*
X1099409Y80039D01*
X1089409Y70039D01*
X1079409D01*
X1089409Y60039D01*
X1079409Y50039D01*
X1089409D01*
X1099409Y40039D01*
X1063976D02*
X1073976Y50039D01*
X1083976D01*
X1073976Y60039D01*
X1083976Y70039D01*
X1073976D01*
X1063976Y80039D01*
X1053976Y70039D01*
X1043976D01*
X1053976Y60039D01*
X1043976Y50039D01*
X1053976D01*
X1063976Y40039D01*
X1030512D02*
X1040512Y50039D01*
X1050512D01*
X1040512Y60039D01*
X1050512Y70039D01*
X1040512D01*
X1030512Y80039D01*
X1020512Y70039D01*
X1010512D01*
X1020512Y60039D01*
X1010512Y50039D01*
X1020512D01*
X1030512Y40039D01*
X1361220Y36102D02*
X1371220Y46102D01*
X1381220D01*
X1371220Y56102D01*
X1381220Y66102D01*
X1371220D01*
X1361220Y76102D01*
X1351220Y66102D01*
X1341220D01*
X1351220Y56102D01*
X1341220Y46102D01*
X1351220D01*
X1361220Y36102D01*
X1021654Y253622D02*
X1031653Y263622D01*
X1041653D01*
X1031653Y273622D01*
X1041653Y283622D01*
X1031653D01*
X1021654Y293622D01*
X1011654Y283622D01*
X1001654D01*
X1011654Y273622D01*
X1001654Y263622D01*
X1011654D01*
X1021654Y253622D01*
X552165Y-82008D02*
X562165Y-72008D01*
X572165D01*
X562165Y-62008D01*
X572165Y-52008D01*
X562165D01*
X552165Y-42008D01*
X542165Y-52008D01*
X532165D01*
X542165Y-62008D01*
X532165Y-72008D01*
X542165D01*
X552165Y-82008D01*
X520669Y-81024D02*
X530669Y-71024D01*
X540669D01*
X530669Y-61024D01*
X540669Y-51024D01*
X530669D01*
X520669Y-41024D01*
X510669Y-51024D01*
X500669D01*
X510669Y-61024D01*
X500669Y-71024D01*
X510669D01*
X520669Y-81024D01*
X487205D02*
X497205Y-71024D01*
X507205D01*
X497205Y-61024D01*
X507205Y-51024D01*
X497205D01*
X487205Y-41024D01*
X477205Y-51024D01*
X467205D01*
X477205Y-61024D01*
X467205Y-71024D01*
X477205D01*
X487205Y-81024D01*
X774606Y-234567D02*
X784606Y-224567D01*
X794606D01*
X784606Y-214567D01*
X794606Y-204567D01*
X784606D01*
X774606Y-194567D01*
X764606Y-204567D01*
X754606D01*
X764606Y-214567D01*
X754606Y-224567D01*
X764606D01*
X774606Y-234567D01*
X864173Y-82008D02*
X874173Y-72008D01*
X884173D01*
X874173Y-62008D01*
X884173Y-52008D01*
X874173D01*
X864173Y-42008D01*
X854173Y-52008D01*
X844173D01*
X854173Y-62008D01*
X844173Y-72008D01*
X854173D01*
X864173Y-82008D01*
X910433Y249685D02*
X920433Y259685D01*
X930433D01*
X920433Y269685D01*
X930433Y279685D01*
X920433D01*
X910433Y289685D01*
X900433Y279685D01*
X890433D01*
X900433Y269685D01*
X890433Y259685D01*
X900433D01*
X910433Y249685D01*
X878937Y240827D02*
X888937Y250827D01*
X898937D01*
X888937Y260827D01*
X898937Y270827D01*
X888937D01*
X878937Y280827D01*
X868937Y270827D01*
X858937D01*
X868937Y260827D01*
X858937Y250827D01*
X868937D01*
X878937Y240827D01*
Y271339D02*
X888937Y281339D01*
X898937D01*
X888937Y291339D01*
X898937Y301339D01*
X888937D01*
X878937Y311339D01*
X868937Y301339D01*
X858937D01*
X868937Y291339D01*
X858937Y281339D01*
X868937D01*
X878937Y271339D01*
X866142Y312677D02*
X876142Y322677D01*
X886142D01*
X876142Y332677D01*
X886142Y342677D01*
X876142D01*
X866142Y352677D01*
X856142Y342677D01*
X846142D01*
X856142Y332677D01*
X846142Y322677D01*
X856142D01*
X866142Y312677D01*
X329724Y-86929D02*
X339724Y-76929D01*
X349724D01*
X339724Y-66929D01*
X349724Y-56929D01*
X339724D01*
X329724Y-46929D01*
X319724Y-56929D01*
X309724D01*
X319724Y-66929D01*
X309724Y-76929D01*
X319724D01*
X329724Y-86929D01*
X361221Y-77087D02*
X371221Y-67087D01*
X381221D01*
X371221Y-57087D01*
X381221Y-47087D01*
X371221D01*
X361221Y-37087D01*
X351221Y-47087D01*
X341221D01*
X351221Y-57087D01*
X341221Y-67087D01*
X351221D01*
X361221Y-77087D01*
X383858Y39055D02*
X393858Y49055D01*
X403858D01*
X393858Y59055D01*
X403858Y69055D01*
X393858D01*
X383858Y79055D01*
X373858Y69055D01*
X363858D01*
X373858Y59055D01*
X363858Y49055D01*
X373858D01*
X383858Y39055D01*
X309055D02*
X319055Y49055D01*
X329055D01*
X319055Y59055D01*
X329055Y69055D01*
X319055D01*
X309055Y79055D01*
X299055Y69055D01*
X289055D01*
X299055Y59055D01*
X289055Y49055D01*
X299055D01*
X309055Y39055D01*
X344488Y50866D02*
X354488Y60866D01*
X364488D01*
X354488Y70866D01*
X364488Y80866D01*
X354488D01*
X344488Y90866D01*
X334488Y80866D01*
X324488D01*
X334488Y70866D01*
X324488Y60866D01*
X334488D01*
X344488Y50866D01*
X1204724Y194341D02*
X1214724Y204341D01*
X1224724D01*
X1214724Y214341D01*
X1224724Y224341D01*
X1214724D01*
X1204724Y234341D01*
X1194724Y224341D01*
X1184724D01*
X1194724Y214341D01*
X1184724Y204341D01*
X1194724D01*
X1204724Y194341D01*
X1177165Y183740D02*
X1187165Y193740D01*
X1197165D01*
X1187165Y203740D01*
X1197165Y213740D01*
X1187165D01*
X1177165Y223740D01*
X1167165Y213740D01*
X1157165D01*
X1167165Y203740D01*
X1157165Y193740D01*
X1167165D01*
X1177165Y183740D01*
X1202756Y243780D02*
X1212756Y253780D01*
X1222756D01*
X1212756Y263779D01*
X1222756Y273779D01*
X1212756D01*
X1202756Y283779D01*
X1192756Y273779D01*
X1182756D01*
X1192756Y263779D01*
X1182756Y253780D01*
X1192756D01*
X1202756Y243780D01*
X1350350Y203382D02*
X1360350Y213382D01*
X1370350D01*
X1360350Y223382D01*
X1370350Y233382D01*
X1360350D01*
X1350350Y243382D01*
X1340350Y233382D01*
X1330350D01*
X1340350Y223382D01*
X1330350Y213382D01*
X1340350D01*
X1350350Y203382D01*
X1246063Y-225709D02*
X1256063Y-215709D01*
X1266063D01*
X1256063Y-205709D01*
X1266063Y-195709D01*
X1256063D01*
X1246063Y-185709D01*
X1236063Y-195709D01*
X1226063D01*
X1236063Y-205709D01*
X1226063Y-215709D01*
X1236063D01*
X1246063Y-225709D01*
X1163643Y-248346D02*
X1173643Y-238346D01*
X1183643D01*
X1173643Y-228346D01*
X1183643Y-218346D01*
X1173643D01*
X1163643Y-208346D01*
X1153643Y-218346D01*
X1143643D01*
X1153643Y-228346D01*
X1143643Y-238346D01*
X1153643D01*
X1163643Y-248346D01*
X1144685Y-225709D02*
X1154685Y-215709D01*
X1164685D01*
X1154685Y-205709D01*
X1164685Y-195709D01*
X1154685D01*
X1144685Y-185709D01*
X1134685Y-195709D01*
X1124685D01*
X1134685Y-205709D01*
X1124685Y-215709D01*
X1134685D01*
X1144685Y-225709D01*
X1186516Y-272644D02*
X1196516Y-262644D01*
X1206516D01*
X1196516Y-252644D01*
X1206516Y-242644D01*
X1196516D01*
X1186516Y-232644D01*
X1176516Y-242644D01*
X1166516D01*
X1176516Y-252644D01*
X1166516Y-262644D01*
X1176516D01*
X1186516Y-272644D01*
X1181995Y-90087D02*
X1191995Y-80087D01*
X1201995D01*
X1191995Y-70087D01*
X1201995Y-60087D01*
X1191995D01*
X1181995Y-50087D01*
X1171995Y-60087D01*
X1161995D01*
X1171995Y-70087D01*
X1161995Y-80087D01*
X1171995D01*
X1181995Y-90087D01*
X934037Y-82601D02*
X944037Y-72601D01*
X954037D01*
X944037Y-62601D01*
X954037Y-52601D01*
X944037D01*
X934037Y-42601D01*
X924037Y-52601D01*
X914037D01*
X924037Y-62601D01*
X914037Y-72601D01*
X924037D01*
X934037Y-82601D01*
X1516732Y31275D02*
X1526732Y41275D01*
X1536732D01*
X1526732Y51275D01*
X1536732Y61275D01*
X1526732D01*
X1516732Y71275D01*
X1506732Y61275D01*
X1496732D01*
X1506732Y51275D01*
X1496732Y41275D01*
X1506732D01*
X1516732Y31275D01*
X1461983Y10143D02*
X1471983Y20143D01*
X1481983D01*
X1471983Y30143D01*
X1481983Y40143D01*
X1471983D01*
X1461983Y50143D01*
X1451983Y40143D01*
X1441983D01*
X1451983Y30143D01*
X1441983Y20143D01*
X1451983D01*
X1461983Y10143D01*
X1519685Y-86929D02*
X1529685Y-76929D01*
X1539685D01*
X1529685Y-66929D01*
X1539685Y-56929D01*
X1529685D01*
X1519685Y-46929D01*
X1509685Y-56929D01*
X1499685D01*
X1509685Y-66929D01*
X1499685Y-76929D01*
X1509685D01*
X1519685Y-86929D01*
X1471457Y-55946D02*
X1481457Y-45946D01*
X1491457D01*
X1481457Y-35946D01*
X1491457Y-25946D01*
X1481457D01*
X1471457Y-15946D01*
X1461457Y-25946D01*
X1451457D01*
X1461457Y-35946D01*
X1451457Y-45946D01*
X1461457D01*
X1471457Y-55946D01*
X1445809Y-112520D02*
X1455809Y-102520D01*
X1465809D01*
X1455809Y-92520D01*
X1465809Y-82520D01*
X1455809D01*
X1445809Y-72520D01*
X1435809Y-82520D01*
X1425809D01*
X1435809Y-92520D01*
X1425809Y-102520D01*
X1435809D01*
X1445809Y-112520D01*
X1427568Y-135739D02*
X1437568Y-125739D01*
X1447568D01*
X1437568Y-115739D01*
X1447568Y-105739D01*
X1437568D01*
X1427568Y-95739D01*
X1417568Y-105739D01*
X1407568D01*
X1417568Y-115739D01*
X1407568Y-125739D01*
X1417568D01*
X1427568Y-135739D01*
X313594Y121747D02*
X323594Y131747D01*
X333594D01*
X323594Y141747D01*
X333594Y151747D01*
X323594D01*
X313594Y161747D01*
X303594Y151747D01*
X293594D01*
X303594Y141747D01*
X293594Y131747D01*
X303594D01*
X313594Y121747D01*
X326772Y86299D02*
X336772Y96299D01*
X346772D01*
X336772Y106299D01*
X346772Y116299D01*
X336772D01*
X326772Y126299D01*
X316772Y116299D01*
X306772D01*
X316772Y106299D01*
X306772Y96299D01*
X316772D01*
X326772Y86299D01*
X350394Y11496D02*
X360394Y21496D01*
X370394D01*
X360394Y31496D01*
X370394Y41496D01*
X360394D01*
X350394Y51496D01*
X340394Y41496D01*
X330394D01*
X340394Y31496D01*
X330394Y21496D01*
X340394D01*
X350394Y11496D01*
X326772Y-39685D02*
X336772Y-29685D01*
X346772D01*
X336772Y-19685D01*
X346772Y-9685D01*
X336772D01*
X326772Y315D01*
X316772Y-9685D01*
X306772D01*
X316772Y-19685D01*
X306772Y-29685D01*
X316772D01*
X326772Y-39685D01*
X324869Y-10156D02*
X334869Y-156D01*
X344869D01*
X334869Y9844D01*
X344869Y19844D01*
X334869D01*
X324869Y29844D01*
X314869Y19844D01*
X304869D01*
X314869Y9844D01*
X304869Y-156D01*
X314869D01*
X324869Y-10156D01*
X1152469Y-89791D02*
X1162469Y-79791D01*
X1172469D01*
X1162469Y-69791D01*
X1172469Y-59791D01*
X1162469D01*
X1152469Y-49791D01*
X1142469Y-59791D01*
X1132469D01*
X1142469Y-69791D01*
X1132469Y-79791D01*
X1142469D01*
X1152469Y-89791D01*
X969578D02*
X979578Y-79791D01*
X989578D01*
X979578Y-69791D01*
X989578Y-59791D01*
X979578D01*
X969578Y-49791D01*
X959578Y-59791D01*
X949578D01*
X959578Y-69791D01*
X949578Y-79791D01*
X959578D01*
X969578Y-89791D01*
X708661Y35249D02*
X718661Y45249D01*
X728661D01*
X718661Y55249D01*
X728661Y65249D01*
X718661D01*
X708661Y75249D01*
X698661Y65249D01*
X688661D01*
X698661Y55249D01*
X688661Y45249D01*
X698661D01*
X708661Y35249D01*
X767128D02*
X777128Y45249D01*
X787128D01*
X777128Y55249D01*
X787128Y65249D01*
X777128D01*
X767128Y75249D01*
X757128Y65249D01*
X747128D01*
X757128Y55249D01*
X747128Y45249D01*
X757128D01*
X767128Y35249D01*
X476378Y236890D02*
X486378Y246890D01*
X496378D01*
X486378Y256890D01*
X496378Y266890D01*
X486378D01*
X476378Y276890D01*
X466378Y266890D01*
X456378D01*
X466378Y256890D01*
X456378Y246890D01*
X466378D01*
X476378Y236890D01*
X474409Y177835D02*
X484409Y187835D01*
X494409D01*
X484409Y197835D01*
X494409Y207835D01*
X484409D01*
X474409Y217835D01*
X464409Y207835D01*
X454409D01*
X464409Y197835D01*
X454409Y187835D01*
X464409D01*
X474409Y177835D01*
X444882D02*
X454882Y187835D01*
X464882D01*
X454882Y197835D01*
X464882Y207835D01*
X454882D01*
X444882Y217835D01*
X434882Y207835D01*
X424882D01*
X434882Y197835D01*
X424882Y187835D01*
X434882D01*
X444882Y177835D01*
X759842Y216220D02*
X769842Y226220D01*
X779842D01*
X769842Y236220D01*
X779842Y246220D01*
X769842D01*
X759842Y256221D01*
X749842Y246220D01*
X739842D01*
X749842Y236220D01*
X739842Y226220D01*
X749842D01*
X759842Y216220D01*
X1210630Y-289685D02*
X1220630Y-279685D01*
X1230630D01*
X1220630Y-269685D01*
X1230630Y-259685D01*
X1220630D01*
X1210630Y-249685D01*
X1200630Y-259685D01*
X1190630D01*
X1200630Y-269685D01*
X1190630Y-279685D01*
X1200630D01*
X1210630Y-289685D01*
X1023622Y-291654D02*
X1033622Y-281654D01*
X1043622D01*
X1033622Y-271654D01*
X1043622Y-261654D01*
X1033622D01*
X1023622Y-251654D01*
X1013622Y-261654D01*
X1003622D01*
X1013622Y-271654D01*
X1003622Y-281654D01*
X1013622D01*
X1023622Y-291654D01*
X581693Y-259173D02*
X591693Y-249173D01*
X601693D01*
X591693Y-239173D01*
X601693Y-229173D01*
X591693D01*
X581693Y-219173D01*
X571693Y-229173D01*
X561693D01*
X571693Y-239173D01*
X561693Y-249173D01*
X571693D01*
X581693Y-259173D01*
X718504Y-280827D02*
X728504Y-270827D01*
X738504D01*
X728504Y-260827D01*
X738504Y-250827D01*
X728504D01*
X718504Y-240827D01*
X708504Y-250827D01*
X698504D01*
X708504Y-260827D01*
X698504Y-270827D01*
X708504D01*
X718504Y-280827D01*
X1162402Y-289685D02*
X1172402Y-279685D01*
X1182402D01*
X1172402Y-269685D01*
X1182402Y-259685D01*
X1172402D01*
X1162402Y-249685D01*
X1152402Y-259685D01*
X1142402D01*
X1152402Y-269685D01*
X1142402Y-279685D01*
X1152402D01*
X1162402Y-289685D01*
X1097441Y-290669D02*
X1107441Y-280669D01*
X1117441D01*
X1107441Y-270669D01*
X1117441Y-260669D01*
X1107441D01*
X1097441Y-250669D01*
X1087441Y-260669D01*
X1077441D01*
X1087441Y-270669D01*
X1077441Y-280669D01*
X1087441D01*
X1097441Y-290669D01*
X552165Y-284764D02*
X562165Y-274764D01*
X572165D01*
X562165Y-264764D01*
X572165Y-254764D01*
X562165D01*
X552165Y-244764D01*
X542165Y-254764D01*
X532165D01*
X542165Y-264764D01*
X532165Y-274764D01*
X542165D01*
X552165Y-284764D01*
X1261811Y-288701D02*
X1271811Y-278701D01*
X1281811D01*
X1271811Y-268701D01*
X1281811Y-258701D01*
X1271811D01*
X1261811Y-248701D01*
X1251811Y-258701D01*
X1241811D01*
X1251811Y-268701D01*
X1241811Y-278701D01*
X1251811D01*
X1261811Y-288701D01*
X1212598Y-431417D02*
X1222598Y-421417D01*
X1232598D01*
X1222598Y-411417D01*
X1232598Y-401417D01*
X1222598D01*
X1212598Y-391417D01*
X1202598Y-401417D01*
X1192598D01*
X1202598Y-411417D01*
X1192598Y-421417D01*
X1202598D01*
X1212598Y-431417D01*
X1257874D02*
X1267874Y-421417D01*
X1277874D01*
X1267874Y-411417D01*
X1277874Y-401417D01*
X1267874D01*
X1257874Y-391417D01*
X1247874Y-401417D01*
X1237874D01*
X1247874Y-411417D01*
X1237874Y-421417D01*
X1247874D01*
X1257874Y-431417D01*
X1392716Y40039D02*
X1402716Y50039D01*
X1412716D01*
X1402716Y60039D01*
X1412716Y70039D01*
X1402716D01*
X1392716Y80039D01*
X1382716Y70039D01*
X1372716D01*
X1382716Y60039D01*
X1372716Y50039D01*
X1382716D01*
X1392716Y40039D01*
X1497680Y-35956D02*
X1507680Y-25956D01*
X1517680D01*
X1507680Y-15956D01*
X1517680Y-5956D01*
X1507680D01*
X1497680Y4044D01*
X1487680Y-5956D01*
X1477680D01*
X1487680Y-15956D01*
X1477680Y-25956D01*
X1487680D01*
X1497680Y-35956D01*
X1483549Y-10026D02*
X1493549Y-26D01*
X1503549D01*
X1493549Y9974D01*
X1503549Y19974D01*
X1493549D01*
X1483549Y29974D01*
X1473549Y19974D01*
X1463549D01*
X1473549Y9974D01*
X1463549Y-26D01*
X1473549D01*
X1483549Y-10026D01*
X1500238Y60329D02*
X1510238Y70329D01*
X1520238D01*
X1510238Y80329D01*
X1520238Y90329D01*
X1510238D01*
X1500238Y100329D01*
X1490238Y90329D01*
X1480238D01*
X1490238Y80329D01*
X1480238Y70329D01*
X1490238D01*
X1500238Y60329D01*
X1499407Y89845D02*
X1509407Y99845D01*
X1519407D01*
X1509407Y109845D01*
X1519407Y119845D01*
X1509407D01*
X1499407Y129845D01*
X1489407Y119845D01*
X1479407D01*
X1489407Y109845D01*
X1479407Y99845D01*
X1489407D01*
X1499407Y89845D01*
X289370Y-47559D02*
X299370Y-37559D01*
X309370D01*
X299370Y-27559D01*
X309370Y-17559D01*
X299370D01*
X289370Y-7559D01*
X279370Y-17559D01*
X269370D01*
X279370Y-27559D01*
X269370Y-37559D01*
X279370D01*
X289370Y-47559D01*
X1391732Y-89882D02*
X1401732Y-79882D01*
X1411732D01*
X1401732Y-69882D01*
X1411732Y-59882D01*
X1401732D01*
X1391732Y-49882D01*
X1381732Y-59882D01*
X1371732D01*
X1381732Y-69882D01*
X1371732Y-79882D01*
X1381732D01*
X1391732Y-89882D01*
X295276Y-139094D02*
X305276Y-129094D01*
X315276D01*
X305276Y-119094D01*
X315276Y-109094D01*
X305276D01*
X295276Y-99094D01*
X285276Y-109094D01*
X275276D01*
X285276Y-119094D01*
X275276Y-129094D01*
X285276D01*
X295276Y-139094D01*
Y-109567D02*
X305276Y-99567D01*
X315276D01*
X305276Y-89567D01*
X315276Y-79567D01*
X305276D01*
X295276Y-69567D01*
X285276Y-79567D01*
X275276D01*
X285276Y-89567D01*
X275276Y-99567D01*
X285276D01*
X295276Y-109567D01*
X1391732Y155197D02*
X1401732Y165197D01*
X1411732D01*
X1401732Y175197D01*
X1411732Y185197D01*
X1401732D01*
X1391732Y195197D01*
X1381732Y185197D01*
X1371732D01*
X1381732Y175197D01*
X1371732Y165197D01*
X1381732D01*
X1391732Y155197D01*
Y-204055D02*
X1401732Y-194055D01*
X1411732D01*
X1401732Y-184055D01*
X1411732Y-174055D01*
X1401732D01*
X1391732Y-164055D01*
X1381732Y-174055D01*
X1371732D01*
X1381732Y-184055D01*
X1371732Y-194055D01*
X1381732D01*
X1391732Y-204055D01*
X74953Y-132634D02*
X84953Y-122634D01*
X94953D01*
X84953Y-112634D01*
X94953Y-102634D01*
X84953D01*
X74953Y-92634D01*
X64953Y-102634D01*
X54953D01*
X64953Y-112634D01*
X54953Y-122634D01*
X64953D01*
X74953Y-132634D01*
X109252Y72520D02*
X119252Y82520D01*
X129252D01*
X119252Y92520D01*
X129252Y102520D01*
X119252D01*
X109252Y112520D01*
X99252Y102520D01*
X89252D01*
X99252Y92520D01*
X89252Y82520D01*
X99252D01*
X109252Y72520D01*
X963583Y192598D02*
X973583Y202598D01*
X983583D01*
X973583Y212598D01*
X983583Y222598D01*
X973583D01*
X963583Y232598D01*
X953583Y222598D01*
X943583D01*
X953583Y212598D01*
X943583Y202598D01*
X953583D01*
X963583Y192598D01*
D56*
X-26307Y168795D02*
G03*
X-26307Y168795I-20000J0D01*
G01*
Y-167425D02*
G03*
X-26307Y-167425I-20000J0D01*
G01*
X159913Y168795D02*
G03*
X159913Y168795I-20000J0D01*
G01*
Y-167425D02*
G03*
X159913Y-167425I-20000J0D01*
G01*
%TF.MD5,d9ce8408533185de4bebcf07c415887f*%
M02*
