%TF.GenerationSoftware,Altium Limited,Altium Designer,21.6.4 (81)*%
G04 Layer_Color=128*
%FSLAX26Y26*%
%MOIN*%
%TF.SameCoordinates,57458678-C278-4CFF-9AA2-19D65F52AC30*%
%TF.FilePolarity,Positive*%
%TF.FileFunction,Drillmap*%
%TF.Part,Single*%
G01*
G75*
%TA.AperFunction,NonConductor*%
%ADD55C,0.005000*%
D55*
X1095473Y500000D02*
X1126968D01*
X1111220Y484252D02*
Y515748D01*
X1016732Y500000D02*
X1048228D01*
X1032480Y484252D02*
Y515748D01*
X937992Y500000D02*
X969488D01*
X953740Y484252D02*
Y515748D01*
X780512Y500000D02*
X812008D01*
X796260Y484252D02*
Y515748D01*
X701772Y500000D02*
X733268D01*
X717520Y484252D02*
Y515748D01*
X859252Y500000D02*
X890748D01*
X875000Y484252D02*
Y515748D01*
X-58118Y168795D02*
X-34496D01*
X-46307Y156984D02*
Y180606D01*
X-58118Y-167425D02*
X-34496D01*
X-46307Y-179236D02*
Y-155614D01*
X128102Y168795D02*
X151724D01*
X139913Y156984D02*
Y180606D01*
X128102Y-167425D02*
X151724D01*
X139913Y-179236D02*
Y-155614D01*
X149756Y-93803D02*
X165504D01*
X157630Y-101677D02*
Y-85929D01*
X149756Y95173D02*
X165504D01*
X157630Y87299D02*
Y103047D01*
X149756Y-62307D02*
X165504D01*
X157630Y-70181D02*
Y-54433D01*
X149756Y63677D02*
X165504D01*
X157630Y55803D02*
Y71551D01*
X149756Y-30811D02*
X165504D01*
X157630Y-38685D02*
Y-22937D01*
X149756Y32181D02*
X165504D01*
X157630Y24307D02*
Y40055D01*
X177315Y-109551D02*
X193063D01*
X185189Y-117425D02*
Y-101677D01*
X177315Y110921D02*
X193063D01*
X185189Y103047D02*
Y118795D01*
X177315Y-78055D02*
X193063D01*
X185189Y-85929D02*
Y-70181D01*
X177315Y79425D02*
X193063D01*
X185189Y71551D02*
Y87299D01*
X177315Y-46559D02*
X193063D01*
X185189Y-54433D02*
Y-38685D01*
X177315Y47929D02*
X193063D01*
X185189Y40055D02*
Y55803D01*
X177315Y-15063D02*
X193063D01*
X185189Y-22937D02*
Y-7189D01*
X177315Y16433D02*
X193063D01*
X185189Y8559D02*
Y24307D01*
X1340551Y-60039D02*
X1350393D01*
X1345472Y-64961D02*
Y-55118D01*
X1308563Y-60039D02*
X1318405D01*
X1313484Y-64961D02*
Y-55118D01*
X1276575Y-60039D02*
X1286417D01*
X1281496Y-64961D02*
Y-55118D01*
X707677Y-214567D02*
X717520D01*
X712598Y-219488D02*
Y-209646D01*
X739173Y-214567D02*
X749016D01*
X744095Y-219488D02*
Y-209646D01*
X769685Y-275591D02*
X779528D01*
X774606Y-280512D02*
Y-270669D01*
X769685Y-246063D02*
X779528D01*
X774606Y-250984D02*
Y-241142D01*
X141732Y270669D02*
X151575D01*
X146654Y265748D02*
Y275591D01*
X295275Y270669D02*
X305118D01*
X300197Y265748D02*
Y275591D01*
X264567Y270669D02*
X274409D01*
X269488Y265748D02*
Y275591D01*
X233858Y270669D02*
X243701D01*
X238779Y265748D02*
Y275591D01*
X203149Y270669D02*
X212992D01*
X208071Y265748D02*
Y275591D01*
X172441Y270669D02*
X182283D01*
X177362Y265748D02*
Y275591D01*
X581693Y557087D02*
X591535D01*
X586614Y552165D02*
Y562008D01*
X548228Y557087D02*
X558071D01*
X553149Y552165D02*
Y562008D01*
X514764Y557087D02*
X524606D01*
X519685Y552165D02*
Y562008D01*
X481299Y557087D02*
X491142D01*
X486220Y552165D02*
Y562008D01*
X447835Y557087D02*
X457677D01*
X452756Y552165D02*
Y562008D01*
X414370Y557087D02*
X424212D01*
X419291Y552165D02*
Y562008D01*
X603346Y197835D02*
X613189D01*
X608268Y192913D02*
Y202756D01*
X603346Y241142D02*
X613189D01*
X608268Y236220D02*
Y246063D01*
X1450787Y189961D02*
X1460630D01*
X1455709Y185039D02*
Y194882D01*
X1403543Y265748D02*
X1413386D01*
X1408465Y260827D02*
Y270669D01*
X1425197Y245079D02*
X1435039D01*
X1430118Y240157D02*
Y250000D01*
X1447835Y225394D02*
X1457677D01*
X1452756Y220472D02*
Y230315D01*
X1483268Y325787D02*
X1493110D01*
X1488189Y320866D02*
Y330709D01*
X1502953Y221457D02*
X1512795D01*
X1507874Y216536D02*
Y226378D01*
X1532480Y187008D02*
X1542323D01*
X1537402Y182087D02*
Y191929D01*
X1502953Y187008D02*
X1512795D01*
X1507874Y182087D02*
Y191929D01*
X1413386Y-220472D02*
X1423228D01*
X1418307Y-225394D02*
Y-215551D01*
X1446850Y-220472D02*
X1456693D01*
X1451772Y-225394D02*
Y-215551D01*
X1480315Y-220472D02*
X1490157D01*
X1485236Y-225394D02*
Y-215551D01*
X1495079Y-191929D02*
X1504921D01*
X1500000Y-196850D02*
Y-187008D01*
X1465059Y-191929D02*
X1474901D01*
X1469980Y-196850D02*
Y-187008D01*
X1435039Y-191929D02*
X1444882D01*
X1439961Y-196850D02*
Y-187008D01*
X203740Y139764D02*
X213583D01*
X208661Y134843D02*
Y144685D01*
X234252Y139764D02*
X244094D01*
X239173Y134843D02*
Y144685D01*
X266732Y139764D02*
X276575D01*
X271654Y134843D02*
Y144685D01*
X266732Y168307D02*
X276575D01*
X271654Y163386D02*
Y173228D01*
X234252Y168307D02*
X244094D01*
X239173Y163386D02*
Y173228D01*
X203740Y168307D02*
X213583D01*
X208661Y163386D02*
Y173228D01*
X242126Y-165354D02*
X251968D01*
X247047Y-170275D02*
Y-160433D01*
X210630Y-165354D02*
X220472D01*
X215551Y-170275D02*
Y-160433D01*
X241142Y-136811D02*
X250984D01*
X246063Y-141732D02*
Y-131890D01*
X210630Y-136811D02*
X220472D01*
X215551Y-141732D02*
Y-131890D01*
X553150Y-421260D02*
X562992D01*
X558071Y-426181D02*
Y-416339D01*
X518209Y-421260D02*
X528051D01*
X523130Y-426181D02*
Y-416339D01*
X483268Y-421260D02*
X493110D01*
X488189Y-426181D02*
Y-416339D01*
X418307Y-385827D02*
X428149D01*
X423228Y-390748D02*
Y-380906D01*
X418307Y-353839D02*
X428149D01*
X423228Y-358760D02*
Y-348917D01*
X418307Y-321850D02*
X428149D01*
X423228Y-326772D02*
Y-316929D01*
X472441Y-214567D02*
X482283D01*
X477362Y-219488D02*
Y-209646D01*
X440453Y-214567D02*
X450295D01*
X445374Y-219488D02*
Y-209646D01*
X408465Y-214567D02*
X418307D01*
X413386Y-219488D02*
Y-209646D01*
X376476Y-214567D02*
X386319D01*
X381398Y-219488D02*
Y-209646D01*
X344488Y-214567D02*
X354331D01*
X349409Y-219488D02*
Y-209646D01*
X270669Y-262795D02*
X280512D01*
X275590Y-267716D02*
Y-257874D01*
X238845Y-262795D02*
X248688D01*
X243766Y-267716D02*
Y-257874D01*
X207021Y-262795D02*
X216863D01*
X211942Y-267716D02*
Y-257874D01*
X175197Y-262795D02*
X185039D01*
X180118Y-267716D02*
Y-257874D01*
X1134843Y418307D02*
X1144685D01*
X1139764Y413386D02*
Y423228D01*
X1134843Y386811D02*
X1144685D01*
X1139764Y381890D02*
Y391732D01*
X1134843Y357284D02*
X1144685D01*
X1139764Y352362D02*
Y362205D01*
X1134843Y328740D02*
X1144685D01*
X1139764Y323819D02*
Y333661D01*
X1104331Y328740D02*
X1114173D01*
X1109252Y323819D02*
Y333661D01*
X1104331Y357284D02*
X1114173D01*
X1109252Y352362D02*
Y362205D01*
X1104331Y386811D02*
X1114173D01*
X1109252Y381890D02*
Y391732D01*
X1104331Y418307D02*
X1114173D01*
X1109252Y413386D02*
Y423228D01*
X677165Y420276D02*
X687008D01*
X682087Y415354D02*
Y425197D01*
X677165Y387795D02*
X687008D01*
X682087Y382874D02*
Y392716D01*
X677165Y357284D02*
X687008D01*
X682087Y352362D02*
Y362205D01*
X677165Y328740D02*
X687008D01*
X682087Y323819D02*
Y333661D01*
X708662Y328740D02*
X718504D01*
X713583Y323819D02*
Y333661D01*
X708662Y357284D02*
X718504D01*
X713583Y352362D02*
Y362205D01*
X708662Y387795D02*
X718504D01*
X713583Y382874D02*
Y392716D01*
X708662Y420276D02*
X718504D01*
X713583Y415354D02*
Y425197D01*
X457677Y350394D02*
X467520D01*
X462598Y345473D02*
Y355315D01*
X434055Y327756D02*
X443898D01*
X438976Y322835D02*
Y332677D01*
X412402Y306102D02*
X422244D01*
X417323Y301181D02*
Y311024D01*
X387795Y282480D02*
X397638D01*
X392716Y277559D02*
Y287401D01*
X386811Y237205D02*
X396654D01*
X391732Y232284D02*
Y242126D01*
X365158Y259842D02*
X375000D01*
X370079Y254921D02*
Y264764D01*
X1002953Y-212598D02*
X1012795D01*
X1007874Y-217520D02*
Y-207677D01*
X1094488Y60039D02*
X1104331D01*
X1099409Y55118D02*
Y64961D01*
X1059055Y60039D02*
X1068898D01*
X1063976Y55118D02*
Y64961D01*
X1025591Y60039D02*
X1035433D01*
X1030512Y55118D02*
Y64961D01*
X1356299Y56102D02*
X1366142D01*
X1361220Y51181D02*
Y61024D01*
X1016732Y273622D02*
X1026575D01*
X1021654Y268701D02*
Y278543D01*
X547244Y-62008D02*
X557087D01*
X552165Y-66929D02*
Y-57087D01*
X515748Y-61024D02*
X525591D01*
X520669Y-65945D02*
Y-56102D01*
X482284Y-61024D02*
X492126D01*
X487205Y-65945D02*
Y-56102D01*
X769685Y-214567D02*
X779528D01*
X774606Y-219488D02*
Y-209646D01*
X859252Y-62008D02*
X869094D01*
X864173Y-66929D02*
Y-57087D01*
X905512Y269685D02*
X915354D01*
X910433Y264764D02*
Y274606D01*
X874016Y260827D02*
X883858D01*
X878937Y255906D02*
Y265748D01*
X874016Y291339D02*
X883858D01*
X878937Y286417D02*
Y296260D01*
X861221Y332677D02*
X871063D01*
X866142Y327756D02*
Y337598D01*
X324803Y-66929D02*
X334646D01*
X329724Y-71850D02*
Y-62008D01*
X356299Y-57087D02*
X366142D01*
X361221Y-62008D02*
Y-52165D01*
X378937Y59055D02*
X388779D01*
X383858Y54134D02*
Y63976D01*
X304134Y59055D02*
X313976D01*
X309055Y54134D02*
Y63976D01*
X339567Y70866D02*
X349409D01*
X344488Y65945D02*
Y75787D01*
X1199803Y214341D02*
X1209646D01*
X1204724Y209420D02*
Y219262D01*
X1172244Y203740D02*
X1182087D01*
X1177165Y198819D02*
Y208661D01*
X1197835Y263779D02*
X1207677D01*
X1202756Y258858D02*
Y268701D01*
X1345429Y223382D02*
X1355271D01*
X1350350Y218460D02*
Y228303D01*
X1241141Y-205709D02*
X1250984D01*
X1246063Y-210630D02*
Y-200787D01*
X1158722Y-228346D02*
X1168564D01*
X1163643Y-233268D02*
Y-223425D01*
X1139764Y-205709D02*
X1149606D01*
X1144685Y-210630D02*
Y-200787D01*
X1181594Y-252644D02*
X1191437D01*
X1186516Y-257566D02*
Y-247723D01*
X1177073Y-70087D02*
X1186916D01*
X1181995Y-75008D02*
Y-65166D01*
X929116Y-62601D02*
X938958D01*
X934037Y-67522D02*
Y-57680D01*
X1511811Y51275D02*
X1521653D01*
X1516732Y46354D02*
Y56196D01*
X1457062Y30143D02*
X1466904D01*
X1461983Y25221D02*
Y35064D01*
X1514764Y-66929D02*
X1524606D01*
X1519685Y-71850D02*
Y-62008D01*
X1466535Y-35946D02*
X1476378D01*
X1471457Y-40867D02*
Y-31025D01*
X1440888Y-92520D02*
X1450730D01*
X1445809Y-97441D02*
Y-87599D01*
X1422647Y-115739D02*
X1432489D01*
X1427568Y-120660D02*
Y-110818D01*
X308673Y141747D02*
X318516D01*
X313594Y136826D02*
Y146669D01*
X321851Y106299D02*
X331693D01*
X326772Y101378D02*
Y111220D01*
X345473Y31496D02*
X355315D01*
X350394Y26575D02*
Y36417D01*
X321851Y-19685D02*
X331693D01*
X326772Y-24606D02*
Y-14764D01*
X319948Y9844D02*
X329790D01*
X324869Y4923D02*
Y14766D01*
X1147547Y-69791D02*
X1157390D01*
X1152469Y-74713D02*
Y-64870D01*
X964657Y-69791D02*
X974500D01*
X969578Y-74713D02*
Y-64870D01*
X703740Y55249D02*
X713583D01*
X708661Y50328D02*
Y60171D01*
X762207Y55249D02*
X772049D01*
X767128Y50328D02*
Y60171D01*
X471457Y256890D02*
X481299D01*
X476378Y251969D02*
Y261811D01*
X469488Y197835D02*
X479331D01*
X474409Y192913D02*
Y202756D01*
X439961Y197835D02*
X449803D01*
X444882Y192913D02*
Y202756D01*
X754921Y236220D02*
X764764D01*
X759842Y231299D02*
Y241142D01*
X1205709Y-269685D02*
X1215551D01*
X1210630Y-274606D02*
Y-264764D01*
X1018701Y-271654D02*
X1028543D01*
X1023622Y-276575D02*
Y-266732D01*
X576772Y-239173D02*
X586614D01*
X581693Y-244094D02*
Y-234252D01*
X713583Y-260827D02*
X723425D01*
X718504Y-265748D02*
Y-255906D01*
X1157480Y-269685D02*
X1167323D01*
X1162402Y-274606D02*
Y-264764D01*
X1092520Y-270669D02*
X1102362D01*
X1097441Y-275591D02*
Y-265748D01*
X547244Y-264764D02*
X557087D01*
X552165Y-269685D02*
Y-259843D01*
X1256890Y-268701D02*
X1266732D01*
X1261811Y-273622D02*
Y-263780D01*
X1207677Y-411417D02*
X1217520D01*
X1212598Y-416339D02*
Y-406496D01*
X1252953Y-411417D02*
X1262795D01*
X1257874Y-416339D02*
Y-406496D01*
X1387795Y60039D02*
X1397638D01*
X1392716Y55118D02*
Y64960D01*
X1492759Y-15956D02*
X1502601D01*
X1497680Y-20877D02*
Y-11034D01*
X1478628Y9974D02*
X1488470D01*
X1483549Y5053D02*
Y14895D01*
X1495317Y80329D02*
X1505159D01*
X1500238Y75408D02*
Y85250D01*
X1494486Y109845D02*
X1504328D01*
X1499407Y104924D02*
Y114766D01*
X284449Y-27559D02*
X294291D01*
X289370Y-32480D02*
Y-22638D01*
X1386811Y-69882D02*
X1396653D01*
X1391732Y-74803D02*
Y-64961D01*
X290354Y-119094D02*
X300197D01*
X295276Y-124016D02*
Y-114173D01*
X290354Y-89567D02*
X300197D01*
X295276Y-94488D02*
Y-84646D01*
X1386811Y175197D02*
X1396653D01*
X1391732Y170276D02*
Y180118D01*
X1386811Y-184055D02*
X1396653D01*
X1391732Y-188976D02*
Y-179134D01*
X70031Y-112634D02*
X79874D01*
X74953Y-117555D02*
Y-107713D01*
X104331Y92520D02*
X114173D01*
X109252Y87599D02*
Y97441D01*
X958662Y212598D02*
X968504D01*
X963583Y207677D02*
Y217520D01*
%TF.MD5,d667f3ad6f48e896df8e45f9f56aeba0*%
M02*
