%TF.GenerationSoftware,Altium Limited,Altium Designer,21.6.4 (81)*%
G04 Layer_Color=8388736*
%FSLAX26Y26*%
%MOIN*%
%TF.SameCoordinates,57458678-C278-4CFF-9AA2-19D65F52AC30*%
%TF.FilePolarity,Negative*%
%TF.FileFunction,Soldermask,Top*%
%TF.Part,Single*%
G01*
G75*
%TA.AperFunction,SMDPad,CuDef*%
%ADD10R,0.070866X0.125984*%
%ADD11R,0.039370X0.043307*%
%ADD12R,0.059055X0.051181*%
%ADD13R,0.066929X0.078740*%
%TA.AperFunction,ConnectorPad*%
%ADD14R,0.059055X0.013780*%
%ADD15R,0.039370X0.046457*%
%TA.AperFunction,SMDPad,CuDef*%
%ADD16R,0.031496X0.031496*%
%ADD17R,0.043307X0.039370*%
%ADD18R,0.039370X0.007874*%
%TA.AperFunction,ConnectorPad*%
%ADD19R,0.047244X0.011811*%
%TA.AperFunction,SMDPad,CuDef*%
%ADD20O,0.062992X0.011811*%
%ADD21R,0.066142X0.074016*%
%ADD22R,0.043307X0.043307*%
%ADD23R,0.106299X0.106299*%
%ADD24R,0.011811X0.031496*%
%ADD25R,0.031496X0.011811*%
%ADD26R,0.064961X0.064961*%
%ADD27O,0.009842X0.031496*%
%ADD28O,0.031496X0.009842*%
%TA.AperFunction,ComponentPad*%
%ADD34C,0.051181*%
%ADD35R,0.051181X0.051181*%
%ADD36O,0.062992X0.039370*%
%ADD37C,0.025591*%
D10*
X1019685Y375984D02*
D03*
X799213D02*
D03*
D11*
X811024Y37402D02*
D03*
Y104331D02*
D03*
X1080709Y265748D02*
D03*
Y198819D02*
D03*
X437008Y33465D02*
D03*
Y-33465D02*
D03*
X722102Y-305158D02*
D03*
Y-372087D02*
D03*
X665016Y-305158D02*
D03*
Y-372087D02*
D03*
X607929Y-305158D02*
D03*
Y-372087D02*
D03*
X1258520D02*
D03*
Y-305158D02*
D03*
X1211276Y-372087D02*
D03*
Y-305158D02*
D03*
X1164032D02*
D03*
Y-372087D02*
D03*
X1101040D02*
D03*
Y-305158D02*
D03*
X1023284Y-372087D02*
D03*
Y-305158D02*
D03*
X905512Y104331D02*
D03*
Y37402D02*
D03*
X1139764Y198819D02*
D03*
Y265748D02*
D03*
X1107283Y-136811D02*
D03*
Y-203740D02*
D03*
X1054134Y-137795D02*
D03*
Y-204724D02*
D03*
X858268Y37402D02*
D03*
Y104331D02*
D03*
D12*
X819882Y274606D02*
D03*
Y199803D02*
D03*
X898622Y-116142D02*
D03*
Y-190945D02*
D03*
D13*
X625984Y-125984D02*
D03*
Y70866D02*
D03*
D14*
X1592520Y-111126D02*
D03*
Y-91441D02*
D03*
Y-71756D02*
D03*
Y-52071D02*
D03*
Y-32386D02*
D03*
Y-12701D02*
D03*
Y6984D02*
D03*
Y26669D02*
D03*
Y46354D02*
D03*
Y66039D02*
D03*
Y85724D02*
D03*
Y105409D02*
D03*
D15*
X1582677Y142415D02*
D03*
Y-148136D02*
D03*
D16*
X1250000Y198819D02*
D03*
Y257874D02*
D03*
X1293307Y198819D02*
D03*
Y257874D02*
D03*
D17*
X1245079Y144685D02*
D03*
X1312008D02*
D03*
X1245079Y98425D02*
D03*
X1312008D02*
D03*
D18*
X54087Y685D02*
D03*
X-67961D02*
D03*
D19*
X234401Y108953D02*
D03*
Y89268D02*
D03*
Y69583D02*
D03*
Y49898D02*
D03*
Y30213D02*
D03*
Y10528D02*
D03*
Y-9157D02*
D03*
Y-28843D02*
D03*
Y-48528D02*
D03*
Y-68213D02*
D03*
Y-87898D02*
D03*
Y-107583D02*
D03*
D20*
X691929Y180118D02*
D03*
Y199803D02*
D03*
Y219488D02*
D03*
Y239173D02*
D03*
Y258858D02*
D03*
X524606Y180118D02*
D03*
Y199803D02*
D03*
Y219488D02*
D03*
Y239173D02*
D03*
Y258858D02*
D03*
D21*
X608268Y219488D02*
D03*
D22*
X818898Y-51181D02*
D03*
Y-157480D02*
D03*
D23*
X1061024Y19685D02*
D03*
D24*
X1011811Y98425D02*
D03*
X1031496D02*
D03*
X1051181D02*
D03*
X1070866D02*
D03*
X1090551D02*
D03*
X1110236D02*
D03*
Y-59055D02*
D03*
X1090551D02*
D03*
X1070866D02*
D03*
X1051181D02*
D03*
X1031496D02*
D03*
X1011811D02*
D03*
D25*
X1139764Y68898D02*
D03*
Y49213D02*
D03*
Y29527D02*
D03*
Y9842D02*
D03*
Y-9843D02*
D03*
Y-29528D02*
D03*
X982284D02*
D03*
Y-9843D02*
D03*
Y9842D02*
D03*
Y29527D02*
D03*
Y49213D02*
D03*
Y68898D02*
D03*
D26*
X963583Y212598D02*
D03*
D27*
X943898Y268701D02*
D03*
X963583D02*
D03*
X983268D02*
D03*
Y156496D02*
D03*
X963583D02*
D03*
X943898D02*
D03*
D28*
X1019685Y232284D02*
D03*
Y212598D02*
D03*
Y192913D02*
D03*
X907480D02*
D03*
Y212598D02*
D03*
Y232284D02*
D03*
D34*
X1111220Y500000D02*
D03*
X1032480D02*
D03*
X953740D02*
D03*
X796260D02*
D03*
X875000D02*
D03*
D35*
X717520D02*
D03*
D36*
X-46307Y168795D02*
D03*
Y-167425D02*
D03*
X139913Y168795D02*
D03*
Y-167425D02*
D03*
D37*
X157630Y-93803D02*
D03*
Y95173D02*
D03*
Y-62307D02*
D03*
Y63677D02*
D03*
Y-30811D02*
D03*
Y32181D02*
D03*
X185189Y-109551D02*
D03*
Y110921D02*
D03*
Y-78055D02*
D03*
Y79425D02*
D03*
Y-46559D02*
D03*
Y47929D02*
D03*
Y-15063D02*
D03*
Y16433D02*
D03*
%TF.MD5,6188d791a2ac0bde8dbde4b0c6c11fee*%
M02*
