%TF.GenerationSoftware,Altium Limited,Altium Designer,21.6.4 (81)*%
G04 Layer_Physical_Order=2*
G04 Layer_Color=16711680*
%FSLAX26Y26*%
%MOIN*%
%TF.SameCoordinates,57458678-C278-4CFF-9AA2-19D65F52AC30*%
%TF.FilePolarity,Positive*%
%TF.FileFunction,Copper,L2,Bot,Signal*%
%TF.Part,Single*%
G01*
G75*
%TA.AperFunction,ConnectorPad*%
%ADD14R,0.059055X0.013780*%
%TA.AperFunction,Conductor*%
%ADD29C,0.009842*%
%ADD30C,0.005906*%
%ADD31C,0.011811*%
%TA.AperFunction,ComponentPad*%
%ADD34C,0.051181*%
%ADD35R,0.051181X0.051181*%
%ADD36O,0.062992X0.039370*%
%ADD37C,0.025591*%
%TA.AperFunction,ViaPad*%
%ADD38C,0.023622*%
%TA.AperFunction,ConnectorPad*%
%ADD39R,0.039370X0.035433*%
%TA.AperFunction,SMDPad,CuDef*%
%ADD40R,0.015748X0.078740*%
%TA.AperFunction,Conductor*%
%ADD41C,0.013780*%
G36*
X1249565Y578638D02*
X1255148Y578641D01*
X1265161Y576277D01*
X1274366Y571675D01*
X1282267Y565081D01*
X1285161Y561222D01*
X1285352Y560930D01*
X1286076Y560191D01*
X1286651Y559331D01*
X1494425Y351377D01*
X1495197Y350861D01*
X1495299Y350719D01*
X1499571Y346735D01*
X1505832Y337930D01*
X1510229Y328048D01*
X1512580Y317491D01*
X1512686Y312084D01*
X1512782Y311647D01*
X1512782Y311647D01*
X1512697Y268738D01*
X1512747Y268484D01*
X1512709Y268228D01*
X1512969Y262915D01*
X1513150Y262193D01*
X1513149Y261449D01*
X1515215Y251062D01*
X1515593Y250150D01*
X1515785Y249180D01*
X1519836Y239396D01*
X1520385Y238574D01*
X1520763Y237661D01*
X1526645Y228855D01*
X1527343Y228156D01*
X1527892Y227335D01*
X1535378Y219845D01*
X1536199Y219295D01*
X1536898Y218596D01*
X1545701Y212710D01*
X1546613Y212332D01*
X1547435Y211782D01*
X1557217Y207726D01*
X1558186Y207532D01*
X1559098Y207154D01*
X1569484Y205083D01*
X1570227Y205082D01*
X1570948Y204901D01*
X1576243Y204638D01*
X1576493Y204675D01*
X1576741Y204626D01*
X1582093Y204626D01*
X1592533Y202549D01*
X1602367Y198476D01*
X1611217Y192563D01*
X1618743Y185036D01*
X1624657Y176186D01*
X1628259Y167490D01*
X1626636Y163800D01*
X1625561Y162490D01*
X1607362D01*
Y170447D01*
X1586614D01*
Y147731D01*
X1582677D01*
Y143793D01*
X1557992D01*
Y129132D01*
X1552992Y128640D01*
X1552521Y131007D01*
X1550128Y134588D01*
X1522446Y162270D01*
X1518865Y164663D01*
X1514641Y165503D01*
X1483262D01*
Y227855D01*
X1481390Y232374D01*
X1270760Y443004D01*
X1266240Y444877D01*
X1093858D01*
X1093852Y444874D01*
X1093846Y444877D01*
X1091599Y443941D01*
X1089339Y443004D01*
X1089336Y442998D01*
X1089330Y442995D01*
X1085801Y439453D01*
X1085798Y439446D01*
X1085792Y439444D01*
X1084873Y437201D01*
X1083938Y434929D01*
X1083940Y434923D01*
X1083938Y434916D01*
X1084418Y313459D01*
X1084676Y312842D01*
X1082624Y308476D01*
X1081840Y307693D01*
X1078836Y307288D01*
X1044523Y341602D01*
Y470620D01*
X1044637Y470650D01*
X1051819Y474797D01*
X1057684Y480661D01*
X1061830Y487843D01*
X1063976Y495853D01*
Y504147D01*
X1061830Y512157D01*
X1057684Y519339D01*
X1051819Y525203D01*
X1044637Y529350D01*
X1036627Y531496D01*
X1028334D01*
X1020323Y529350D01*
X1020221Y529290D01*
X1003594Y545917D01*
X999687Y548527D01*
X995079Y549444D01*
X995078Y549444D01*
X912402D01*
X907793Y548527D01*
X903886Y545917D01*
X903886Y545917D01*
X887260Y529290D01*
X887157Y529350D01*
X879146Y531496D01*
X870854D01*
X862843Y529350D01*
X855661Y525203D01*
X849797Y519339D01*
X845650Y512157D01*
X843504Y504147D01*
Y495853D01*
X845650Y487843D01*
X849797Y480661D01*
X850875Y479583D01*
X848804Y474583D01*
X834450D01*
X823992Y485041D01*
X825609Y487843D01*
X827756Y495853D01*
Y504147D01*
X825609Y512157D01*
X821463Y519339D01*
X815599Y525203D01*
X808417Y529350D01*
X800406Y531496D01*
X792113D01*
X784103Y529350D01*
X776921Y525203D01*
X771057Y519339D01*
X766910Y512157D01*
X764764Y504147D01*
Y495853D01*
X766910Y487843D01*
X771057Y480661D01*
X776921Y474797D01*
X784103Y470650D01*
X792113Y468504D01*
X800406D01*
X808417Y470650D01*
X811219Y472268D01*
X816096Y467391D01*
X814182Y462772D01*
X767520D01*
X749016Y481277D01*
Y531496D01*
X686024D01*
Y468504D01*
X736243D01*
X757393Y447354D01*
X760323Y445396D01*
X763779Y444709D01*
X961810D01*
X996874Y409645D01*
Y324094D01*
X997561Y320638D01*
X999519Y317708D01*
X1009818Y307409D01*
X1009818Y307409D01*
X1056881Y260346D01*
X1059812Y258388D01*
X1063268Y257701D01*
X1136023D01*
X1168134Y225590D01*
Y219175D01*
X1167130Y218760D01*
X1162146Y213776D01*
X1159449Y207264D01*
Y200216D01*
X1162146Y193705D01*
X1164615Y191236D01*
X1162544Y186236D01*
X494193D01*
X490852Y191236D01*
X492126Y194311D01*
Y201359D01*
X489429Y207870D01*
X486452Y210847D01*
Y241909D01*
X491397Y246854D01*
X494094Y253366D01*
Y260414D01*
X492821Y263489D01*
X496162Y268489D01*
X643402D01*
X683476Y228415D01*
X687057Y226022D01*
X691282Y225182D01*
X745826D01*
X749807Y221201D01*
X756318Y218504D01*
X763366D01*
X769878Y221201D01*
X774862Y226185D01*
X777559Y232696D01*
Y239744D01*
X774862Y246256D01*
X769878Y251240D01*
X763366Y253937D01*
X756318D01*
X749807Y251240D01*
X745826Y247259D01*
X695854D01*
X655780Y287333D01*
X652199Y289726D01*
X647975Y290566D01*
X499053D01*
X497139Y295186D01*
X509538Y307584D01*
X732284D01*
X736803Y309457D01*
X738676Y313976D01*
Y436024D01*
X736803Y440544D01*
X732284Y442416D01*
X524606D01*
X520087Y440544D01*
X337016Y257473D01*
X335144Y252953D01*
Y248204D01*
X332189Y245779D01*
X78025D01*
X75954Y250779D01*
X393579Y568405D01*
X394286Y568709D01*
X394866Y569108D01*
X395246Y569499D01*
X395721Y569767D01*
X395997Y570005D01*
X398471Y571860D01*
X404526Y575079D01*
X411004Y577326D01*
X417752Y578546D01*
X421180Y578629D01*
X421420Y578683D01*
X421498Y578667D01*
X421557D01*
X421671Y578653D01*
X421865Y578667D01*
X1248747Y578667D01*
X1249024Y578652D01*
X1249296Y578691D01*
X1249565Y578638D01*
D02*
G37*
G36*
X1332634Y224068D02*
Y219858D01*
X1335331Y213346D01*
X1340315Y208362D01*
X1346826Y205665D01*
X1353874D01*
X1360386Y208362D01*
X1365369Y213346D01*
X1370165Y214300D01*
X1386932Y197533D01*
X1385572Y191821D01*
X1381697Y190216D01*
X1377716Y186236D01*
X1191787D01*
X1189722Y191222D01*
X1189807Y191327D01*
X1192185Y193705D01*
X1192647Y194820D01*
X1192655Y194830D01*
X1199115Y197488D01*
X1201200Y196625D01*
X1208248D01*
X1214760Y199322D01*
X1219744Y204305D01*
X1222441Y210817D01*
Y217865D01*
X1219744Y224377D01*
X1214760Y229360D01*
X1208248Y232058D01*
X1203915D01*
X1192556Y243416D01*
X1195388Y247655D01*
X1199232Y246063D01*
X1206280D01*
X1212792Y248760D01*
X1217775Y253744D01*
X1220472Y260255D01*
Y267303D01*
X1217775Y273815D01*
X1215326Y276265D01*
X1216071Y281265D01*
X1275437D01*
X1332634Y224068D01*
D02*
G37*
G36*
X52194Y229136D02*
X35502Y212443D01*
X33109Y208862D01*
X32269Y204637D01*
Y80796D01*
X33109Y76571D01*
X35502Y72990D01*
X62163Y46328D01*
X65745Y43935D01*
X69969Y43095D01*
X129194D01*
X138929Y33360D01*
Y28461D01*
X141776Y21588D01*
X147037Y16327D01*
X153910Y13480D01*
X161350D01*
X163813Y14501D01*
X166488Y12713D01*
X169335Y5840D01*
X174490Y685D01*
X169335Y-4470D01*
X166488Y-11343D01*
X163813Y-13130D01*
X161350Y-12110D01*
X153910D01*
X147037Y-14957D01*
X142222Y-19772D01*
X119162D01*
X114938Y-20613D01*
X111356Y-23005D01*
X44509Y-89853D01*
X42116Y-93434D01*
X41276Y-97658D01*
Y-184898D01*
X42116Y-189122D01*
X44509Y-192703D01*
X92982Y-241175D01*
X96563Y-243568D01*
X100787Y-244409D01*
X267536D01*
X271760Y-243568D01*
X275341Y-241175D01*
X322407Y-194110D01*
X1124901D01*
X1128242Y-199110D01*
X1126968Y-202185D01*
Y-209233D01*
X1129666Y-215744D01*
X1134649Y-220728D01*
X1141161Y-223425D01*
X1140552Y-228173D01*
X1012137D01*
X1008681Y-228861D01*
X1006764Y-230142D01*
X846486D01*
X843029Y-230829D01*
X840099Y-232787D01*
X792488Y-280399D01*
X790530Y-283329D01*
X789842Y-286785D01*
Y-291378D01*
X762536D01*
X757536Y-291378D01*
X752535Y-291378D01*
X707418D01*
X702418Y-291378D01*
X697417Y-291378D01*
X674858Y-291378D01*
X669858Y-291378D01*
X624740D01*
X619740Y-291378D01*
X618003Y-287098D01*
Y-272869D01*
X705491D01*
X708468Y-275846D01*
X714980Y-278543D01*
X722028D01*
X728540Y-275846D01*
X733523Y-270862D01*
X736221Y-264351D01*
Y-257303D01*
X733523Y-250791D01*
X728540Y-245808D01*
X722028Y-243110D01*
X714980D01*
X708468Y-245808D01*
X705491Y-248784D01*
X612880D01*
X612880Y-248784D01*
X608271Y-249701D01*
X604364Y-252311D01*
X604364Y-252312D01*
X597521Y-259155D01*
X596801Y-259007D01*
X592806Y-257622D01*
X592342Y-253579D01*
X596712Y-249209D01*
X599409Y-242697D01*
Y-235649D01*
X596712Y-229138D01*
X591729Y-224154D01*
X585217Y-221457D01*
X578169D01*
X571657Y-224154D01*
X566674Y-229138D01*
X563976Y-235649D01*
Y-242697D01*
X565368Y-246056D01*
X564004Y-247645D01*
X561335Y-249386D01*
X555689Y-247047D01*
X548641D01*
X542130Y-249744D01*
X537146Y-254728D01*
X534449Y-261240D01*
Y-268288D01*
X537146Y-274799D01*
X539462Y-277115D01*
Y-288652D01*
X536964Y-291397D01*
X532438Y-292284D01*
X527221D01*
Y-336654D01*
Y-381024D01*
X532438D01*
X537063Y-381929D01*
X540783Y-381929D01*
X559622D01*
X564622Y-381929D01*
Y-381929D01*
X564622D01*
Y-381929D01*
X614740D01*
X619740Y-381929D01*
X624740Y-381929D01*
X669858D01*
X674858Y-381929D01*
X679858Y-381929D01*
X702417Y-381929D01*
X707418Y-381929D01*
X752535D01*
X757535Y-381929D01*
X762536Y-381929D01*
X807654D01*
X812653Y-381929D01*
Y-381929D01*
X812654D01*
Y-381929D01*
X862772D01*
X867772Y-381929D01*
X872772Y-381929D01*
X917890D01*
X922890Y-381929D01*
X927890Y-381929D01*
X974288D01*
X978008Y-381929D01*
X982633Y-381024D01*
X987851D01*
Y-336654D01*
Y-292284D01*
X982633D01*
X978008Y-291378D01*
X974288Y-291378D01*
X927890D01*
X922890Y-291378D01*
X917890Y-291378D01*
X872772D01*
X867772Y-291378D01*
X862772Y-291378D01*
X835465D01*
Y-279670D01*
X853459Y-261676D01*
X1004079D01*
X1006857Y-265834D01*
X1005906Y-268130D01*
Y-275178D01*
X1008603Y-281689D01*
X1010290Y-283377D01*
Y-289132D01*
X1008044Y-291378D01*
X1005567D01*
X1000942Y-292284D01*
X995725D01*
Y-336654D01*
Y-381024D01*
X1000942D01*
X1005567Y-381929D01*
X1009287Y-381929D01*
X1033126D01*
Y-381929D01*
X1034032Y-381024D01*
X1042969D01*
Y-336654D01*
X1050843D01*
Y-381024D01*
X1056060D01*
X1060685Y-381929D01*
X1060685Y-381929D01*
X1088244D01*
Y-381929D01*
X1089150Y-381024D01*
X1098087D01*
Y-336654D01*
X1105961D01*
Y-381024D01*
X1111178D01*
X1115803Y-381929D01*
X1115804Y-381929D01*
X1165921D01*
X1170921Y-381929D01*
Y-381929D01*
X1170922D01*
Y-381929D01*
X1200387D01*
Y-398574D01*
X1197579Y-401382D01*
X1194882Y-407893D01*
Y-414941D01*
X1197579Y-421453D01*
X1202563Y-426437D01*
X1209074Y-429134D01*
X1216122D01*
X1222634Y-426437D01*
X1227618Y-421453D01*
X1230315Y-414941D01*
Y-407893D01*
X1227618Y-401382D01*
X1224472Y-398236D01*
Y-386280D01*
X1226040Y-381929D01*
X1231040Y-381929D01*
X1255336D01*
Y-393701D01*
X1254350D01*
X1247838Y-396398D01*
X1242855Y-401382D01*
X1240158Y-407893D01*
Y-414941D01*
X1242855Y-421453D01*
X1247838Y-426437D01*
X1254350Y-429134D01*
X1261398D01*
X1267910Y-426437D01*
X1272893Y-421453D01*
X1275591Y-414941D01*
Y-407893D01*
X1275486Y-407640D01*
X1275893Y-407233D01*
X1278504Y-403326D01*
X1279420Y-398717D01*
X1279420Y-398717D01*
Y-384929D01*
X1281495Y-381863D01*
X1285782Y-381024D01*
X1291000D01*
Y-336654D01*
Y-292284D01*
X1285782D01*
X1281158Y-291378D01*
X1277438Y-291378D01*
X1265430D01*
X1265335Y-286417D01*
X1271847Y-283720D01*
X1276830Y-278736D01*
X1279527Y-272225D01*
Y-265177D01*
X1276830Y-258665D01*
X1271847Y-253681D01*
X1265335Y-250984D01*
X1258287D01*
X1251775Y-253681D01*
X1246792Y-258665D01*
X1244094Y-265177D01*
Y-271098D01*
X1233272Y-281920D01*
X1230662Y-285827D01*
X1230038Y-288961D01*
X1226596Y-291041D01*
X1224848Y-291378D01*
X1217620Y-291378D01*
X1216625Y-286378D01*
X1220666Y-284704D01*
X1225649Y-279721D01*
X1228346Y-273209D01*
Y-266161D01*
X1225649Y-259649D01*
X1220666Y-254666D01*
X1214154Y-251969D01*
X1207106D01*
X1203746Y-247948D01*
X1201535Y-242609D01*
X1196551Y-237625D01*
X1190040Y-234928D01*
X1185505D01*
X1182106Y-232421D01*
X1181360Y-230309D01*
Y-224822D01*
X1180094Y-221767D01*
X1183435Y-216767D01*
X1232066D01*
X1236027Y-220728D01*
X1242539Y-223425D01*
X1249587D01*
X1256098Y-220728D01*
X1261082Y-215744D01*
X1263779Y-209233D01*
Y-202185D01*
X1262505Y-199110D01*
X1265846Y-194110D01*
X1376732D01*
X1381697Y-199074D01*
X1388208Y-201772D01*
X1395256D01*
X1401768Y-199074D01*
X1406752Y-194091D01*
X1409449Y-187579D01*
Y-180531D01*
X1408175Y-177456D01*
X1411516Y-172456D01*
X1534868D01*
X1539093Y-171616D01*
X1542674Y-169223D01*
X1553373Y-158524D01*
X1557992Y-160438D01*
Y-176167D01*
X1578740D01*
Y-153451D01*
X1586614D01*
Y-176167D01*
X1607362D01*
Y-153840D01*
X1623608D01*
X1626949Y-158841D01*
X1624657Y-164375D01*
X1618743Y-173225D01*
X1611217Y-180751D01*
X1602367Y-186665D01*
X1592533Y-190738D01*
X1582093Y-192815D01*
X1576772D01*
X1576525Y-192864D01*
X1576276Y-192827D01*
X1570953Y-193090D01*
X1570231Y-193271D01*
X1569486Y-193271D01*
X1559104Y-195341D01*
X1558192Y-195720D01*
X1557223Y-195912D01*
X1547445Y-199966D01*
X1546623Y-200515D01*
X1545711Y-200893D01*
X1536910Y-206776D01*
X1536384Y-207302D01*
X1535747Y-207684D01*
X1532074Y-211012D01*
X1532025Y-211041D01*
X1531062Y-211895D01*
X1529992Y-212612D01*
X1320759Y-422141D01*
X1320399Y-422681D01*
X1319909Y-423109D01*
X1316591Y-427418D01*
X1308678Y-433967D01*
X1299511Y-438519D01*
X1289546Y-440856D01*
X1284590D01*
X1284210Y-440844D01*
X1284047Y-440871D01*
X1283885Y-440839D01*
X296527Y-440872D01*
X296249Y-440857D01*
X295977Y-440896D01*
X295709Y-440843D01*
X291709Y-440846D01*
X284680Y-439705D01*
X277921Y-437452D01*
X271610Y-434145D01*
X269306Y-432418D01*
X268916Y-432063D01*
X268511Y-431453D01*
X268004Y-430942D01*
X267686Y-430728D01*
X267450Y-430424D01*
X267154Y-430168D01*
X68136Y-231150D01*
X67342Y-230620D01*
X66672Y-229940D01*
X63766Y-227970D01*
X63211Y-227735D01*
X62739Y-227360D01*
X56505Y-224140D01*
X55735Y-223918D01*
X55036Y-223523D01*
X48371Y-221331D01*
X47576Y-221233D01*
X46823Y-220954D01*
X39896Y-219844D01*
X39293Y-219867D01*
X38706Y-219726D01*
X35369Y-219593D01*
X35320Y-219584D01*
X35218Y-219587D01*
X34746Y-219565D01*
X34483Y-219605D01*
X34455Y-219606D01*
X33606Y-219436D01*
X-157478Y-219390D01*
X-157479Y-219390D01*
X-157480Y-219390D01*
X-162802Y-219389D01*
X-173242Y-217313D01*
X-183076Y-213240D01*
X-191926Y-207326D01*
X-199452Y-199800D01*
X-205366Y-190950D01*
X-209439Y-181116D01*
X-211516Y-170676D01*
Y-165354D01*
X-211516Y177165D01*
X-211516Y182487D01*
X-209439Y192927D01*
X-205366Y202761D01*
X-199452Y211611D01*
X-191926Y219137D01*
X-183076Y225051D01*
X-173242Y229124D01*
X-162802Y231201D01*
X-157480D01*
X33437Y231201D01*
X34512Y231414D01*
X34972Y231371D01*
X35333Y231409D01*
X38688Y231536D01*
X39283Y231678D01*
X39895Y231655D01*
X46823Y232765D01*
X47576Y233044D01*
X48371Y233142D01*
X49501Y233513D01*
X52194Y229136D01*
D02*
G37*
G36*
X732284Y313976D02*
X506890D01*
X483480Y290566D01*
X464567D01*
X460342Y289726D01*
X456761Y287333D01*
X444950Y275522D01*
X442557Y271941D01*
X441717Y267717D01*
Y248804D01*
X402559Y209646D01*
Y186236D01*
X396305D01*
X341536Y241005D01*
Y252953D01*
X524606Y436024D01*
X732284D01*
Y313976D01*
D02*
G37*
G36*
X343803Y157406D02*
X341889Y152786D01*
X327611D01*
X323630Y156767D01*
X317118Y159464D01*
X310070D01*
X303559Y156767D01*
X298575Y151783D01*
X295878Y145271D01*
Y138223D01*
X298575Y131712D01*
X303559Y126728D01*
X310070Y124031D01*
X312377D01*
X314449Y119031D01*
X311752Y116335D01*
X309055Y109823D01*
Y103017D01*
X307619Y102422D01*
X305790Y102058D01*
X305426Y101514D01*
X304822Y101263D01*
X276880Y73321D01*
X204698D01*
X203250Y75488D01*
X185189D01*
Y83362D01*
X202820D01*
X200275Y89505D01*
X197874Y91907D01*
X195708Y95173D01*
X197874Y98440D01*
X200275Y100841D01*
X202820Y106984D01*
X185189D01*
Y110921D01*
X181252D01*
Y128552D01*
X175109Y126007D01*
X170103Y121001D01*
X167394Y114461D01*
X164538Y112553D01*
X161350Y113874D01*
X153910D01*
X147037Y111027D01*
X141776Y105766D01*
X138929Y98893D01*
Y93994D01*
X131284Y86349D01*
X127285Y88802D01*
X126969Y89105D01*
Y96044D01*
X124271Y102555D01*
X119288Y107539D01*
X112776Y110236D01*
X105728D01*
X99216Y107539D01*
X95236Y103559D01*
X89779D01*
Y185388D01*
X92659Y188268D01*
X105412D01*
X108084Y183268D01*
X104850Y178427D01*
X103717Y172732D01*
X139913D01*
X176110D01*
X174977Y178427D01*
X171742Y183268D01*
X174415Y188268D01*
X312940D01*
X343803Y157406D01*
D02*
G37*
G36*
X1476870Y227855D02*
Y165503D01*
X1411393D01*
X1408615Y169661D01*
X1409449Y171673D01*
Y178721D01*
X1406752Y185232D01*
X1405020Y186964D01*
Y188484D01*
X1368067Y225438D01*
Y226906D01*
X1365370Y233417D01*
X1360386Y238401D01*
X1353874Y241098D01*
X1352406D01*
X1280020Y313484D01*
X1090810D01*
X1090330Y434942D01*
X1093858Y438484D01*
X1266240D01*
X1476870Y227855D01*
D02*
G37*
G36*
X356599Y122338D02*
X354528Y117338D01*
X341536D01*
Y130709D01*
X348229D01*
X356599Y122338D01*
D02*
G37*
G36*
X1481785Y118770D02*
X1480131Y115968D01*
X397839D01*
X397260Y116835D01*
X399933Y121835D01*
X1409263D01*
X1413487Y122675D01*
X1415082Y123741D01*
X1479189D01*
X1481785Y118770D01*
D02*
G37*
G36*
X311752Y96263D02*
X316736Y91280D01*
X323248Y88583D01*
X330296D01*
X336807Y91280D01*
X340788Y95260D01*
X355838D01*
X373660Y77439D01*
X377241Y75046D01*
X381465Y74206D01*
X402559D01*
Y43651D01*
X363294D01*
X360429Y46515D01*
X353918Y49213D01*
X346870D01*
X345693Y48725D01*
X340358Y46515D01*
X335374Y41532D01*
X332677Y35020D01*
Y31496D01*
X196573D01*
X195782Y32287D01*
X188909Y35134D01*
X181469D01*
X179006Y34114D01*
X176331Y35901D01*
X173484Y42774D01*
X169291Y46967D01*
Y48892D01*
X173484Y53084D01*
X176331Y59957D01*
X179006Y61745D01*
X181469Y60724D01*
X188909D01*
X195782Y63572D01*
X199140Y66929D01*
X279527D01*
X309341Y96743D01*
X311752Y96263D01*
D02*
G37*
G36*
X1377337Y69206D02*
X1375000Y63563D01*
Y56515D01*
X1377697Y50004D01*
X1379050Y48651D01*
X1376979Y43651D01*
X786912D01*
X783571Y48651D01*
X784844Y51725D01*
Y58773D01*
X782147Y65285D01*
X778227Y69206D01*
X779706Y74124D01*
X779760Y74206D01*
X1375295D01*
X1377337Y69206D01*
D02*
G37*
G36*
X696084Y74124D02*
X697563Y69206D01*
X693642Y65285D01*
X690945Y58773D01*
Y51725D01*
X692219Y48651D01*
X688878Y43651D01*
X408951D01*
Y74206D01*
X696030D01*
X696084Y74124D01*
D02*
G37*
G36*
X888323Y16573D02*
X887749Y15961D01*
X408951D01*
Y21573D01*
X886156D01*
X888323Y16573D01*
D02*
G37*
G36*
X402559Y15961D02*
X372336D01*
X369663Y20961D01*
X370072Y21573D01*
X402559D01*
Y15961D01*
D02*
G37*
G36*
X1557087Y13874D02*
X1627953D01*
X1630807Y10056D01*
X1630807Y-15773D01*
X1625807Y-19591D01*
X1557087D01*
Y-23316D01*
X1519220D01*
X1515810Y-19895D01*
X1515397Y-18502D01*
Y-12432D01*
X1512699Y-5920D01*
X1507716Y-936D01*
X1501204Y1761D01*
X1500043Y3498D01*
X1501266Y6450D01*
Y13498D01*
X1504006Y17599D01*
X1557087D01*
Y13874D01*
D02*
G37*
G36*
X274351Y-37595D02*
X279334Y-42578D01*
X285846Y-45276D01*
X292894D01*
X294527Y-44599D01*
X300057Y-50128D01*
X303638Y-52521D01*
X307863Y-53362D01*
X336149D01*
X340373Y-52521D01*
X343954Y-50128D01*
X352533Y-41550D01*
X384988D01*
X386902Y-46169D01*
X353347Y-79724D01*
X310375D01*
X310295Y-79531D01*
X305311Y-74548D01*
X298800Y-71850D01*
X291752D01*
X287980Y-73413D01*
X274606Y-60039D01*
X190562D01*
X188909Y-59354D01*
X181469D01*
X181331Y-59412D01*
X176331Y-58587D01*
X173484Y-51714D01*
X173228Y-51458D01*
Y-41660D01*
X173484Y-41404D01*
X176331Y-34531D01*
X179006Y-32743D01*
X181469Y-33764D01*
X188909D01*
X194383Y-31496D01*
X271825D01*
X274351Y-37595D01*
D02*
G37*
G36*
X1456437Y-45982D02*
X1461421Y-50965D01*
X1467933Y-53663D01*
X1469590D01*
X1472359Y-58663D01*
X1472246Y-58843D01*
X1405748D01*
X1401768Y-54863D01*
X1395256Y-52165D01*
X1388208D01*
X1381697Y-54863D01*
X1376713Y-59846D01*
X1374016Y-66358D01*
Y-73406D01*
X1376105Y-78449D01*
X1373712Y-83449D01*
X1200220D01*
X1197707Y-78449D01*
X1199711Y-73611D01*
Y-66563D01*
X1197014Y-60051D01*
X1192030Y-55068D01*
X1185519Y-52370D01*
X1178471D01*
X1177467Y-52786D01*
X1169776Y-45095D01*
X1171847Y-40095D01*
X1453999D01*
X1456437Y-45982D01*
D02*
G37*
G36*
X930513Y-44885D02*
X924001Y-47582D01*
X919018Y-52566D01*
X916321Y-59077D01*
Y-66125D01*
X919018Y-72637D01*
X924001Y-77620D01*
X926003Y-78449D01*
X925008Y-83449D01*
X365194D01*
X363281Y-78830D01*
X369120Y-72991D01*
X371256Y-72106D01*
X376240Y-67122D01*
X377125Y-64986D01*
X391422Y-50689D01*
X391909Y-49514D01*
X392808Y-48615D01*
Y-47344D01*
X393294Y-46169D01*
X394987Y-43163D01*
X396907Y-41550D01*
X910110D01*
X914335Y-40709D01*
X915254Y-40095D01*
X930005D01*
X930513Y-44885D01*
D02*
G37*
G36*
X282658Y-77130D02*
X280256Y-79531D01*
X277559Y-86043D01*
Y-93091D01*
X280256Y-99603D01*
X284985Y-104331D01*
X280256Y-109059D01*
X277559Y-115570D01*
Y-122618D01*
X280256Y-129130D01*
X285240Y-134114D01*
X291752Y-136811D01*
X291841D01*
X293755Y-141430D01*
X248287Y-186898D01*
X174415D01*
X171742Y-181898D01*
X174977Y-177057D01*
X176110Y-171362D01*
X139913D01*
Y-167425D01*
X135976D01*
Y-142256D01*
X128102D01*
X118471Y-144172D01*
X113629Y-147407D01*
X108629Y-144735D01*
Y-79226D01*
X114509Y-73346D01*
X142222D01*
X146931Y-78055D01*
X141776Y-83210D01*
X138929Y-90083D01*
Y-97523D01*
X141776Y-104396D01*
X147037Y-109657D01*
X153910Y-112504D01*
X161350D01*
X164538Y-111183D01*
X167394Y-113091D01*
X170103Y-119631D01*
X175109Y-124637D01*
X181252Y-127182D01*
Y-109551D01*
X185189D01*
Y-105614D01*
X202820D01*
X200275Y-99471D01*
X197874Y-97070D01*
X195708Y-93803D01*
X197874Y-90537D01*
X200275Y-88135D01*
X202820Y-81992D01*
X185189D01*
Y-74118D01*
X202820D01*
X201707Y-71431D01*
X205048Y-66431D01*
X271959D01*
X282658Y-77130D01*
D02*
G37*
G36*
X1502391Y-71473D02*
X1504666Y-76965D01*
X1509649Y-81948D01*
X1516161Y-84646D01*
X1518115D01*
X1518876Y-85144D01*
X1521830Y-89646D01*
X1521441Y-91598D01*
Y-130694D01*
X1444201D01*
X1442288Y-126074D01*
X1442587Y-125775D01*
X1445284Y-119263D01*
Y-112215D01*
X1446607Y-110236D01*
X1449333D01*
X1455845Y-107539D01*
X1460828Y-102555D01*
X1463525Y-96044D01*
Y-88996D01*
X1462252Y-85921D01*
X1465593Y-80921D01*
X1481299D01*
X1485524Y-80080D01*
X1489105Y-77688D01*
X1497349Y-69443D01*
X1502391Y-71473D01*
D02*
G37*
G36*
X1408468Y-125694D02*
X1406588Y-130451D01*
X1406277Y-130694D01*
X320150D01*
X317153Y-125693D01*
X317410Y-125212D01*
X1407294D01*
X1407838Y-125104D01*
X1408468Y-125694D01*
D02*
G37*
%LPC*%
G36*
X1115248Y530591D02*
X1115158D01*
Y503937D01*
X1141811D01*
Y504027D01*
X1139726Y511808D01*
X1135699Y518783D01*
X1130004Y524479D01*
X1123028Y528506D01*
X1115248Y530591D01*
D02*
G37*
G36*
X1107284D02*
X1107193D01*
X1099413Y528506D01*
X1092438Y524479D01*
X1086742Y518783D01*
X1082715Y511808D01*
X1080630Y504027D01*
Y503937D01*
X1107284D01*
Y530591D01*
D02*
G37*
G36*
X1141811Y496063D02*
X1115158D01*
Y469409D01*
X1115248D01*
X1123028Y471494D01*
X1130004Y475522D01*
X1135699Y481217D01*
X1139726Y488192D01*
X1141811Y495973D01*
Y496063D01*
D02*
G37*
G36*
X1107284D02*
X1080630D01*
Y495973D01*
X1082715Y488192D01*
X1086742Y481217D01*
X1092438Y475522D01*
X1099413Y471494D01*
X1107193Y469409D01*
X1107284D01*
Y496063D01*
D02*
G37*
G36*
X1578740Y170447D02*
X1557992D01*
Y151667D01*
X1578740D01*
Y170447D01*
D02*
G37*
G36*
X-34496Y193964D02*
X-42370D01*
Y172732D01*
X-10111D01*
X-11243Y178427D01*
X-16699Y186592D01*
X-24864Y192048D01*
X-34496Y193964D01*
D02*
G37*
G36*
X-50244D02*
X-58118D01*
X-67750Y192048D01*
X-75915Y186592D01*
X-81371Y178427D01*
X-82504Y172732D01*
X-50244D01*
Y193964D01*
D02*
G37*
G36*
X-10111Y164858D02*
X-42370D01*
Y143627D01*
X-34496D01*
X-24864Y145542D01*
X-16699Y150998D01*
X-11243Y159164D01*
X-10111Y164858D01*
D02*
G37*
G36*
X-50244D02*
X-82504D01*
X-81371Y159164D01*
X-75915Y150998D01*
X-67750Y145542D01*
X-58118Y143627D01*
X-50244D01*
Y164858D01*
D02*
G37*
G36*
X-34496Y-142256D02*
X-42370D01*
Y-163488D01*
X-10111D01*
X-11243Y-157793D01*
X-16699Y-149628D01*
X-24864Y-144172D01*
X-34496Y-142256D01*
D02*
G37*
G36*
X-50244D02*
X-58118D01*
X-67750Y-144172D01*
X-75915Y-149628D01*
X-81371Y-157793D01*
X-82504Y-163488D01*
X-50244D01*
Y-142256D01*
D02*
G37*
G36*
X-10111Y-171362D02*
X-42370D01*
Y-192594D01*
X-34496D01*
X-24864Y-190678D01*
X-16699Y-185222D01*
X-11243Y-177057D01*
X-10111Y-171362D01*
D02*
G37*
G36*
X-50244D02*
X-82504D01*
X-81371Y-177057D01*
X-75915Y-185222D01*
X-67750Y-190678D01*
X-58118Y-192594D01*
X-50244D01*
Y-171362D01*
D02*
G37*
G36*
X1298874Y-292284D02*
Y-332717D01*
X1307811D01*
Y-292284D01*
X1298874D01*
D02*
G37*
G36*
X491788D02*
X482851D01*
Y-332717D01*
X491788D01*
Y-292284D01*
D02*
G37*
G36*
Y-340591D02*
X482851D01*
Y-381024D01*
X491788D01*
Y-340591D01*
D02*
G37*
G36*
X1307811D02*
X1298874D01*
Y-381024D01*
X1307811D01*
Y-340591D01*
D02*
G37*
G36*
X508598Y-292283D02*
Y-292284D01*
X499661D01*
Y-336654D01*
Y-381024D01*
X508598D01*
Y-381024D01*
X510410D01*
Y-381024D01*
X519347D01*
Y-336654D01*
Y-292284D01*
X510410D01*
Y-292283D01*
X508598D01*
D02*
G37*
G36*
X176110Y164858D02*
X143850D01*
Y143627D01*
X151724D01*
X161356Y145542D01*
X169521Y150998D01*
X174977Y159164D01*
X176110Y164858D01*
D02*
G37*
G36*
X135976D02*
X103717D01*
X104850Y159164D01*
X110305Y150998D01*
X118471Y145542D01*
X128102Y143627D01*
X135976D01*
Y164858D01*
D02*
G37*
G36*
X189126Y128552D02*
Y114858D01*
X202820D01*
X200275Y121001D01*
X195269Y126007D01*
X189126Y128552D01*
D02*
G37*
G36*
X202820Y-113488D02*
X189126D01*
Y-127182D01*
X195269Y-124637D01*
X200275Y-119631D01*
X202820Y-113488D01*
D02*
G37*
G36*
X151724Y-142256D02*
X143850D01*
Y-163488D01*
X176110D01*
X174977Y-157793D01*
X169521Y-149628D01*
X161356Y-144172D01*
X151724Y-142256D01*
D02*
G37*
%LPD*%
D14*
X1592520Y-111126D02*
D03*
Y-91441D02*
D03*
Y-71756D02*
D03*
Y-52071D02*
D03*
Y-32386D02*
D03*
Y26669D02*
D03*
Y46354D02*
D03*
Y66039D02*
D03*
Y85724D02*
D03*
Y105409D02*
D03*
D29*
X1467728Y-35946D02*
X1471457D01*
X1460838Y-29056D02*
X1467728Y-35946D01*
X336149Y-42323D02*
X347961Y-30511D01*
X910110D02*
X911564Y-29056D01*
X347961Y-30511D02*
X910110D01*
X911564Y-29056D02*
X1460838D01*
X289370Y-27559D02*
X293099D01*
X307863Y-42323D01*
X336149D01*
X1472388Y53150D02*
X1496900Y28637D01*
X1403335Y53150D02*
X1472388D01*
X1496900Y28637D02*
X1590551D01*
X1392716Y60039D02*
X1396445D01*
X1403335Y53150D01*
X1459514Y32612D02*
X1461983Y30143D01*
X1481299Y-69882D02*
X1516826Y-34355D01*
X1391732Y-69882D02*
X1481299D01*
X1516826Y-34355D02*
X1590551D01*
X307931Y-94488D02*
X1399141D01*
X1407700Y-113768D02*
X1425597D01*
X307931Y-114173D02*
X1407294D01*
X1425597Y-113768D02*
X1427568Y-115739D01*
X1407294Y-114173D02*
X1407700Y-113768D01*
X305646Y-116458D02*
X307931Y-114173D01*
X1401109Y-92520D02*
X1445809D01*
X1399141Y-94488D02*
X1401109Y-92520D01*
X305646Y-92203D02*
X307931Y-94488D01*
X313594Y141747D02*
X352801D01*
X326772Y106299D02*
X360411D01*
X352801Y141747D02*
X389619Y104930D01*
X360411Y106299D02*
X381465Y85245D01*
X1487582D02*
X1489861Y82966D01*
X381465Y85245D02*
X1487582D01*
X389619Y104930D02*
X1486751D01*
X350394Y31496D02*
X351509Y32612D01*
X1459514D01*
X335239Y7208D02*
X337524Y4922D01*
X895433D01*
X326772Y-19685D02*
X329408Y-17049D01*
X327505Y7208D02*
X335239D01*
X896888Y6377D02*
X1470894D01*
X294759Y9844D02*
X324869D01*
X329408Y-17049D02*
X337142D01*
X339427Y-14763D01*
X905042Y-13308D02*
X1481146D01*
X895433Y4922D02*
X896888Y6377D01*
X339427Y-14763D02*
X903587D01*
X324869Y9844D02*
X327505Y7208D01*
X903587Y-14763D02*
X905042Y-13308D01*
X1486751Y104930D02*
X1489030Y107209D01*
X1496770D01*
X88087Y199307D02*
X317512D01*
X383945Y132874D02*
X1409263D01*
X317512Y199307D02*
X383945Y132874D01*
X79933Y218992D02*
X325666D01*
X392099Y152559D02*
X1401109D01*
X325666Y218992D02*
X392099Y152559D01*
X391732Y175197D02*
X1391732D01*
X332189Y234740D02*
X391732Y175197D01*
X73410Y234740D02*
X332189D01*
X1489861Y82966D02*
X1497601D01*
X1500238Y80329D01*
X708661Y55249D02*
X767128D01*
X452756Y209437D02*
Y267717D01*
X464567Y279528D02*
X647975D01*
X452756Y267717D02*
X464567Y279528D01*
X444882Y197835D02*
Y201563D01*
X452756Y209437D01*
X647975Y279528D02*
X691282Y236220D01*
X759842D01*
X771315Y-336654D02*
X798874D01*
X1514641Y154465D02*
X1542323Y126782D01*
Y95567D02*
Y126782D01*
Y95567D02*
X1552165Y85724D01*
X1482918Y-15080D02*
X1496804D01*
X1481146Y-13308D02*
X1482918Y-15080D01*
X1409263Y132874D02*
X1411168Y134780D01*
X1506487D02*
X1522638Y118629D01*
X1411168Y134780D02*
X1506487D01*
X1522638Y87413D02*
X1544012Y66039D01*
X1496804Y-15080D02*
X1497680Y-15956D01*
X1401109Y152559D02*
X1403015Y154465D01*
X1514641D01*
X1522638Y87413D02*
Y118629D01*
X1390748Y-183071D02*
X1391732Y-184055D01*
X267536Y-233370D02*
X317835Y-183071D01*
X1390748D01*
X309064Y-141732D02*
X1526715D01*
X252859Y-197937D02*
X309064Y-141732D01*
X1526715D02*
X1532480Y-135967D01*
Y-91598D01*
X1534868Y-161417D02*
X1552165Y-144120D01*
Y-99752D01*
X317217Y-161417D02*
X1534868D01*
X261013Y-217622D02*
X317217Y-161417D01*
X1550354Y-73725D02*
X1567913D01*
X1552165Y-99752D02*
X1558507Y-93410D01*
X1567913Y-73725D02*
X1569882Y-71756D01*
X1558507Y-93410D02*
X1590551D01*
X1532480Y-91598D02*
X1550354Y-73725D01*
X1569882Y-71756D02*
X1592520D01*
X1590551Y-93410D02*
X1592520Y-91441D01*
X1471854Y7337D02*
X1480913D01*
X1470894Y6377D02*
X1471854Y7337D01*
X1480913D02*
X1483549Y9974D01*
X1496770Y107209D02*
X1499407Y109845D01*
X1544012Y66039D02*
X1592520D01*
X1552165Y85724D02*
X1592520D01*
X185189Y-15063D02*
X269852D01*
X294759Y9844D01*
X1590551Y28637D02*
X1592520Y26669D01*
X1590551Y-34355D02*
X1592520Y-32386D01*
X297912Y-116458D02*
X305646D01*
X295276Y-89567D02*
X297912Y-92203D01*
X305646D01*
X295276Y-119094D02*
X297912Y-116458D01*
X43307Y204637D02*
X73410Y234740D01*
X43307Y80796D02*
X69969Y54134D01*
X43307Y80796D02*
Y204637D01*
X69969Y54134D02*
X133767D01*
X155719Y32181D01*
X157630D01*
X115464Y-197937D02*
X252859D01*
X107310Y-217622D02*
X261013D01*
X100787Y-233370D02*
X267536D01*
X52315Y-184898D02*
X100787Y-233370D01*
X52315Y-184898D02*
Y-97658D01*
X119162Y-30811D01*
X157630D01*
X74953Y-185264D02*
X107310Y-217622D01*
X74953Y-185264D02*
Y-112634D01*
X97591Y-74653D02*
X109937Y-62307D01*
X157630D01*
X97591Y-180064D02*
Y-74653D01*
Y-180064D02*
X115464Y-197937D01*
X78740Y189961D02*
X88087Y199307D01*
X59055Y198114D02*
X79933Y218992D01*
X81693Y92520D02*
X109252D01*
X78740Y95472D02*
X81693Y92520D01*
X155719Y95173D02*
X157630D01*
X130428Y69882D02*
X155719Y95173D01*
X76492Y69882D02*
X130428D01*
X59055Y87319D02*
Y198114D01*
Y87319D02*
X76492Y69882D01*
X78740Y95472D02*
Y189961D01*
D30*
X717520Y500000D02*
X763779Y453740D01*
X965551D02*
X1005905Y413386D01*
X763779Y453740D02*
X965551D01*
X1005905Y324094D02*
X1016205Y313795D01*
X1005905Y324094D02*
Y413386D01*
X1016205Y313796D02*
X1063268Y266732D01*
X1139764D01*
X1177165Y229331D01*
X1017717Y330499D02*
Y419291D01*
X830709Y465551D02*
X971457D01*
X1017717Y419291D01*
Y330499D02*
X1069672Y278543D01*
X796260Y500000D02*
X830709Y465551D01*
X1069672Y278543D02*
X1144656D01*
X1204724Y218475D01*
Y214341D02*
Y218475D01*
X1177165Y203740D02*
Y229331D01*
X846486Y-239173D02*
X1010168D01*
X1012137Y-237205D01*
X1151325D01*
X798874Y-286785D02*
X846486Y-239173D01*
X1160184Y-228346D02*
X1163643D01*
X1151325Y-237205D02*
X1160184Y-228346D01*
X1017029Y-249016D02*
X1170963D01*
X1171844Y-249897D01*
X1183768D01*
X826433Y-275929D02*
X849718Y-252644D01*
X1013400D02*
X1017029Y-249016D01*
X849718Y-252644D02*
X1013400D01*
X1183768Y-249897D02*
X1186516Y-252644D01*
X1161030Y-49122D02*
X1181995Y-70087D01*
X961017Y-49122D02*
X1161030D01*
X1181995Y-70087D02*
Y-70087D01*
X942377Y-59055D02*
X951084D01*
X934037Y-62601D02*
X938831D01*
X942377Y-59055D01*
X951084D02*
X961017Y-49122D01*
X969578Y-69791D02*
X970979D01*
X981896Y-80709D01*
X1095829D01*
X1106746Y-69791D02*
X1152469D01*
X1095829Y-80709D02*
X1106746Y-69791D01*
X798874Y-336654D02*
Y-286785D01*
X826433Y-336654D02*
Y-275929D01*
D31*
X1582677Y106393D02*
X1583661Y105409D01*
X1592520D01*
X1582677Y106393D02*
Y147730D01*
Y-153451D02*
X1592520Y-143608D01*
Y-111126D01*
X875000Y500000D02*
X912402Y537402D01*
X995079D01*
X1032480Y500000D01*
X1202756Y293307D02*
X1280425D01*
X1075787D02*
X1202756D01*
Y263779D02*
Y293307D01*
X1032480Y336614D02*
Y500000D01*
Y336614D02*
X1075787Y293307D01*
X1280425D02*
X1350350Y223382D01*
X1245078Y-204724D02*
X1246063Y-205709D01*
X1145669Y-204724D02*
X1245078D01*
X1144685Y-205709D02*
X1145669Y-204724D01*
X474409Y254921D02*
X476378Y256890D01*
X474409Y197835D02*
Y254921D01*
X1023622Y-271654D02*
X1025882Y-269394D01*
X1261811Y-270412D02*
Y-268701D01*
X1241787Y-290435D02*
X1261811Y-270412D01*
X1210630Y-272881D02*
Y-269685D01*
X551504Y-335992D02*
Y-265425D01*
X580047Y-335008D02*
Y-240819D01*
X605961Y-336654D02*
Y-267746D01*
X550843Y-336654D02*
X551504Y-335992D01*
X578402Y-336654D02*
X580047Y-335008D01*
X1076433Y-291677D02*
X1097441Y-270669D01*
X1241787Y-334685D02*
Y-290435D01*
X1184701Y-305158D02*
X1191667Y-298192D01*
X1076433Y-334685D02*
Y-291677D01*
X1021315Y-299252D02*
X1023622Y-296945D01*
X1157142Y-336654D02*
Y-278141D01*
X1191667Y-291844D02*
X1210630Y-272881D01*
X1021315Y-334685D02*
Y-299252D01*
X1191667Y-298192D02*
Y-291844D01*
X1023622Y-296945D02*
Y-271654D01*
X1257874Y-408221D02*
X1267378Y-398717D01*
Y-336654D01*
X1239819D02*
X1241787Y-334685D01*
X1184701Y-336654D02*
Y-305158D01*
X1212260Y-336654D02*
X1212429Y-336823D01*
X495724Y-336654D02*
X523284D01*
X551504Y-265425D02*
X552165Y-264764D01*
X612880Y-260827D02*
X718504D01*
X580047Y-240819D02*
X581693Y-239173D01*
X605961Y-267746D02*
X612880Y-260827D01*
X1019346Y-336654D02*
X1021315Y-334685D01*
X1074465Y-336654D02*
X1076433Y-334685D01*
X1257874Y-411417D02*
Y-408221D01*
X1212429Y-411248D02*
X1212598Y-411417D01*
X1212429Y-411248D02*
Y-336823D01*
D34*
X1111220Y500000D02*
D03*
X1032480D02*
D03*
X953740D02*
D03*
X796260D02*
D03*
X875000D02*
D03*
D35*
X717520D02*
D03*
D36*
X-46307Y168795D02*
D03*
Y-167425D02*
D03*
X139913Y168795D02*
D03*
Y-167425D02*
D03*
D37*
X157630Y-93803D02*
D03*
Y95173D02*
D03*
Y-62307D02*
D03*
Y63677D02*
D03*
Y-30811D02*
D03*
Y32181D02*
D03*
X185189Y-109551D02*
D03*
Y110921D02*
D03*
Y-78055D02*
D03*
Y79425D02*
D03*
Y-46559D02*
D03*
Y47929D02*
D03*
Y-15063D02*
D03*
Y16433D02*
D03*
D38*
X1345472Y-60039D02*
D03*
X1313484D02*
D03*
X1281496D02*
D03*
X712598Y-214567D02*
D03*
X744095D02*
D03*
X774606Y-275591D02*
D03*
Y-246063D02*
D03*
X146654Y270669D02*
D03*
X300197D02*
D03*
X269488D02*
D03*
X238779D02*
D03*
X208071D02*
D03*
X177362D02*
D03*
X586614Y557087D02*
D03*
X553149D02*
D03*
X519685D02*
D03*
X486220D02*
D03*
X452756D02*
D03*
X419291D02*
D03*
X608268Y197835D02*
D03*
Y241142D02*
D03*
X1455709Y189961D02*
D03*
X1408465Y265748D02*
D03*
X1430118Y245079D02*
D03*
X1452756Y225394D02*
D03*
X1488189Y325787D02*
D03*
X1507874Y221457D02*
D03*
X1537402Y187008D02*
D03*
X1507874D02*
D03*
X1418307Y-220472D02*
D03*
X1451772D02*
D03*
X1485236D02*
D03*
X1500000Y-191929D02*
D03*
X1469980D02*
D03*
X1439961D02*
D03*
X208661Y139764D02*
D03*
X239173D02*
D03*
X271654D02*
D03*
Y168307D02*
D03*
X239173D02*
D03*
X208661D02*
D03*
X247047Y-165354D02*
D03*
X215551D02*
D03*
X246063Y-136811D02*
D03*
X215551D02*
D03*
X558071Y-421260D02*
D03*
X523130D02*
D03*
X488189D02*
D03*
X423228Y-385827D02*
D03*
Y-353839D02*
D03*
Y-321850D02*
D03*
X477362Y-214567D02*
D03*
X445374D02*
D03*
X413386D02*
D03*
X381398D02*
D03*
X349409D02*
D03*
X275590Y-262795D02*
D03*
X243766D02*
D03*
X211942D02*
D03*
X180118D02*
D03*
X1139764Y418307D02*
D03*
Y386811D02*
D03*
Y357284D02*
D03*
Y328740D02*
D03*
X1109252D02*
D03*
Y357284D02*
D03*
Y386811D02*
D03*
Y418307D02*
D03*
X682087Y420276D02*
D03*
Y387795D02*
D03*
Y357284D02*
D03*
Y328740D02*
D03*
X713583D02*
D03*
Y357284D02*
D03*
Y387795D02*
D03*
Y420276D02*
D03*
X462598Y350394D02*
D03*
X438976Y327756D02*
D03*
X417323Y306102D02*
D03*
X392716Y282480D02*
D03*
X391732Y237205D02*
D03*
X370079Y259842D02*
D03*
X1007874Y-212598D02*
D03*
X1099409Y60039D02*
D03*
X1063976D02*
D03*
X1030512D02*
D03*
X1361220Y56102D02*
D03*
X1021654Y273622D02*
D03*
X552165Y-62008D02*
D03*
X520669Y-61024D02*
D03*
X487205D02*
D03*
X774606Y-214567D02*
D03*
X864173Y-62008D02*
D03*
X910433Y269685D02*
D03*
X878937Y260827D02*
D03*
Y291339D02*
D03*
X866142Y332677D02*
D03*
X329724Y-66929D02*
D03*
X361221Y-57087D02*
D03*
X383858Y59055D02*
D03*
X309055D02*
D03*
X344488Y70866D02*
D03*
X1204724Y214341D02*
D03*
X1177165Y203740D02*
D03*
X1202756Y263779D02*
D03*
X1350350Y223382D02*
D03*
X1246063Y-205709D02*
D03*
X1163643Y-228346D02*
D03*
X1144685Y-205709D02*
D03*
X1186516Y-252644D02*
D03*
X1181995Y-70087D02*
D03*
X934037Y-62601D02*
D03*
X1516732Y51275D02*
D03*
X1461983Y30143D02*
D03*
X1519685Y-66929D02*
D03*
X1471457Y-35946D02*
D03*
X1445809Y-92520D02*
D03*
X1427568Y-115739D02*
D03*
X313594Y141747D02*
D03*
X326772Y106299D02*
D03*
X350394Y31496D02*
D03*
X326772Y-19685D02*
D03*
X324869Y9844D02*
D03*
X1152469Y-69791D02*
D03*
X969578D02*
D03*
X708661Y55249D02*
D03*
X767128D02*
D03*
X476378Y256890D02*
D03*
X474409Y197835D02*
D03*
X444882D02*
D03*
X759842Y236220D02*
D03*
X1210630Y-269685D02*
D03*
X1023622Y-271654D02*
D03*
X581693Y-239173D02*
D03*
X718504Y-260827D02*
D03*
X1162402Y-269685D02*
D03*
X1097441Y-270669D02*
D03*
X552165Y-264764D02*
D03*
X1261811Y-268701D02*
D03*
X1212598Y-411417D02*
D03*
X1257874D02*
D03*
X1392716Y60039D02*
D03*
X1497680Y-15956D02*
D03*
X1483549Y9974D02*
D03*
X1500238Y80329D02*
D03*
X1499407Y109845D02*
D03*
X289370Y-27559D02*
D03*
X1391732Y-69882D02*
D03*
X295276Y-119094D02*
D03*
Y-89567D02*
D03*
X1391732Y175197D02*
D03*
Y-184055D02*
D03*
X74953Y-112634D02*
D03*
X109252Y92520D02*
D03*
X963583Y212598D02*
D03*
D39*
X1582677Y-153451D02*
D03*
Y147730D02*
D03*
D40*
X495724Y-336654D02*
D03*
X523284D02*
D03*
X550843D02*
D03*
X578402D02*
D03*
X605961D02*
D03*
X633520D02*
D03*
X661079D02*
D03*
X688638D02*
D03*
X716197D02*
D03*
X743756D02*
D03*
X771315D02*
D03*
X798874D02*
D03*
X826433D02*
D03*
X853992D02*
D03*
X881551D02*
D03*
X909110D02*
D03*
X936669D02*
D03*
X964228D02*
D03*
X991788D02*
D03*
X1019346D02*
D03*
X1046906D02*
D03*
X1074465D02*
D03*
X1102024D02*
D03*
X1129583D02*
D03*
X1157142D02*
D03*
X1184701D02*
D03*
X1212260D02*
D03*
X1239819D02*
D03*
X1267378D02*
D03*
X1294937D02*
D03*
D41*
X1519396Y51275D02*
X1524317Y46354D01*
X1592520D01*
X1516732Y51275D02*
X1519396D01*
X1537206Y-52071D02*
X1592520D01*
X1522348Y-66929D02*
X1537206Y-52071D01*
X1519685Y-66929D02*
X1522348D01*
%TF.MD5,af48f7d55910b3ee5a6c80835b83e5f1*%
M02*
