%TF.GenerationSoftware,Altium Limited,Altium Designer,21.6.4 (81)*%
G04 Layer_Color=16711935*
%FSLAX26Y26*%
%MOIN*%
%TF.SameCoordinates,57458678-C278-4CFF-9AA2-19D65F52AC30*%
%TF.FilePolarity,Positive*%
%TF.FileFunction,Other,Mechanical_13*%
%TF.Part,Single*%
G01*
G75*
%TA.AperFunction,NonConductor*%
%ADD47C,0.003937*%
%ADD48C,0.001968*%
D47*
X653543Y193898D02*
G03*
X653543Y193898I-19685J0D01*
G01*
X957677Y238189D02*
G03*
X957677Y238189I-19685J0D01*
G01*
X476378Y-177165D02*
Y122047D01*
X775591Y-177165D02*
Y122047D01*
X476378Y-177165D02*
X775591D01*
X476378Y122047D02*
X775591D01*
X2055906Y159151D02*
Y198520D01*
Y-205024D02*
Y-165652D01*
Y198520D02*
X2093308D01*
X2055906Y-205024D02*
X2093308D01*
Y198520D01*
X1632678Y-165654D02*
X2055906Y-165652D01*
X1632678Y-165654D02*
Y159150D01*
X2055906Y159151D01*
X678149Y539370D02*
X1150591D01*
Y460630D02*
Y539370D01*
X678149Y460630D02*
X1150591D01*
X678149D02*
Y539370D01*
X221409Y-120575D02*
Y121945D01*
X-219536Y-171362D02*
X197787D01*
Y-120575D01*
X221409D01*
X197787Y121945D02*
X221409D01*
X197787D02*
Y172732D01*
X-219536D02*
X197787D01*
X-219536Y-170181D02*
Y172732D01*
X669291Y158465D02*
Y280512D01*
X547244Y158465D02*
Y280512D01*
Y158465D02*
X669291D01*
X547244Y280512D02*
X669291D01*
X982284Y-59055D02*
X1139764D01*
Y98425D01*
X982284D02*
X1139764D01*
X982284Y-59055D02*
Y98425D01*
X902559Y151575D02*
X1024606D01*
X902559Y273622D02*
X1024606D01*
Y151575D02*
Y273622D01*
X902559Y151575D02*
Y273622D01*
D48*
X221409Y-103646D02*
X244638D01*
Y-111520D02*
Y-103646D01*
X221409Y-111520D02*
X244638D01*
X221409Y-83961D02*
X244638D01*
Y-91835D02*
Y-83961D01*
X221409Y-91835D02*
X244638D01*
X221409Y-64276D02*
X244638D01*
Y-72150D02*
Y-64276D01*
X221409Y-72150D02*
X244638D01*
X221409Y-44590D02*
X244638D01*
Y-52465D02*
Y-44590D01*
X221409Y-52465D02*
X244638D01*
X221409Y-24906D02*
X244638D01*
Y-32779D02*
Y-24906D01*
X221409Y-32779D02*
X244638D01*
X221409Y-5220D02*
X244638D01*
Y-13094D02*
Y-5220D01*
X221409Y-13094D02*
X244638D01*
X221409Y112890D02*
X244638D01*
Y105016D02*
Y112890D01*
X221409Y105016D02*
X244638D01*
X221409Y93205D02*
X244638D01*
Y85331D02*
Y93205D01*
X221409Y85331D02*
X244638D01*
X221409Y73520D02*
X244638D01*
Y65646D02*
Y73520D01*
X221409Y65646D02*
X244638D01*
X221409Y53835D02*
X244638D01*
Y45961D02*
Y53835D01*
X221409Y45961D02*
X244638D01*
X221409Y34150D02*
X244638D01*
Y26276D02*
Y34150D01*
X221409Y26276D02*
X244638D01*
X221409Y6591D02*
X244638D01*
Y14465D01*
X221409D02*
X244638D01*
%TF.MD5,df1c902053f8da659852cd9f4a37ea2f*%
M02*
