%TF.GenerationSoftware,Altium Limited,Altium Designer,21.6.4 (81)*%
G04 Layer_Color=128*
%FSLAX26Y26*%
%MOIN*%
%TF.SameCoordinates,57458678-C278-4CFF-9AA2-19D65F52AC30*%
%TF.FilePolarity,Positive*%
%TF.FileFunction,Paste,Bot*%
%TF.Part,Single*%
G01*
G75*
%TA.AperFunction,ConnectorPad*%
%ADD14R,0.059055X0.013780*%
%ADD39R,0.039370X0.035433*%
%TA.AperFunction,SMDPad,CuDef*%
%ADD40R,0.015748X0.078740*%
D14*
X1592520Y-111126D02*
D03*
Y-91441D02*
D03*
Y-71756D02*
D03*
Y-52071D02*
D03*
Y-32386D02*
D03*
Y26669D02*
D03*
Y46354D02*
D03*
Y66039D02*
D03*
Y85724D02*
D03*
Y105409D02*
D03*
D39*
X1582677Y-153451D02*
D03*
Y147730D02*
D03*
D40*
X495724Y-336654D02*
D03*
X523284D02*
D03*
X550843D02*
D03*
X578402D02*
D03*
X605961D02*
D03*
X633520D02*
D03*
X661079D02*
D03*
X688638D02*
D03*
X716197D02*
D03*
X743756D02*
D03*
X771315D02*
D03*
X798874D02*
D03*
X826433D02*
D03*
X853992D02*
D03*
X881551D02*
D03*
X909110D02*
D03*
X936669D02*
D03*
X964228D02*
D03*
X991788D02*
D03*
X1019346D02*
D03*
X1046906D02*
D03*
X1074465D02*
D03*
X1102024D02*
D03*
X1129583D02*
D03*
X1157142D02*
D03*
X1184701D02*
D03*
X1212260D02*
D03*
X1239819D02*
D03*
X1267378D02*
D03*
X1294937D02*
D03*
%TF.MD5,415934acec82d42dfa54a460b40a1005*%
M02*
