%TF.GenerationSoftware,Altium Limited,Altium Designer,21.6.4 (81)*%
G04 Layer_Color=0*
%FSLAX26Y26*%
%MOIN*%
%TF.SameCoordinates,57458678-C278-4CFF-9AA2-19D65F52AC30*%
%TF.FilePolarity,Positive*%
%TF.FileFunction,Profile,NP*%
%TF.Part,Single*%
G01*
G75*
%TA.AperFunction,Profile*%
%ADD49C,0.001000*%
G36*
X1629921Y-143805D02*
X1606299D01*
Y-124120D01*
X1629921D01*
Y-143805D01*
D02*
G37*
G36*
Y118203D02*
X1606299D01*
Y152455D01*
X1629921D01*
Y118203D01*
D02*
G37*
D49*
X34799Y-229613D02*
G02*
X61040Y-238246I0J-44197D01*
G01*
X260315Y-437520D01*
D02*
G03*
X261260Y-438262I3549J3549D01*
G01*
D02*
G03*
X262739Y-440036I4487J2238D01*
G01*
D02*
G03*
X295276Y-450881I32536J43382D01*
G01*
D02*
G03*
X295639Y-450868I-0J5015D01*
G01*
D02*
G03*
X296260Y-450906I622J4984D01*
G01*
X1283465Y-450891D01*
D02*
G03*
X1283945Y-450868I-0J5014D01*
G01*
D02*
G03*
X1284429Y-450891I484J4995D01*
G01*
D02*
G03*
X1327650Y-429430I-0J54252D01*
G01*
D02*
G03*
X1327860Y-429231I-3304J3704D01*
G01*
X1536854Y-219797D01*
D02*
G03*
X1538560Y-218678I-1840J4665D01*
G01*
D02*
G02*
X1576741Y-202850I38212J-38212D01*
G01*
D02*
G02*
X1576772Y-202850I15J-13510D01*
G01*
D02*
G03*
X1640842Y-138780I-0J64070D01*
G01*
Y150591D01*
D02*
G03*
X1576772Y214661I-64070J0D01*
G01*
D02*
G03*
X1576741Y214661I-0J-5015D01*
G01*
D02*
G02*
X1522732Y268701I30J54040D01*
G01*
D02*
G03*
X1522732Y268719I-285J9D01*
G01*
X1522831Y311218D01*
D02*
G03*
X1522831Y311230I-1254J6D01*
G01*
D02*
G03*
X1522719Y312281I-5015J0D01*
G01*
D02*
G03*
X1502482Y357765I-64057J-1257D01*
G01*
D02*
G03*
X1501524Y358470I-3423J-3649D01*
G01*
X1293930Y566063D01*
D02*
G03*
X1293382Y566985I-4552J-2082D01*
G01*
D02*
G03*
X1250000Y588676I-43382J-32536D01*
G01*
D02*
G03*
X1249637Y588663I-4J-4939D01*
G01*
D02*
G03*
X1249016Y588702I-620J-4964D01*
G01*
X421579D01*
D02*
G03*
X420938Y588661I-2J-4991D01*
G01*
D02*
G03*
X389707Y577831I1306J-54210D01*
G01*
D02*
G03*
X388893Y577064I3003J-4006D01*
G01*
D02*
G03*
X386791Y575808I1443J-4801D01*
G01*
X61040Y250057D01*
D02*
G02*
X34799Y241424I-26241J35565D01*
G01*
D02*
G03*
X33437Y241236I0J-5015D01*
G01*
X-157480D01*
D02*
G03*
X-221550Y177165I0J-64070D01*
G01*
Y-165354D01*
D02*
G03*
X-157480Y-229424I64070J0D01*
G01*
X33437D01*
D02*
G03*
X34799Y-229613I1362J4827D01*
G01*
%TF.MD5,aa9c3944f764ef1b059d0ba424771462*%
M02*
