%TF.GenerationSoftware,Altium Limited,Altium Designer,21.6.4 (81)*%
G04 Layer_Color=32896*
%FSLAX26Y26*%
%MOIN*%
%TF.SameCoordinates,57458678-C278-4CFF-9AA2-19D65F52AC30*%
%TF.FilePolarity,Positive*%
%TF.FileFunction,Legend,Bot*%
%TF.Part,Single*%
G01*
G75*
%TA.AperFunction,NonConductor*%
%ADD42C,0.010000*%
%ADD43C,0.006693*%
%ADD44C,0.005906*%
D42*
X1330370Y-395709D02*
Y-238228D01*
X460291Y-395709D02*
Y-238228D01*
Y-395709D02*
X1330370D01*
D43*
X1117450Y569351D02*
X1120729Y572631D01*
X1127289D01*
X1130569Y569351D01*
Y556232D01*
X1127289Y552952D01*
X1120729D01*
X1117450Y556232D01*
Y562792D01*
X1124009D01*
X1110890Y552952D02*
Y572631D01*
X1097771Y552952D01*
Y572631D01*
X1091212D02*
Y552952D01*
X1081372D01*
X1078092Y556232D01*
Y569351D01*
X1081372Y572631D01*
X1091212D01*
X964891Y569351D02*
X968170Y572631D01*
X974730D01*
X978010Y569351D01*
Y556232D01*
X974730Y552952D01*
X968170D01*
X964891Y556232D01*
Y562792D01*
X971450D01*
X958331Y552952D02*
Y572631D01*
X945212Y552952D01*
Y572631D01*
X938653D02*
Y552952D01*
X928813D01*
X925533Y556232D01*
Y569351D01*
X928813Y572631D01*
X938653D01*
X1061997Y569351D02*
X1058717Y572631D01*
X1052157D01*
X1048878Y569351D01*
Y566072D01*
X1052157Y562792D01*
X1055437D01*
X1052157D01*
X1048878Y559512D01*
Y556232D01*
X1052157Y552952D01*
X1058717D01*
X1061997Y556232D01*
X1042318Y552952D02*
Y556232D01*
X1039038D01*
Y552952D01*
X1042318D01*
X1025919Y569351D02*
X1022639Y572631D01*
X1016080D01*
X1012800Y569351D01*
Y566072D01*
X1016080Y562792D01*
X1019360D01*
X1016080D01*
X1012800Y559512D01*
Y556232D01*
X1016080Y552952D01*
X1022639D01*
X1025919Y556232D01*
X1006240Y572631D02*
Y559512D01*
X999681Y552952D01*
X993121Y559512D01*
Y572631D01*
X910422Y568367D02*
X907142Y571647D01*
X900582D01*
X897303Y568367D01*
Y565087D01*
X900582Y561808D01*
X903862D01*
X900582D01*
X897303Y558528D01*
Y555248D01*
X900582Y551968D01*
X907142D01*
X910422Y555248D01*
X890743Y551968D02*
Y555248D01*
X887463D01*
Y551968D01*
X890743D01*
X874344Y568367D02*
X871064Y571647D01*
X864505D01*
X861225Y568367D01*
Y565087D01*
X864505Y561808D01*
X867785D01*
X864505D01*
X861225Y558528D01*
Y555248D01*
X864505Y551968D01*
X871064D01*
X874344Y555248D01*
X854666Y571647D02*
Y558528D01*
X848106Y551968D01*
X841547Y558528D01*
Y571647D01*
X709119Y570092D02*
X712399Y573371D01*
X718958D01*
X722238Y570092D01*
Y566812D01*
X718958Y563532D01*
X712399D01*
X709119Y560252D01*
Y556973D01*
X712399Y553693D01*
X718958D01*
X722238Y556973D01*
X702559Y573371D02*
Y553693D01*
X696000Y560252D01*
X689440Y553693D01*
Y573371D01*
X682881D02*
Y553693D01*
X673042D01*
X669762Y556973D01*
Y570092D01*
X673042Y573371D01*
X682881D01*
X815798Y570092D02*
X819077Y573371D01*
X825637D01*
X828917Y570092D01*
Y566812D01*
X825637Y563532D01*
X819077D01*
X815798Y560252D01*
Y556973D01*
X819077Y553693D01*
X825637D01*
X828917Y556973D01*
X809238Y573371D02*
Y553693D01*
X802679Y560252D01*
X796119Y553693D01*
Y573371D01*
X776440Y570092D02*
X779720Y573371D01*
X786280D01*
X789559Y570092D01*
Y556973D01*
X786280Y553693D01*
X779720D01*
X776440Y556973D01*
X769881Y573371D02*
Y553693D01*
X756762D01*
X750202Y573371D02*
Y553693D01*
Y560252D01*
X737083Y573371D01*
X746923Y563532D01*
X737083Y553693D01*
D44*
X444218Y-276254D02*
X439627Y-271663D01*
X430443D01*
X425851Y-276254D01*
Y-280846D01*
X430443Y-285438D01*
X435035D01*
X430443D01*
X425851Y-290029D01*
Y-294621D01*
X430443Y-299213D01*
X439627D01*
X444218Y-294621D01*
X416668Y-276254D02*
X412076Y-271663D01*
X402893D01*
X398301Y-276254D01*
Y-294621D01*
X402893Y-299213D01*
X412076D01*
X416668Y-294621D01*
Y-276254D01*
X1358922Y-316929D02*
X1349739D01*
X1354331D01*
Y-289379D01*
X1358922Y-293971D01*
X1329630Y-179773D02*
Y-202731D01*
X1325038Y-207323D01*
X1315855D01*
X1311263Y-202731D01*
Y-179773D01*
X1288305Y-207323D02*
Y-179773D01*
X1302080Y-193548D01*
X1283713D01*
%TF.MD5,fcdf05819e6c8464d4f28277cc8de705*%
M02*
