%TF.GenerationSoftware,Altium Limited,Altium Designer,21.6.4 (81)*%
G04 Layer_Physical_Order=1*
G04 Layer_Color=255*
%FSLAX26Y26*%
%MOIN*%
%TF.SameCoordinates,57458678-C278-4CFF-9AA2-19D65F52AC30*%
%TF.FilePolarity,Positive*%
%TF.FileFunction,Copper,L1,Top,Signal*%
%TF.Part,Single*%
G01*
G75*
%TA.AperFunction,SMDPad,CuDef*%
%ADD10R,0.070866X0.125984*%
%ADD11R,0.039370X0.043307*%
%ADD12R,0.059055X0.051181*%
%ADD13R,0.066929X0.078740*%
%TA.AperFunction,ConnectorPad*%
%ADD14R,0.059055X0.013780*%
%ADD15R,0.039370X0.046457*%
%TA.AperFunction,SMDPad,CuDef*%
%ADD16R,0.031496X0.031496*%
%ADD17R,0.043307X0.039370*%
%ADD18R,0.039370X0.007874*%
%TA.AperFunction,ConnectorPad*%
%ADD19R,0.047244X0.011811*%
%TA.AperFunction,SMDPad,CuDef*%
%ADD20O,0.062992X0.011811*%
%ADD21R,0.066142X0.074016*%
%ADD22R,0.043307X0.043307*%
%ADD23R,0.106299X0.106299*%
%ADD24R,0.011811X0.031496*%
%ADD25R,0.031496X0.011811*%
%ADD26R,0.064961X0.064961*%
%ADD27O,0.009842X0.031496*%
%ADD28O,0.031496X0.009842*%
%TA.AperFunction,Conductor*%
%ADD29C,0.009842*%
%ADD30C,0.005906*%
%ADD31C,0.011811*%
%ADD32C,0.015748*%
%ADD33C,0.019685*%
%TA.AperFunction,ComponentPad*%
%ADD34C,0.051181*%
%ADD35R,0.051181X0.051181*%
%ADD36O,0.062992X0.039370*%
%ADD37C,0.025591*%
%TA.AperFunction,ViaPad*%
%ADD38C,0.023622*%
G36*
X1249565Y578638D02*
X1255148Y578641D01*
X1265161Y576277D01*
X1274366Y571675D01*
X1282267Y565081D01*
X1285161Y561222D01*
X1285352Y560930D01*
X1286076Y560191D01*
X1286651Y559331D01*
X1494425Y351377D01*
X1495197Y350861D01*
X1495299Y350719D01*
X1499571Y346735D01*
X1505832Y337930D01*
X1510229Y328048D01*
X1512580Y317491D01*
X1512686Y312084D01*
X1512782Y311647D01*
X1512782Y311647D01*
X1512697Y268738D01*
X1512747Y268484D01*
X1512709Y268228D01*
X1512969Y262915D01*
X1513150Y262193D01*
X1513149Y261449D01*
X1515215Y251062D01*
X1515593Y250150D01*
X1515785Y249180D01*
X1519836Y239396D01*
X1520385Y238574D01*
X1520763Y237661D01*
X1526645Y228855D01*
X1527343Y228156D01*
X1527892Y227335D01*
X1535378Y219845D01*
X1536199Y219295D01*
X1536898Y218596D01*
X1545701Y212710D01*
X1546613Y212332D01*
X1547435Y211782D01*
X1557217Y207726D01*
X1558186Y207532D01*
X1559098Y207154D01*
X1569484Y205083D01*
X1570227Y205082D01*
X1570948Y204901D01*
X1576243Y204638D01*
X1576493Y204675D01*
X1576741Y204626D01*
X1582093Y204626D01*
X1592533Y202549D01*
X1602367Y198476D01*
X1611217Y192563D01*
X1618743Y185036D01*
X1624657Y176186D01*
X1628259Y167490D01*
X1626636Y163800D01*
X1625561Y162490D01*
X1607362D01*
Y170644D01*
X1586614D01*
Y142415D01*
X1582677D01*
Y138478D01*
X1557992D01*
Y105111D01*
X1552992Y103039D01*
X1543296Y112735D01*
X1539715Y115128D01*
X1535491Y115968D01*
X1516161D01*
X1516003Y116074D01*
X1514426Y119881D01*
X1509443Y124864D01*
X1502931Y127561D01*
X1495883D01*
X1489371Y124864D01*
X1488754Y124247D01*
X1483754Y126318D01*
Y227362D01*
X1481882Y231882D01*
X1271252Y442512D01*
X1266732Y444384D01*
X1061024D01*
Y444882D01*
X978346D01*
Y441543D01*
X976876Y437992D01*
Y387023D01*
X935039D01*
X930815Y386183D01*
X927234Y383790D01*
X909517Y366073D01*
X905809Y365708D01*
X887727Y383790D01*
X884146Y386183D01*
X879921Y387023D01*
X840551D01*
Y444882D01*
X757874D01*
Y443400D01*
X525591D01*
X521071Y441528D01*
X338000Y258457D01*
X336128Y253937D01*
Y145714D01*
X331311Y145272D01*
X328614Y151783D01*
X323630Y156767D01*
X317118Y159464D01*
X310070D01*
X303559Y156767D01*
X298575Y151783D01*
X295878Y145271D01*
Y139642D01*
X267643Y111407D01*
X263024Y113320D01*
Y119858D01*
X238339D01*
Y108953D01*
X230464D01*
Y119858D01*
X205780D01*
Y119858D01*
X200780Y119784D01*
X200275Y121001D01*
X195269Y126007D01*
X189126Y128552D01*
Y110921D01*
X181252D01*
Y128552D01*
X175109Y126007D01*
X170103Y121001D01*
X167394Y114461D01*
X164538Y112553D01*
X161350Y113874D01*
X153910D01*
X147037Y111027D01*
X141776Y105766D01*
X140131Y101795D01*
X134343Y99712D01*
X134273Y99724D01*
X133738Y100082D01*
X129513Y100922D01*
X124948D01*
X124271Y102555D01*
X119288Y107539D01*
X112776Y110236D01*
X105728D01*
X99216Y107539D01*
X94233Y102555D01*
X91535Y96044D01*
Y88996D01*
X94233Y82484D01*
X99216Y77501D01*
X105728Y74803D01*
X112776D01*
X119288Y77501D01*
X120632Y78844D01*
X124941D01*
X138929Y64856D01*
Y59957D01*
X141776Y53084D01*
X146931Y47929D01*
X141776Y42774D01*
X138929Y35901D01*
Y28461D01*
X141776Y21588D01*
X147037Y16327D01*
X153910Y13480D01*
X161350D01*
X163813Y14501D01*
X166488Y12713D01*
X169335Y5840D01*
X174490Y685D01*
X169335Y-4470D01*
X166488Y-11343D01*
X163813Y-13130D01*
X161350Y-12110D01*
X153910D01*
X147037Y-14957D01*
X141776Y-20218D01*
X138929Y-27091D01*
Y-34531D01*
X141776Y-41404D01*
X146931Y-46559D01*
X141776Y-51714D01*
X138929Y-58587D01*
Y-66027D01*
X141776Y-72900D01*
X146931Y-78055D01*
X142222Y-82764D01*
X93783D01*
X89559Y-83605D01*
X85978Y-85998D01*
X77058Y-94917D01*
X71429D01*
X64917Y-97614D01*
X59933Y-102598D01*
X57236Y-109110D01*
Y-116158D01*
X59933Y-122669D01*
X64917Y-127653D01*
X71429Y-130350D01*
X78477D01*
X84988Y-127653D01*
X89972Y-122669D01*
X92669Y-116158D01*
Y-110528D01*
X98356Y-104842D01*
X142222D01*
X147037Y-109657D01*
X153910Y-112504D01*
X161350D01*
X164538Y-111183D01*
X167394Y-113091D01*
X170103Y-119631D01*
X175109Y-124637D01*
X181252Y-127182D01*
Y-109551D01*
X189126D01*
Y-127182D01*
X195269Y-124637D01*
X200275Y-119631D01*
X200780Y-118413D01*
X205780Y-118488D01*
Y-118488D01*
X230465D01*
Y-107583D01*
X238339D01*
Y-118488D01*
X263024D01*
Y-111474D01*
X267643Y-109560D01*
X277559Y-119476D01*
Y-122618D01*
X280256Y-129130D01*
X285240Y-134114D01*
X291752Y-136811D01*
X298800D01*
X305311Y-134114D01*
X310295Y-129130D01*
X312992Y-122618D01*
Y-115570D01*
X310295Y-109059D01*
X305567Y-104331D01*
X310295Y-99603D01*
X312992Y-93091D01*
Y-86043D01*
X313601Y-85132D01*
X354331D01*
X358851Y-83260D01*
X369120Y-72991D01*
X371256Y-72106D01*
X376240Y-67122D01*
X377125Y-64986D01*
X407323Y-34788D01*
X410824Y-35521D01*
X412323Y-36321D01*
Y-60118D01*
X433071D01*
Y-33464D01*
Y-6811D01*
X414935D01*
X412323Y-6811D01*
X409935Y-2800D01*
Y1519D01*
X411418Y5906D01*
X462598D01*
Y46080D01*
X462830Y47244D01*
X462598Y48408D01*
Y61024D01*
X448047D01*
Y80990D01*
X452666Y82904D01*
X472509Y63060D01*
X476091Y60667D01*
X480315Y59827D01*
X586614D01*
Y25590D01*
X665354D01*
Y44211D01*
X694645D01*
X698626Y40230D01*
X705137Y37533D01*
X712185D01*
X718697Y40230D01*
X723681Y45214D01*
X726378Y51725D01*
Y58773D01*
X723681Y65285D01*
X718697Y70269D01*
X712185Y72966D01*
X705137D01*
X698626Y70269D01*
X694645Y66288D01*
X665354D01*
Y116142D01*
X586614D01*
Y81905D01*
X484887D01*
X455921Y110872D01*
Y168937D01*
X460921Y169430D01*
X461024Y168911D01*
X463634Y165005D01*
X475737Y152902D01*
X475737Y152902D01*
X479644Y150292D01*
X484252Y149375D01*
X484253Y149375D01*
X647637D01*
X647638Y149375D01*
X652246Y150292D01*
X656153Y152902D01*
X671327Y168076D01*
X731463D01*
Y-87250D01*
X706779Y-111935D01*
X665354D01*
Y-80709D01*
X586614D01*
Y-171260D01*
X665354D01*
Y-140034D01*
X712598D01*
X717975Y-138964D01*
X722533Y-135919D01*
X751332Y-107119D01*
X830024D01*
X847562Y-124657D01*
X851469Y-127267D01*
X856077Y-128184D01*
X863189D01*
Y-147638D01*
X934055D01*
Y-128184D01*
X946784D01*
X961383Y-142783D01*
Y-221456D01*
X961383Y-221457D01*
X962299Y-226065D01*
X964910Y-229972D01*
X1005906Y-270968D01*
Y-275178D01*
X1004288Y-277599D01*
X997693D01*
Y-332716D01*
X1048874D01*
Y-317200D01*
X1075449D01*
Y-332716D01*
X1126630D01*
Y-317200D01*
X1138441D01*
Y-332716D01*
X1284111D01*
Y-277599D01*
X1281802D01*
X1279024Y-273441D01*
X1279527Y-272225D01*
Y-265177D01*
X1276830Y-258665D01*
X1271847Y-253681D01*
X1265335Y-250984D01*
X1258287D01*
X1251775Y-253681D01*
X1246792Y-258665D01*
X1244094Y-265177D01*
Y-272225D01*
X1244598Y-273441D01*
X1241820Y-277599D01*
X1231028D01*
X1228250Y-273441D01*
X1228346Y-273209D01*
Y-266161D01*
X1225649Y-259649D01*
X1220666Y-254666D01*
X1214154Y-251969D01*
X1207106D01*
X1206908Y-251836D01*
X1206203Y-245730D01*
X1230080Y-221853D01*
X1236027Y-220728D01*
X1242539Y-223425D01*
X1249587D01*
X1256098Y-220728D01*
X1261082Y-215744D01*
X1263779Y-209233D01*
Y-202185D01*
X1261082Y-195673D01*
X1258105Y-192696D01*
Y19676D01*
X1293316Y54887D01*
X1338553D01*
X1338553Y54887D01*
X1343162Y55804D01*
X1347069Y58414D01*
X1371704Y83050D01*
X1374315Y86957D01*
X1375231Y91565D01*
Y154591D01*
X1380231Y157264D01*
X1381186Y156626D01*
Y73563D01*
X1377697Y70075D01*
X1375000Y63563D01*
Y56515D01*
X1377697Y50004D01*
X1382681Y45020D01*
X1389193Y42323D01*
X1396240D01*
X1399120Y40399D01*
Y-49584D01*
X1395256Y-52165D01*
X1388208D01*
X1381697Y-54863D01*
X1376713Y-59846D01*
X1374016Y-66358D01*
Y-73406D01*
X1376713Y-79918D01*
X1380694Y-83898D01*
Y-170039D01*
X1376713Y-174019D01*
X1374016Y-180531D01*
Y-187579D01*
X1376713Y-194091D01*
X1381697Y-199074D01*
X1388208Y-201772D01*
X1395256D01*
X1401768Y-199074D01*
X1406752Y-194091D01*
X1409449Y-187579D01*
Y-180531D01*
X1406752Y-174019D01*
X1402771Y-170039D01*
Y-83898D01*
X1406752Y-79918D01*
X1407492Y-78130D01*
X1413390Y-76957D01*
X1421904Y-85472D01*
X1422188Y-85589D01*
X1422330Y-85861D01*
X1423790Y-86316D01*
X1426710Y-88135D01*
X1427934Y-91523D01*
X1428092Y-92240D01*
Y-96044D01*
X1426770Y-98023D01*
X1424044D01*
X1417532Y-100720D01*
X1412549Y-105704D01*
X1409851Y-112215D01*
Y-119263D01*
X1412549Y-125775D01*
X1417532Y-130758D01*
X1424044Y-133456D01*
X1431092D01*
X1437604Y-130758D01*
X1441584Y-126778D01*
X1536178D01*
X1540403Y-125938D01*
X1543984Y-123545D01*
X1553373Y-114156D01*
X1557992Y-116069D01*
Y-144199D01*
X1582677D01*
Y-148136D01*
X1586614D01*
Y-176364D01*
X1607362D01*
Y-153840D01*
X1623608D01*
X1626949Y-158841D01*
X1624657Y-164375D01*
X1618743Y-173225D01*
X1611217Y-180751D01*
X1602367Y-186665D01*
X1592533Y-190738D01*
X1582093Y-192815D01*
X1576772D01*
X1576525Y-192864D01*
X1576276Y-192827D01*
X1570953Y-193090D01*
X1570231Y-193271D01*
X1569486Y-193271D01*
X1559104Y-195341D01*
X1558192Y-195720D01*
X1557223Y-195912D01*
X1547445Y-199966D01*
X1546623Y-200515D01*
X1545711Y-200893D01*
X1536910Y-206776D01*
X1536384Y-207302D01*
X1535747Y-207684D01*
X1532074Y-211012D01*
X1532025Y-211041D01*
X1531062Y-211895D01*
X1529992Y-212612D01*
X1320759Y-422141D01*
X1320399Y-422681D01*
X1319909Y-423109D01*
X1316591Y-427418D01*
X1308678Y-433967D01*
X1299511Y-438519D01*
X1289546Y-440856D01*
X1284590D01*
X1284210Y-440844D01*
X1284047Y-440871D01*
X1283885Y-440839D01*
X296527Y-440872D01*
X296249Y-440857D01*
X295977Y-440896D01*
X295709Y-440843D01*
X291709Y-440846D01*
X284680Y-439705D01*
X277921Y-437452D01*
X271610Y-434145D01*
X269306Y-432418D01*
X268916Y-432063D01*
X268511Y-431453D01*
X268004Y-430942D01*
X267686Y-430728D01*
X267450Y-430424D01*
X267154Y-430168D01*
X68136Y-231150D01*
X67342Y-230620D01*
X66672Y-229940D01*
X63766Y-227970D01*
X63211Y-227735D01*
X62739Y-227360D01*
X56505Y-224140D01*
X55735Y-223918D01*
X55036Y-223523D01*
X48371Y-221331D01*
X47576Y-221233D01*
X46823Y-220954D01*
X39896Y-219844D01*
X39293Y-219867D01*
X38706Y-219726D01*
X35369Y-219593D01*
X35320Y-219584D01*
X35218Y-219587D01*
X34746Y-219565D01*
X34483Y-219605D01*
X34455Y-219606D01*
X33606Y-219436D01*
X-157478Y-219390D01*
X-157479Y-219390D01*
X-157480Y-219390D01*
X-162802Y-219389D01*
X-173242Y-217313D01*
X-183076Y-213240D01*
X-191926Y-207326D01*
X-199452Y-199800D01*
X-205366Y-190950D01*
X-209439Y-181116D01*
X-211516Y-170676D01*
Y-165354D01*
X-211516Y177165D01*
X-211516Y182487D01*
X-209439Y192927D01*
X-205366Y202761D01*
X-199452Y211611D01*
X-191926Y219137D01*
X-183076Y225051D01*
X-173242Y229124D01*
X-162802Y231201D01*
X-157480D01*
X33437Y231201D01*
X34512Y231414D01*
X34972Y231371D01*
X35333Y231409D01*
X38688Y231536D01*
X39283Y231678D01*
X39895Y231655D01*
X46823Y232765D01*
X47576Y233044D01*
X48371Y233142D01*
X55036Y235334D01*
X55734Y235729D01*
X56505Y235951D01*
X62739Y239170D01*
X63211Y239546D01*
X63767Y239781D01*
X66672Y241752D01*
X67342Y242431D01*
X68136Y242961D01*
X393579Y568405D01*
X394286Y568709D01*
X394866Y569108D01*
X395246Y569499D01*
X395721Y569767D01*
X395997Y570005D01*
X398471Y571860D01*
X404526Y575079D01*
X411004Y577326D01*
X417752Y578546D01*
X421180Y578629D01*
X421420Y578683D01*
X421498Y578667D01*
X421557D01*
X421671Y578653D01*
X421865Y578667D01*
X1248747Y578667D01*
X1249024Y578652D01*
X1249296Y578691D01*
X1249565Y578638D01*
D02*
G37*
G36*
X830709Y387023D02*
X810881D01*
X810566Y387338D01*
X805357Y390819D01*
X799213Y392041D01*
X793068Y390819D01*
X787859Y387338D01*
X784378Y382129D01*
X783156Y375984D01*
X784378Y369840D01*
X787859Y364631D01*
X802841Y349648D01*
Y314961D01*
X507874D01*
X403543Y210630D01*
Y-29528D01*
X354331Y-78740D01*
X309504D01*
X305311Y-74548D01*
X298800Y-71850D01*
X293170D01*
X281727Y-60407D01*
X278146Y-58014D01*
X273921Y-57174D01*
X263929D01*
Y-56402D01*
X248175D01*
X247081Y-55285D01*
X244869Y-51401D01*
X245440Y-48528D01*
X244869Y-45654D01*
X247081Y-41770D01*
X248175Y-40654D01*
X263929D01*
Y-39370D01*
X276126D01*
X279334Y-42578D01*
X285846Y-45276D01*
X292894D01*
X299406Y-42578D01*
X302614Y-39370D01*
X324803D01*
X326772Y-37401D01*
X330296D01*
X336807Y-34704D01*
X341791Y-29721D01*
X344488Y-23209D01*
Y-16161D01*
X342520Y-11409D01*
Y6162D01*
X342586Y6320D01*
Y10142D01*
X346830Y13746D01*
X347205Y13780D01*
X353918D01*
X360429Y16477D01*
X365413Y21460D01*
X368110Y27972D01*
Y35020D01*
X365667Y40919D01*
X365413Y41532D01*
X360429Y46515D01*
X353918Y49213D01*
X346870D01*
X346677Y49133D01*
X340358Y46515D01*
X337364Y43521D01*
X315492D01*
X311268Y42681D01*
X309576Y41550D01*
X263929D01*
Y42024D01*
X248175D01*
X247081Y43141D01*
X244869Y47024D01*
X245440Y49898D01*
X244869Y52772D01*
X247081Y56655D01*
X248175Y57772D01*
X263929D01*
Y59107D01*
X269831D01*
X274056Y59947D01*
X277637Y62340D01*
X308134Y92837D01*
X315179D01*
X316736Y91280D01*
X323248Y88583D01*
X330296D01*
X336807Y91280D01*
X341791Y96264D01*
X344488Y102775D01*
Y109823D01*
X342364Y114951D01*
X342520Y115106D01*
Y253937D01*
X525591Y437008D01*
X830709D01*
Y387023D01*
D02*
G37*
G36*
X757874Y307087D02*
X779857D01*
X784449Y306102D01*
Y284661D01*
X742126D01*
X737902Y283821D01*
X734321Y281428D01*
X723167Y270274D01*
X720672D01*
X717520Y270901D01*
X666339D01*
X661730Y269984D01*
X657823Y267374D01*
X655213Y263467D01*
X654296Y258858D01*
X655213Y254250D01*
X656272Y252665D01*
X657409Y249016D01*
X656272Y245366D01*
X655213Y243782D01*
X654296Y239173D01*
X655213Y234565D01*
X656272Y232980D01*
X657409Y229331D01*
X656272Y225681D01*
X655213Y224097D01*
X654296Y219488D01*
X655213Y214880D01*
X656272Y213295D01*
X657409Y209646D01*
X656272Y205996D01*
X655213Y204411D01*
X654296Y199803D01*
X655213Y195195D01*
X656272Y193610D01*
X657343Y190174D01*
X655810Y186620D01*
X651338Y182149D01*
X646338Y184220D01*
Y215552D01*
X608268D01*
X570197D01*
Y178460D01*
X570197Y177480D01*
X568795Y175096D01*
X564225Y174993D01*
X563301Y176181D01*
X524606D01*
Y184055D01*
X560533D01*
X560470Y184373D01*
X559511Y185808D01*
X558712Y191288D01*
X561322Y195195D01*
X562239Y199803D01*
X561322Y204411D01*
X560264Y205996D01*
X559126Y209646D01*
X560264Y213295D01*
X561322Y214880D01*
X562239Y219488D01*
X561322Y224097D01*
X558712Y228003D01*
Y230658D01*
X561322Y234565D01*
X562239Y239173D01*
X561322Y243782D01*
X560264Y245366D01*
X559126Y249016D01*
X560264Y252665D01*
X561322Y254250D01*
X562239Y258858D01*
X561322Y263467D01*
X558712Y267374D01*
X554805Y269984D01*
X550197Y270901D01*
X487422D01*
X486414Y271909D01*
X482538Y273514D01*
X481179Y279226D01*
X510522Y308568D01*
X757874D01*
Y307087D01*
D02*
G37*
G36*
X1301223Y283241D02*
X1299309Y278622D01*
X1297244D01*
Y257874D01*
X1289370D01*
Y278622D01*
X1272559D01*
Y278622D01*
X1270748D01*
Y278622D01*
X1253937D01*
Y257874D01*
X1250000D01*
Y253937D01*
X1229252D01*
Y251303D01*
X1229115Y251246D01*
X1224252Y249923D01*
X1221960Y251454D01*
X1219113Y256973D01*
X1220472Y260255D01*
Y267303D01*
X1217775Y273815D01*
X1212792Y278799D01*
X1206280Y281496D01*
X1199232D01*
X1192720Y278799D01*
X1189743Y275822D01*
X1165354D01*
Y293307D01*
X1114173D01*
Y277790D01*
X1106299D01*
Y293307D01*
X1055118D01*
Y241315D01*
X1036482D01*
X1034736Y242482D01*
X1030512Y243322D01*
X1008858D01*
X1006063Y242766D01*
X1001063Y245652D01*
Y250079D01*
X996636D01*
X993750Y255079D01*
X994307Y257874D01*
Y296260D01*
X993466Y300484D01*
X992721Y301600D01*
X995393Y306600D01*
X1277864D01*
X1301223Y283241D01*
D02*
G37*
G36*
X890536Y349758D02*
Y318140D01*
X891376Y313916D01*
X893769Y310335D01*
X913076Y291028D01*
X916657Y288635D01*
X920881Y287795D01*
X932814D01*
X932859Y287751D01*
Y257874D01*
X933415Y255079D01*
X930529Y250079D01*
X926102D01*
Y245652D01*
X921102Y242766D01*
X918307Y243322D01*
X896654D01*
X892429Y242482D01*
X890683Y241315D01*
X870079D01*
X870079Y241315D01*
X866622Y240628D01*
X863692Y238670D01*
X858142Y233119D01*
X854409Y230394D01*
Y230394D01*
X854409Y230394D01*
X823819D01*
Y199803D01*
X819882D01*
Y195866D01*
X785354D01*
Y184077D01*
X780735Y182163D01*
X755289Y207609D01*
X752229Y209654D01*
X751548Y210924D01*
X750787Y215283D01*
X754685Y219181D01*
X756318Y218504D01*
X763366D01*
X769878Y221201D01*
X774862Y226185D01*
X777559Y232696D01*
Y239744D01*
X775878Y243804D01*
X778847Y248804D01*
X784449D01*
Y243110D01*
X855315D01*
Y306102D01*
X845143D01*
X840551Y307087D01*
Y364945D01*
X875349D01*
X890536Y349758D01*
D02*
G37*
G36*
X886541Y203287D02*
X888499Y198567D01*
X887352Y196850D01*
X907480D01*
Y192913D01*
X911417D01*
Y182798D01*
X918307D01*
X921102Y183354D01*
X924673Y181411D01*
X926102Y180176D01*
Y175118D01*
X931160D01*
X932395Y173689D01*
X934338Y170118D01*
X933782Y167323D01*
Y160433D01*
X943898D01*
Y156496D01*
X947835D01*
Y136368D01*
X951050Y138517D01*
X956430D01*
X956982Y132157D01*
X936220Y111394D01*
X931102D01*
Y131890D01*
X867299D01*
Y203567D01*
X886284D01*
X886541Y203287D01*
D02*
G37*
G36*
X1216362Y185683D02*
Y179402D01*
X1217049Y175945D01*
X1217502Y175268D01*
X1217520Y170275D01*
X1217520Y170275D01*
X1217520Y170275D01*
Y155724D01*
X1201772D01*
X1197547Y154884D01*
X1193966Y152491D01*
X1162470Y120995D01*
X1160077Y117413D01*
X1159237Y113189D01*
Y80709D01*
X1122047D01*
Y118968D01*
X1122333D01*
X1125790Y119656D01*
X1128720Y121614D01*
X1149649Y142543D01*
X1163089D01*
X1166545Y143231D01*
X1169476Y145188D01*
X1211111Y186824D01*
X1211362Y187200D01*
X1216362Y185683D01*
D02*
G37*
G36*
X1477362Y227362D02*
Y116141D01*
X1481690Y111813D01*
Y106321D01*
X1484388Y99809D01*
X1489371Y94826D01*
X1489422Y94569D01*
X1485218Y90365D01*
X1482521Y83853D01*
Y76805D01*
X1485218Y70293D01*
X1490202Y65310D01*
X1496714Y62613D01*
X1503762D01*
X1510273Y65310D01*
X1515257Y70293D01*
X1516834Y74100D01*
X1516992Y74206D01*
X1522765D01*
X1538737Y58233D01*
X1542318Y55840D01*
X1546543Y55000D01*
X1557087D01*
Y53244D01*
X1590457D01*
X1599617Y44083D01*
X1597704Y39464D01*
X1557087D01*
Y35739D01*
X1505410D01*
X1500732Y40417D01*
X1497150Y42810D01*
X1492926Y43651D01*
X1473530D01*
X1472019Y45162D01*
X1465507Y47859D01*
X1458459D01*
X1451947Y45162D01*
X1446964Y40178D01*
X1444267Y33667D01*
Y26619D01*
X1446964Y20107D01*
X1451947Y15123D01*
X1458459Y12426D01*
X1465507D01*
X1465833Y12209D01*
Y6450D01*
X1468530Y-62D01*
X1473514Y-5045D01*
X1480025Y-7743D01*
X1481186Y-9480D01*
X1479964Y-12432D01*
Y-14882D01*
X1474981Y-18230D01*
X1467933D01*
X1461421Y-20927D01*
X1456437Y-25911D01*
X1453740Y-32422D01*
Y-39470D01*
X1456437Y-45982D01*
X1461421Y-50965D01*
X1467933Y-53663D01*
X1474981D01*
X1481492Y-50965D01*
X1482825Y-49632D01*
X1546484D01*
X1550708Y-48792D01*
X1554289Y-46399D01*
X1555295Y-45394D01*
X1590551D01*
X1591618Y-45181D01*
X1622047D01*
Y-58961D01*
X1557087D01*
Y-62060D01*
X1550980D01*
X1546755Y-62900D01*
X1543174Y-65293D01*
X1523452Y-85015D01*
X1461877D01*
X1461877Y-85015D01*
X1460828Y-82484D01*
X1455845Y-77500D01*
X1449333Y-74803D01*
X1442285D01*
X1435773Y-77500D01*
X1432909Y-80365D01*
X1426424Y-80952D01*
X1407765Y-62292D01*
X1406752Y-59846D01*
X1405512Y-58606D01*
Y47780D01*
X1407736Y50004D01*
X1410433Y56515D01*
Y63563D01*
X1407736Y70075D01*
X1405512Y72299D01*
Y163921D01*
X1406752Y165161D01*
X1409449Y171673D01*
Y178721D01*
X1406752Y185232D01*
X1405512Y186472D01*
Y187992D01*
X1368067Y225437D01*
Y226906D01*
X1365370Y233417D01*
X1360386Y238401D01*
X1353874Y241098D01*
X1352406D01*
X1314961Y278543D01*
Y279528D01*
X1313976D01*
X1280512Y312992D01*
X987452D01*
X983268Y314961D01*
Y364945D01*
X1019685D01*
X1023909Y365786D01*
X1027491Y368179D01*
X1029883Y371760D01*
X1030724Y375984D01*
X1029883Y380209D01*
X1027491Y383790D01*
X1023909Y386183D01*
X1019685Y387023D01*
X983268D01*
Y437992D01*
X1266732D01*
X1477362Y227362D01*
D02*
G37*
G36*
X761574Y38374D02*
X761959Y37798D01*
X770161Y29596D01*
X773742Y27203D01*
X777967Y26363D01*
X785433D01*
Y9843D01*
X799985D01*
Y-3937D01*
X800825Y-8161D01*
X803218Y-11743D01*
X807859Y-16383D01*
Y-23622D01*
X791339D01*
Y-78740D01*
X791338D01*
X789635Y-83034D01*
X755548D01*
Y35458D01*
X760548Y38799D01*
X761574Y38374D01*
D02*
G37*
G36*
X952819Y-75625D02*
X954559Y-79827D01*
X959543Y-84811D01*
X966054Y-87508D01*
X973102D01*
X974106Y-87092D01*
X977590Y-90575D01*
X980520Y-92533D01*
X983976Y-93221D01*
X1008352D01*
X1011808Y-92533D01*
X1014738Y-90575D01*
X1018197Y-87116D01*
X1020155Y-84186D01*
X1020843Y-80730D01*
Y-80709D01*
X1043307D01*
Y-79803D01*
X1052095D01*
X1054166Y-84803D01*
X1045619Y-93351D01*
X1043008Y-97258D01*
X1042091Y-101866D01*
X1042091Y-101867D01*
Y-110236D01*
X1028543D01*
Y-125753D01*
X978413D01*
X960287Y-107626D01*
X956380Y-105016D01*
X951772Y-104099D01*
X951771Y-104099D01*
X934055D01*
Y-84646D01*
X934055Y-84646D01*
X934055D01*
X934055Y-84646D01*
X935677Y-80318D01*
X937561D01*
X944073Y-77620D01*
X947243Y-74451D01*
X952819Y-75625D01*
D02*
G37*
G36*
X1142433Y-84811D02*
X1148945Y-87508D01*
X1155993D01*
X1156997Y-87092D01*
X1204551Y-134646D01*
Y-192606D01*
X1180571Y-216585D01*
X1176937D01*
X1173679Y-213327D01*
X1167167Y-210630D01*
X1163335D01*
X1162401Y-209233D01*
Y-202185D01*
X1159704Y-195673D01*
X1158987Y-194956D01*
Y-143730D01*
X1158987Y-143730D01*
X1158071Y-139121D01*
X1155460Y-135214D01*
X1155460Y-135214D01*
X1148541Y-128296D01*
X1144634Y-125685D01*
X1140026Y-124769D01*
X1140026Y-124769D01*
X1132874D01*
Y-109252D01*
X1081693D01*
Y-109252D01*
X1079724Y-110236D01*
X1069866D01*
X1067794Y-105236D01*
X1079381Y-93649D01*
X1081992Y-89742D01*
X1081993Y-89734D01*
X1087402Y-88175D01*
X1092814Y-93587D01*
X1095744Y-95545D01*
X1099201Y-96232D01*
X1099201Y-96232D01*
X1119799D01*
X1123256Y-95545D01*
X1126186Y-93587D01*
X1135162Y-84611D01*
X1142021Y-84399D01*
X1142433Y-84811D01*
D02*
G37*
G36*
X795167Y136509D02*
X793253Y131890D01*
X785433D01*
Y76772D01*
X930929D01*
Y64961D01*
X879921D01*
Y64055D01*
X862205D01*
Y37402D01*
Y10748D01*
X879921D01*
Y9843D01*
X893469D01*
Y-40288D01*
X888138Y-45619D01*
X885528Y-49526D01*
X884611Y-54134D01*
X884611Y-54134D01*
Y-84646D01*
X863189D01*
Y-99152D01*
X858189Y-101223D01*
X843528Y-86561D01*
X839621Y-83951D01*
X838561Y-83740D01*
X839053Y-78740D01*
X846457D01*
Y-23622D01*
X829936D01*
Y-11811D01*
X829096Y-7587D01*
X826703Y-4005D01*
X822062Y635D01*
Y9843D01*
X836614D01*
Y10748D01*
X854331D01*
Y37402D01*
Y64055D01*
X836614D01*
Y64961D01*
X785433D01*
X785433Y64961D01*
X781030Y66402D01*
X777163Y70269D01*
X770652Y72966D01*
X763604D01*
X760548Y71700D01*
X755548Y75041D01*
Y169056D01*
X760548Y171127D01*
X795167Y136509D01*
D02*
G37*
G36*
X1234020Y14195D02*
Y-102269D01*
X1229020Y-104340D01*
X1199295Y-74615D01*
X1199711Y-73611D01*
Y-66563D01*
X1197014Y-60051D01*
X1192030Y-55068D01*
X1185519Y-52370D01*
X1178471D01*
X1177467Y-52786D01*
X1167417Y-42736D01*
X1164486Y-40778D01*
X1161417Y-40167D01*
Y811D01*
X1210362D01*
X1213819Y1498D01*
X1216749Y3456D01*
X1229401Y16108D01*
X1234020Y14195D01*
D02*
G37*
G36*
X1028543Y-165354D02*
X1079724D01*
Y-165354D01*
X1081693Y-164370D01*
X1132874D01*
X1134902Y-168530D01*
Y-173302D01*
X1131968Y-177087D01*
X1111220D01*
Y-203740D01*
Y-230394D01*
X1131968D01*
Y-224580D01*
X1136968Y-221689D01*
X1141161Y-223425D01*
X1144993D01*
X1145927Y-224822D01*
Y-231870D01*
X1148624Y-238382D01*
X1153607Y-243366D01*
X1160119Y-246063D01*
X1161289D01*
X1163718Y-249805D01*
X1162208Y-251969D01*
X1158878D01*
X1152366Y-254666D01*
X1149389Y-257643D01*
X1109469D01*
X1107477Y-255650D01*
X1100965Y-252953D01*
X1093917D01*
X1087405Y-255650D01*
X1083936Y-259119D01*
X1036142D01*
X1033658Y-256634D01*
X1027146Y-253937D01*
X1022936D01*
X985468Y-216469D01*
Y-149838D01*
X1028543D01*
Y-165354D01*
D02*
G37*
%LPC*%
G36*
X1115248Y530591D02*
X1115158D01*
Y503937D01*
X1141811D01*
Y504027D01*
X1139726Y511808D01*
X1135699Y518783D01*
X1130004Y524479D01*
X1123028Y528506D01*
X1115248Y530591D01*
D02*
G37*
G36*
X1107284D02*
X1107193D01*
X1099413Y528506D01*
X1092438Y524479D01*
X1086742Y518783D01*
X1082715Y511808D01*
X1080630Y504027D01*
Y503937D01*
X1107284D01*
Y530591D01*
D02*
G37*
G36*
X957768D02*
X957677D01*
Y503937D01*
X984331D01*
Y504027D01*
X982246Y511808D01*
X978219Y518783D01*
X972523Y524479D01*
X965548Y528506D01*
X957768Y530591D01*
D02*
G37*
G36*
X949803D02*
X949713D01*
X941933Y528506D01*
X934957Y524479D01*
X929262Y518783D01*
X925234Y511808D01*
X923150Y504027D01*
Y503937D01*
X949803D01*
Y530591D01*
D02*
G37*
G36*
X1141811Y496063D02*
X1115158D01*
Y469409D01*
X1115248D01*
X1123028Y471494D01*
X1130004Y475522D01*
X1135699Y481217D01*
X1139726Y488192D01*
X1141811Y495973D01*
Y496063D01*
D02*
G37*
G36*
X1107284D02*
X1080630D01*
Y495973D01*
X1082715Y488192D01*
X1086742Y481217D01*
X1092438Y475522D01*
X1099413Y471494D01*
X1107193Y469409D01*
X1107284D01*
Y496063D01*
D02*
G37*
G36*
X984331D02*
X957677D01*
Y469409D01*
X957768D01*
X965548Y471494D01*
X972523Y475522D01*
X978219Y481217D01*
X982246Y488192D01*
X984331Y495973D01*
Y496063D01*
D02*
G37*
G36*
X949803D02*
X923150D01*
Y495973D01*
X925234Y488192D01*
X929262Y481217D01*
X934957Y475522D01*
X941933Y471494D01*
X949713Y469409D01*
X949803D01*
Y496063D01*
D02*
G37*
G36*
X1036627Y531496D02*
X1028334D01*
X1020323Y529350D01*
X1013141Y525203D01*
X1007277Y519339D01*
X1003131Y512157D01*
X1000984Y504147D01*
Y495853D01*
X1003131Y487843D01*
X1007277Y480661D01*
X1013141Y474797D01*
X1020323Y470650D01*
X1028334Y468504D01*
X1036627D01*
X1044637Y470650D01*
X1051819Y474797D01*
X1057684Y480661D01*
X1061830Y487843D01*
X1063976Y495853D01*
Y504147D01*
X1061830Y512157D01*
X1057684Y519339D01*
X1051819Y525203D01*
X1044637Y529350D01*
X1036627Y531496D01*
D02*
G37*
G36*
X879146D02*
X870854D01*
X862843Y529350D01*
X855661Y525203D01*
X849797Y519339D01*
X845650Y512157D01*
X843504Y504147D01*
Y495853D01*
X845650Y487843D01*
X849797Y480661D01*
X855661Y474797D01*
X862843Y470650D01*
X870854Y468504D01*
X879146D01*
X887157Y470650D01*
X894339Y474797D01*
X900203Y480661D01*
X904350Y487843D01*
X906496Y495853D01*
Y504147D01*
X904350Y512157D01*
X900203Y519339D01*
X894339Y525203D01*
X887157Y529350D01*
X879146Y531496D01*
D02*
G37*
G36*
X800406D02*
X792113D01*
X784103Y529350D01*
X776921Y525203D01*
X771057Y519339D01*
X766910Y512157D01*
X764764Y504147D01*
Y495853D01*
X766910Y487843D01*
X771057Y480661D01*
X776921Y474797D01*
X784103Y470650D01*
X792113Y468504D01*
X800406D01*
X808417Y470650D01*
X815599Y474797D01*
X821463Y480661D01*
X825609Y487843D01*
X827756Y495853D01*
Y504147D01*
X825609Y512157D01*
X821463Y519339D01*
X815599Y525203D01*
X808417Y529350D01*
X800406Y531496D01*
D02*
G37*
G36*
X749016D02*
X686024D01*
Y468504D01*
X749016D01*
Y531496D01*
D02*
G37*
G36*
X151724Y193964D02*
X143850D01*
Y172732D01*
X176110D01*
X174977Y178427D01*
X169521Y186592D01*
X161356Y192048D01*
X151724Y193964D01*
D02*
G37*
G36*
X-34496D02*
X-42370D01*
Y172732D01*
X-10111D01*
X-11243Y178427D01*
X-16699Y186592D01*
X-24864Y192048D01*
X-34496Y193964D01*
D02*
G37*
G36*
X135976D02*
X128102D01*
X118471Y192048D01*
X110305Y186592D01*
X104850Y178427D01*
X103717Y172732D01*
X135976D01*
Y193964D01*
D02*
G37*
G36*
X-50244D02*
X-58118D01*
X-67750Y192048D01*
X-75915Y186592D01*
X-81371Y178427D01*
X-82504Y172732D01*
X-50244D01*
Y193964D01*
D02*
G37*
G36*
X1578740Y170644D02*
X1557992D01*
Y146352D01*
X1578740D01*
Y170644D01*
D02*
G37*
G36*
X176110Y164858D02*
X143850D01*
Y143627D01*
X151724D01*
X161356Y145542D01*
X169521Y150998D01*
X174977Y159164D01*
X176110Y164858D01*
D02*
G37*
G36*
X135976D02*
X103717D01*
X104850Y159164D01*
X110305Y150998D01*
X118471Y145542D01*
X128102Y143627D01*
X135976D01*
Y164858D01*
D02*
G37*
G36*
X-10111D02*
X-42370D01*
Y143627D01*
X-34496D01*
X-24864Y145542D01*
X-16699Y150998D01*
X-11243Y159164D01*
X-10111Y164858D01*
D02*
G37*
G36*
X-50244D02*
X-82504D01*
X-81371Y159164D01*
X-75915Y150998D01*
X-67750Y145542D01*
X-58118Y143627D01*
X-50244D01*
Y164858D01*
D02*
G37*
G36*
X78772Y9622D02*
X58023D01*
Y4622D01*
X78772D01*
Y9622D01*
D02*
G37*
G36*
X-43276D02*
X-64024D01*
Y4622D01*
X-43276D01*
Y9622D01*
D02*
G37*
G36*
X50150D02*
X29402D01*
Y4622D01*
X50150D01*
Y9622D01*
D02*
G37*
G36*
X-71898D02*
X-92646D01*
Y4622D01*
X-71898D01*
Y9622D01*
D02*
G37*
G36*
X78772Y-3252D02*
X58023D01*
Y-8252D01*
X78772D01*
Y-3252D01*
D02*
G37*
G36*
X50150D02*
X29402D01*
Y-8252D01*
X50150D01*
Y-3252D01*
D02*
G37*
G36*
X-43276D02*
X-64024D01*
Y-8252D01*
X-43276D01*
Y-3252D01*
D02*
G37*
G36*
X-71898D02*
X-92646D01*
Y-8252D01*
X-71898D01*
Y-3252D01*
D02*
G37*
G36*
X440945Y-6811D02*
Y-29527D01*
X461693D01*
Y-6811D01*
X440945D01*
D02*
G37*
G36*
X461693Y-37401D02*
X440945D01*
Y-60118D01*
X461693D01*
Y-37401D01*
D02*
G37*
G36*
X845551Y-130827D02*
X822835D01*
Y-153543D01*
X845551D01*
Y-130827D01*
D02*
G37*
G36*
X814961D02*
X792244D01*
Y-153543D01*
X814961D01*
Y-130827D01*
D02*
G37*
G36*
X151724Y-142256D02*
X143850D01*
Y-163488D01*
X176110D01*
X174977Y-157793D01*
X169521Y-149628D01*
X161356Y-144172D01*
X151724Y-142256D01*
D02*
G37*
G36*
X-34496D02*
X-42370D01*
Y-163488D01*
X-10111D01*
X-11243Y-157793D01*
X-16699Y-149628D01*
X-24864Y-144172D01*
X-34496Y-142256D01*
D02*
G37*
G36*
X135976D02*
X128102D01*
X118471Y-144172D01*
X110305Y-149628D01*
X104850Y-157793D01*
X103717Y-163488D01*
X135976D01*
Y-142256D01*
D02*
G37*
G36*
X-50244D02*
X-58118D01*
X-67750Y-144172D01*
X-75915Y-149628D01*
X-81371Y-157793D01*
X-82504Y-163488D01*
X-50244D01*
Y-142256D01*
D02*
G37*
G36*
X1578740Y-152073D02*
X1557992D01*
Y-176364D01*
X1578740D01*
Y-152073D01*
D02*
G37*
G36*
X845551Y-161417D02*
X822835D01*
Y-184134D01*
X845551D01*
Y-161417D01*
D02*
G37*
G36*
X814961D02*
X792244D01*
Y-184134D01*
X814961D01*
Y-161417D01*
D02*
G37*
G36*
X933149Y-160354D02*
X902559D01*
Y-187008D01*
X933149D01*
Y-160354D01*
D02*
G37*
G36*
X894685D02*
X864095D01*
Y-187008D01*
X894685D01*
Y-160354D01*
D02*
G37*
G36*
X176110Y-171362D02*
X143850D01*
Y-192594D01*
X151724D01*
X161356Y-190678D01*
X169521Y-185222D01*
X174977Y-177057D01*
X176110Y-171362D01*
D02*
G37*
G36*
X135976D02*
X103717D01*
X104850Y-177057D01*
X110305Y-185222D01*
X118471Y-190678D01*
X128102Y-192594D01*
X135976D01*
Y-171362D01*
D02*
G37*
G36*
X-10111D02*
X-42370D01*
Y-192594D01*
X-34496D01*
X-24864Y-190678D01*
X-16699Y-185222D01*
X-11243Y-177057D01*
X-10111Y-171362D01*
D02*
G37*
G36*
X-50244D02*
X-82504D01*
X-81371Y-177057D01*
X-75915Y-185222D01*
X-67750Y-190678D01*
X-58118Y-192594D01*
X-50244D01*
Y-171362D01*
D02*
G37*
G36*
X933149Y-194882D02*
X902559D01*
Y-221535D01*
X933149D01*
Y-194882D01*
D02*
G37*
G36*
X894685D02*
X864095D01*
Y-221535D01*
X894685D01*
Y-194882D01*
D02*
G37*
G36*
X585217Y-221457D02*
X578169D01*
X571657Y-224154D01*
X566674Y-229138D01*
X563976Y-235649D01*
Y-242697D01*
X565368Y-246056D01*
X564004Y-247645D01*
X561335Y-249386D01*
X555689Y-247047D01*
X548641D01*
X542130Y-249744D01*
X537146Y-254728D01*
X534449Y-261240D01*
Y-268288D01*
X537146Y-274799D01*
X542130Y-279783D01*
X548641Y-282480D01*
X555689D01*
X562201Y-279783D01*
X565178Y-276806D01*
X577667D01*
X582339Y-277599D01*
Y-332716D01*
X633520D01*
Y-277599D01*
X619972D01*
Y-271683D01*
X619972Y-271683D01*
X619055Y-267074D01*
X616444Y-263167D01*
X616444Y-263167D01*
X609526Y-256248D01*
X609476Y-256216D01*
X610993Y-251216D01*
X630838D01*
X652221Y-272599D01*
X651158Y-277599D01*
X639425D01*
Y-332717D01*
X690606D01*
Y-277599D01*
X677058D01*
Y-268362D01*
X676141Y-263754D01*
X673531Y-259847D01*
X673531Y-259847D01*
X644342Y-230658D01*
X640435Y-228048D01*
X635827Y-227131D01*
X635826Y-227131D01*
X594705D01*
X591729Y-224154D01*
X585217Y-221457D01*
D02*
G37*
G36*
X722028Y-243110D02*
X714980D01*
X708468Y-245808D01*
X703485Y-250791D01*
X700788Y-257303D01*
Y-264351D01*
X703485Y-270862D01*
X705221Y-272599D01*
X703466Y-277599D01*
X696512D01*
Y-332716D01*
X747693D01*
Y-277599D01*
X733542D01*
X731787Y-272599D01*
X733523Y-270862D01*
X736221Y-264351D01*
Y-257303D01*
X733523Y-250791D01*
X728540Y-245808D01*
X722028Y-243110D01*
D02*
G37*
G36*
X1160095Y-345433D02*
X1139347D01*
Y-368150D01*
X1160095D01*
Y-345433D01*
D02*
G37*
G36*
X1047969D02*
X1027221D01*
Y-368150D01*
X1047969D01*
Y-345433D01*
D02*
G37*
G36*
X1019347D02*
X998599D01*
Y-368150D01*
X1019347D01*
Y-345433D01*
D02*
G37*
G36*
X746787D02*
X726039D01*
Y-368150D01*
X746787D01*
Y-345433D01*
D02*
G37*
G36*
X718165D02*
X697417D01*
Y-368150D01*
X718165D01*
Y-345433D01*
D02*
G37*
G36*
X632614D02*
X611866D01*
Y-368150D01*
X632614D01*
Y-345433D01*
D02*
G37*
G36*
X603992D02*
X583244D01*
Y-368150D01*
X603992D01*
Y-345433D01*
D02*
G37*
G36*
X689701Y-345433D02*
X668953D01*
Y-368150D01*
X689701D01*
Y-345433D01*
D02*
G37*
G36*
X661079D02*
X640331D01*
Y-368150D01*
X661079D01*
Y-345433D01*
D02*
G37*
G36*
X1125725Y-345433D02*
X1104976D01*
Y-368150D01*
X1125725D01*
Y-345433D01*
D02*
G37*
G36*
X1097102D02*
X1076354D01*
Y-368150D01*
X1097102D01*
Y-345433D01*
D02*
G37*
G36*
X1160095Y-376024D02*
X1139347D01*
Y-398740D01*
X1160095D01*
Y-376024D01*
D02*
G37*
G36*
X1125725Y-376024D02*
X1104976D01*
Y-398740D01*
X1125725D01*
Y-376024D01*
D02*
G37*
G36*
X1097102D02*
X1076354D01*
Y-398740D01*
X1097102D01*
Y-376024D01*
D02*
G37*
G36*
X1047969Y-376024D02*
X1027221D01*
Y-398740D01*
X1047969D01*
Y-376024D01*
D02*
G37*
G36*
X1019347D02*
X998599D01*
Y-398740D01*
X1019347D01*
Y-376024D01*
D02*
G37*
G36*
X746787D02*
X726039D01*
Y-398740D01*
X746787D01*
Y-376024D01*
D02*
G37*
G36*
X718165D02*
X697417D01*
Y-398740D01*
X718165D01*
Y-376024D01*
D02*
G37*
G36*
X632614D02*
X611866D01*
Y-398740D01*
X632614D01*
Y-376024D01*
D02*
G37*
G36*
X603992D02*
X583244D01*
Y-398740D01*
X603992D01*
Y-376024D01*
D02*
G37*
G36*
X689701Y-376024D02*
X668953D01*
Y-398740D01*
X689701D01*
Y-376024D01*
D02*
G37*
G36*
X661079D02*
X640331D01*
Y-398740D01*
X661079D01*
Y-376024D01*
D02*
G37*
G36*
X1284111Y-344528D02*
X1185685D01*
Y-345433D01*
X1167969D01*
Y-372087D01*
Y-398740D01*
X1185685D01*
Y-399646D01*
X1192886D01*
X1196227Y-404646D01*
X1194882Y-407893D01*
Y-414941D01*
X1197579Y-421453D01*
X1202563Y-426437D01*
X1209074Y-429134D01*
X1216122D01*
X1222634Y-426437D01*
X1227618Y-421453D01*
X1230315Y-414941D01*
Y-407893D01*
X1228970Y-404646D01*
X1232311Y-399646D01*
X1238162D01*
X1241503Y-404646D01*
X1240158Y-407893D01*
Y-414941D01*
X1242855Y-421453D01*
X1247838Y-426437D01*
X1254350Y-429134D01*
X1261398D01*
X1267910Y-426437D01*
X1272893Y-421453D01*
X1275591Y-414941D01*
Y-407893D01*
X1274245Y-404646D01*
X1277586Y-399646D01*
X1284111D01*
Y-344528D01*
D02*
G37*
G36*
X646338Y261496D02*
X612205D01*
Y223426D01*
X646338D01*
Y261496D01*
D02*
G37*
G36*
X604331D02*
X570197D01*
Y223426D01*
X604331D01*
Y261496D01*
D02*
G37*
G36*
X1246063Y278622D02*
X1229252D01*
Y261811D01*
X1246063D01*
Y278622D01*
D02*
G37*
G36*
X815945Y230394D02*
X785354D01*
Y203740D01*
X815945D01*
Y230394D01*
D02*
G37*
G36*
X903543Y188976D02*
X887352D01*
X889501Y185761D01*
X892782Y183568D01*
X896654Y182798D01*
X903543D01*
Y188976D01*
D02*
G37*
G36*
X939961Y152559D02*
X933782D01*
Y145669D01*
X934552Y141798D01*
X936745Y138517D01*
X939961Y136368D01*
Y152559D01*
D02*
G37*
G36*
X1050197Y-178071D02*
X1029449D01*
Y-200787D01*
X1050197D01*
Y-178071D01*
D02*
G37*
G36*
Y-208661D02*
X1029449D01*
Y-231378D01*
X1050197D01*
Y-208661D01*
D02*
G37*
G36*
X1082599Y-177086D02*
X1078819Y-178071D01*
X1078819Y-178071D01*
X1058071D01*
Y-204724D01*
Y-231378D01*
X1078006D01*
X1078819Y-231378D01*
X1078819Y-231378D01*
X1082599Y-230394D01*
X1082599Y-230394D01*
X1103346D01*
Y-203740D01*
Y-177087D01*
X1083411D01*
X1082599Y-177086D01*
X1082599Y-177086D01*
D02*
G37*
%LPD*%
D10*
X1019685Y375984D02*
D03*
X799213D02*
D03*
D11*
X811024Y37402D02*
D03*
Y104331D02*
D03*
X1080709Y265748D02*
D03*
Y198819D02*
D03*
X437008Y33465D02*
D03*
Y-33465D02*
D03*
X722102Y-305158D02*
D03*
Y-372087D02*
D03*
X665016Y-305158D02*
D03*
Y-372087D02*
D03*
X607929Y-305158D02*
D03*
Y-372087D02*
D03*
X1258520D02*
D03*
Y-305158D02*
D03*
X1211276Y-372087D02*
D03*
Y-305158D02*
D03*
X1164032D02*
D03*
Y-372087D02*
D03*
X1101040D02*
D03*
Y-305158D02*
D03*
X1023284Y-372087D02*
D03*
Y-305158D02*
D03*
X905512Y104331D02*
D03*
Y37402D02*
D03*
X1139764Y198819D02*
D03*
Y265748D02*
D03*
X1107283Y-136811D02*
D03*
Y-203740D02*
D03*
X1054134Y-137795D02*
D03*
Y-204724D02*
D03*
X858268Y37402D02*
D03*
Y104331D02*
D03*
D12*
X819882Y274606D02*
D03*
Y199803D02*
D03*
X898622Y-116142D02*
D03*
Y-190945D02*
D03*
D13*
X625984Y-125984D02*
D03*
Y70866D02*
D03*
D14*
X1592520Y-111126D02*
D03*
Y-91441D02*
D03*
Y-71756D02*
D03*
Y-52071D02*
D03*
Y-32386D02*
D03*
Y-12701D02*
D03*
Y6984D02*
D03*
Y26669D02*
D03*
Y46354D02*
D03*
Y66039D02*
D03*
Y85724D02*
D03*
Y105409D02*
D03*
D15*
X1582677Y142415D02*
D03*
Y-148136D02*
D03*
D16*
X1250000Y198819D02*
D03*
Y257874D02*
D03*
X1293307Y198819D02*
D03*
Y257874D02*
D03*
D17*
X1245079Y144685D02*
D03*
X1312008D02*
D03*
X1245079Y98425D02*
D03*
X1312008D02*
D03*
D18*
X54087Y685D02*
D03*
X-67961D02*
D03*
D19*
X234401Y108953D02*
D03*
Y89268D02*
D03*
Y69583D02*
D03*
Y49898D02*
D03*
Y30213D02*
D03*
Y10528D02*
D03*
Y-9157D02*
D03*
Y-28843D02*
D03*
Y-48528D02*
D03*
Y-68213D02*
D03*
Y-87898D02*
D03*
Y-107583D02*
D03*
D20*
X691929Y180118D02*
D03*
Y199803D02*
D03*
Y219488D02*
D03*
Y239173D02*
D03*
Y258858D02*
D03*
X524606Y180118D02*
D03*
Y199803D02*
D03*
Y219488D02*
D03*
Y239173D02*
D03*
Y258858D02*
D03*
D21*
X608268Y219488D02*
D03*
D22*
X818898Y-51181D02*
D03*
Y-157480D02*
D03*
D23*
X1061024Y19685D02*
D03*
D24*
X1011811Y98425D02*
D03*
X1031496D02*
D03*
X1051181D02*
D03*
X1070866D02*
D03*
X1090551D02*
D03*
X1110236D02*
D03*
Y-59055D02*
D03*
X1090551D02*
D03*
X1070866D02*
D03*
X1051181D02*
D03*
X1031496D02*
D03*
X1011811D02*
D03*
D25*
X1139764Y68898D02*
D03*
Y49213D02*
D03*
Y29527D02*
D03*
Y9842D02*
D03*
Y-9843D02*
D03*
Y-29528D02*
D03*
X982284D02*
D03*
Y-9843D02*
D03*
Y9842D02*
D03*
Y29527D02*
D03*
Y49213D02*
D03*
Y68898D02*
D03*
D26*
X963583Y212598D02*
D03*
D27*
X943898Y268701D02*
D03*
X963583D02*
D03*
X983268D02*
D03*
Y156496D02*
D03*
X963583D02*
D03*
X943898D02*
D03*
D28*
X1019685Y232284D02*
D03*
Y212598D02*
D03*
Y192913D02*
D03*
X907480D02*
D03*
Y212598D02*
D03*
Y232284D02*
D03*
D29*
X1051181Y-59055D02*
Y9842D01*
X1061024Y19685D01*
X1139764Y29527D02*
X1140748Y30512D01*
X1166512D01*
X1208661Y72661D02*
Y92659D01*
X1166512Y30512D02*
X1208661Y72661D01*
X1140748Y50197D02*
X1158028D01*
X1139764Y49213D02*
X1140748Y50197D01*
X1158028D02*
X1170276Y62444D01*
X185189Y-109551D02*
Y-78055D01*
Y79425D02*
Y110921D01*
X1214427Y98425D02*
X1245079D01*
X1208661Y92659D02*
X1214427Y98425D01*
X1312008Y144685D02*
Y180118D01*
X1293307Y198819D02*
X1312008Y180118D01*
X1170276Y113189D02*
X1201772Y144685D01*
X1245079D01*
X1170276Y62444D02*
Y113189D01*
X1500837Y24700D02*
X1590551D01*
X1492926Y32612D02*
X1500837Y24700D01*
X1464452Y32612D02*
X1492926D01*
X1461983Y30143D02*
X1464452Y32612D01*
X1528024Y-96054D02*
X1550980Y-73099D01*
X1567913D02*
X1569256Y-71756D01*
X1536178Y-115739D02*
X1559133Y-92784D01*
X1427568Y-115739D02*
X1536178D01*
X1591177Y-92784D02*
X1592520Y-91441D01*
X1458464Y-96054D02*
X1528024D01*
X1569256Y-71756D02*
X1592520D01*
X1550980Y-73099D02*
X1567913D01*
X1559133Y-92784D02*
X1591177D01*
X1475185Y-35946D02*
X1477833Y-38593D01*
X1471457Y-35946D02*
X1475185D01*
X1477833Y-38593D02*
X1546484D01*
X1448446Y-95156D02*
X1457566D01*
X1445809Y-92520D02*
X1448446Y-95156D01*
X1457566D02*
X1458464Y-96054D01*
X214716Y-46559D02*
X216685Y-48528D01*
X185189Y-46559D02*
X214716D01*
X216685Y-48528D02*
X234401D01*
X303562Y103876D02*
X324349D01*
X234401Y69583D02*
X252540D01*
X269831Y70145D02*
X303562Y103876D01*
X253102Y70145D02*
X269831D01*
X252540Y69583D02*
X253102Y70145D01*
X261678Y89831D02*
X313594Y141747D01*
X234401Y89268D02*
X234964Y89831D01*
X261678D01*
X324349Y103876D02*
X326772Y106299D01*
X349408Y32482D02*
X350394Y31496D01*
X315492Y32482D02*
X349408D01*
X234701Y30512D02*
X313522D01*
X315492Y32482D01*
X298747Y-4921D02*
X306619Y-12793D01*
X279993Y-4921D02*
X298747D01*
X323043Y-19685D02*
X326772D01*
X316151Y-12793D02*
X323043Y-19685D01*
X234401Y10528D02*
X267603D01*
X306619Y-12793D02*
X316151D01*
X267603Y10528D02*
X271840Y14764D01*
X306901D01*
X234401Y-9157D02*
X275757D01*
X322445Y12268D02*
X324869Y9844D01*
X306901Y14764D02*
X309396Y12268D01*
X322445D01*
X963583Y268701D02*
Y288007D01*
X952756Y298834D02*
X963583Y288007D01*
X937387Y298834D02*
X952756D01*
X983268Y268701D02*
Y296260D01*
X927404Y314582D02*
X964946D01*
X983268Y296260D01*
X917323Y324663D02*
Y358268D01*
Y324663D02*
X927404Y314582D01*
X937387Y298834D02*
X943898Y292323D01*
X920881Y298834D02*
X937387D01*
X943898Y268701D02*
Y292323D01*
X901575Y318140D02*
X920881Y298834D01*
X901575Y318140D02*
Y354331D01*
X917323Y358268D02*
X935039Y375984D01*
X1019685D01*
X799213D02*
X879921D01*
X901575Y354331D01*
X625984Y70866D02*
X641601Y55249D01*
X708661D01*
X769764Y45604D02*
Y52613D01*
X767128Y55249D02*
X769764Y52613D01*
X777967Y37402D02*
X811024D01*
X769764Y45604D02*
X777967Y37402D01*
X811024Y-3937D02*
Y37402D01*
X818898Y-51181D02*
Y-11811D01*
X811024Y-3937D02*
X818898Y-11811D01*
X422244Y207211D02*
X435505Y220472D01*
X483786D02*
X484394Y219865D01*
X435505Y220472D02*
X483786D01*
X484394Y219865D02*
X524230D01*
X524606Y219488D01*
X444882Y106299D02*
Y197835D01*
X437008Y33465D02*
Y91902D01*
X422244Y106666D02*
Y207211D01*
Y106666D02*
X437008Y91902D01*
X444882Y106299D02*
X480315Y70866D01*
X747484Y199803D02*
X811024Y136263D01*
X691929Y199803D02*
X747484D01*
X811024Y104331D02*
Y136263D01*
X480315Y70866D02*
X625984D01*
X756114Y236220D02*
X759842D01*
X691929Y219488D02*
X739381D01*
X756114Y236220D01*
X742126Y273622D02*
X818898D01*
X727739Y259235D02*
X742126Y273622D01*
X805118Y259842D02*
X818898Y273622D01*
X748032Y259842D02*
X805118D01*
X727739Y239550D02*
X748032Y259842D01*
X692306Y239550D02*
X727739D01*
X691929Y239173D02*
X692306Y239550D01*
Y259235D02*
X727739D01*
X691929Y258858D02*
X692306Y259235D01*
X214716Y47929D02*
X216685Y49898D01*
X234401D01*
X185189Y47929D02*
X214716D01*
X1392224Y60531D02*
X1392716Y60039D01*
X1392224Y60531D02*
Y174705D01*
X1508060Y-19685D02*
X1543121D01*
X1506967Y-18592D02*
X1508060Y-19685D01*
X1497680Y-15956D02*
X1500317Y-18592D01*
X1506967D01*
X1486186Y7337D02*
X1508876D01*
X1546484Y-38593D02*
X1550722Y-34355D01*
X1590551D01*
X1508876Y7337D02*
X1516214Y0D01*
X1541951Y6984D02*
X1592520D01*
X1516214Y0D02*
X1534967D01*
X1541951Y6984D01*
X1483549Y9974D02*
X1486186Y7337D01*
X1550105Y-12701D02*
X1592520D01*
X1543121Y-19685D02*
X1550105Y-12701D01*
X1590551Y24700D02*
X1592520Y26669D01*
X1510614Y82966D02*
X1512893Y85245D01*
X1535491Y104930D02*
X1554697Y85724D01*
X1509783Y107209D02*
X1512062Y104930D01*
X1499407Y109845D02*
X1502043Y107209D01*
X1509783D01*
X1512062Y104930D02*
X1535491D01*
X1527337Y85245D02*
X1546543Y66039D01*
X1500238Y80329D02*
X1502874Y82966D01*
X1554697Y85724D02*
X1592520D01*
X1512893Y85245D02*
X1527337D01*
X1502874Y82966D02*
X1510614D01*
X1546543Y66039D02*
X1592520D01*
X234401Y-28843D02*
X235043Y-28201D01*
X288728D01*
X289370Y-27559D01*
X234401Y30213D02*
X234701Y30512D01*
X275757Y-9157D02*
X279993Y-4921D01*
X1592520Y85724D02*
X1592520Y85724D01*
X1391732Y175197D02*
X1392224Y174705D01*
X1391732Y-184055D02*
Y-69882D01*
X1590551Y-34355D02*
X1592520Y-32386D01*
X273921Y-68213D02*
X295276Y-89567D01*
X235386Y-88882D02*
X262576D01*
X234401Y-68213D02*
X273921D01*
X262576Y-88882D02*
X292788Y-119094D01*
X295276D01*
X234401Y-87898D02*
X235386Y-88882D01*
X74953Y-112634D02*
X93783Y-93803D01*
X157630D01*
X155719Y63677D02*
X157630D01*
X129513Y89883D02*
X155719Y63677D01*
X111888Y89883D02*
X129513D01*
X109252Y92520D02*
X111888Y89883D01*
D30*
X951772Y-51985D02*
X983976Y-84189D01*
X1011811Y-80730D02*
Y-59055D01*
X1008352Y-84189D02*
X1011811Y-80730D01*
X983976Y-84189D02*
X1008352D01*
X1091988Y-79988D02*
Y-60492D01*
X1099201Y-87201D02*
X1119799D01*
X1090551Y-59055D02*
X1091988Y-60492D01*
Y-79988D02*
X1099201Y-87201D01*
X1131799Y-75201D02*
Y-61230D01*
X1119799Y-87201D02*
X1131799Y-75201D01*
Y-61230D02*
X1143907Y-49122D01*
X1181995Y-70087D02*
Y-70087D01*
X1161030Y-49122D02*
X1181995Y-70087D01*
X1143907Y-49122D02*
X1161030D01*
X1011811Y98425D02*
X1012000Y98614D01*
Y118703D02*
X1033108Y139811D01*
X1012000Y98614D02*
Y118703D01*
X1033108Y139811D02*
X1117441D01*
X1039741Y153915D02*
X1051181Y165354D01*
X1011000Y153915D02*
X1039741D01*
X988975Y131890D02*
X1011000Y153915D01*
X986191Y131890D02*
X988975D01*
X951772Y97470D02*
X986191Y131890D01*
X1117441Y139811D02*
X1141016Y163386D01*
X1031496Y98425D02*
Y121496D01*
X1038000Y128000D01*
X1122333D01*
X1145908Y151575D01*
X1031496Y98425D02*
X1034449Y101378D01*
X1139764Y9842D02*
X1210362D01*
X1278543Y78024D01*
Y164370D01*
X963583Y156496D02*
Y212598D01*
X943898Y156496D02*
X963583D01*
X1163118Y235236D02*
X1170992Y243110D01*
X1218504D01*
X1225394Y236221D01*
X1204724Y193210D02*
Y214341D01*
X1163089Y151575D02*
X1204724Y193210D01*
X1225394Y179402D02*
Y236221D01*
X1092284Y235236D02*
X1163118D01*
X1080709Y223661D02*
X1092284Y235236D01*
X1145908Y151575D02*
X1163089D01*
X1177165Y182354D02*
Y203740D01*
X1158197Y163386D02*
X1177165Y182354D01*
X1141016Y163386D02*
X1158197D01*
X1108268Y165354D02*
X1139764Y196850D01*
Y198819D01*
X1051181Y165354D02*
X1108268D01*
X1072086Y232284D02*
X1080709Y223661D01*
Y198819D02*
Y223661D01*
X1019685Y232284D02*
X1072086D01*
X1225394Y179402D02*
X1230583Y174213D01*
X1269417D01*
X1166372Y-225617D02*
X1184312D01*
X1163643Y-228346D02*
X1166372Y-225617D01*
X1184312D02*
X1213582Y-196347D01*
Y-130905D01*
X1225393Y-213767D02*
Y-113486D01*
X1186516Y-252644D02*
X1225393Y-213767D01*
X1181995Y-70087D02*
X1225393Y-113486D01*
X1181995Y-70087D02*
Y-70087D01*
X937427Y-54417D02*
X939961Y-51883D01*
X937427Y-60067D02*
Y-54417D01*
Y-60067D02*
X939961Y-62601D01*
Y17984D02*
X939961Y17984D01*
X939961Y-51883D02*
Y17984D01*
X939384Y-68828D02*
Y-63178D01*
X934037Y-62601D02*
X939961D01*
X939961Y17984D02*
Y102362D01*
X951772Y-51985D02*
Y97470D01*
X939961Y102362D02*
X983268Y145669D01*
X1269417Y174213D02*
X1275591Y168039D01*
Y167323D02*
Y168039D01*
Y167323D02*
X1278543Y164370D01*
X1152469Y-69791D02*
X1213582Y-130905D01*
X1039370Y212598D02*
X1051181Y200787D01*
Y181102D02*
Y200787D01*
X1019685Y212598D02*
X1039370D01*
X905512Y104331D02*
X907480Y102362D01*
X939961D01*
X1051181Y165354D02*
Y181102D01*
X1039370Y192913D02*
X1051181Y181102D01*
X1019685Y192913D02*
X1039370D01*
X983268Y145669D02*
Y156496D01*
X858268Y212598D02*
Y220472D01*
Y104331D02*
Y212598D01*
X870079Y232284D02*
X907480D01*
X858268Y220472D02*
X870079Y232284D01*
X858268Y212598D02*
X907480D01*
X216685Y-9157D02*
X234401D01*
X207827Y-6205D02*
X213732D01*
X216685Y-9157D01*
X185189Y16433D02*
X207827Y-6205D01*
D31*
X1054134Y-137795D02*
X1106299D01*
X975886D02*
X1054134D01*
Y-101866D01*
X1070866Y-85134D02*
Y-59055D01*
X1054134Y-101866D02*
X1070866Y-85134D01*
X1592520Y-138293D02*
Y-111126D01*
X1582677Y-148136D02*
X1592520Y-138293D01*
X1582677Y142415D02*
X1592520Y132573D01*
Y105409D02*
Y132573D01*
X973425Y-140256D02*
X975886Y-137795D01*
X973425D02*
X975886D01*
X973425Y-221457D02*
X1023622Y-271654D01*
X973425Y-221457D02*
Y-140256D01*
X1055118Y-203740D02*
X1107283D01*
X1054134Y-204724D02*
X1055118Y-203740D01*
X1250000Y257874D02*
X1293307D01*
X1098425Y265748D02*
X1157480D01*
X1159449Y263779D01*
X1202756D01*
X1288328Y66930D02*
X1338553D01*
X1363189Y91565D01*
Y207347D01*
X1350350Y220186D02*
X1363189Y207347D01*
X1350350Y220186D02*
Y223382D01*
X1246063Y24664D02*
X1288328Y66930D01*
X1246063Y-205709D02*
Y24664D01*
X1146945Y-203449D02*
Y-143730D01*
X1107283Y-136811D02*
X1140026D01*
X1146945Y-143730D01*
X1144685Y-205709D02*
X1146945Y-203449D01*
X896654Y-114173D02*
X898622Y-116142D01*
X896654Y-114173D02*
Y-54134D01*
X905512Y-45276D02*
Y37402D01*
X896654Y-54134D02*
X905512Y-45276D01*
X835012Y-95077D02*
X856077Y-116142D01*
X898622D01*
X951772D01*
X973425Y-137795D01*
X1107283Y-136811D02*
X1110236Y-133858D01*
X1250984Y199803D02*
Y216535D01*
X1250000Y198819D02*
X1250984Y199803D01*
Y216535D02*
X1260827Y226378D01*
X1313947D02*
X1345472Y194853D01*
Y120108D02*
Y194853D01*
X1337570Y112205D02*
X1345472Y120108D01*
X1260827Y226378D02*
X1313947D01*
X1325787Y112205D02*
X1337570D01*
X1312008Y98425D02*
X1325787Y112205D01*
X691929Y180118D02*
X736587D01*
X666338D02*
X691929D01*
X1023622Y-271654D02*
X1024114Y-271161D01*
X1096949D01*
X1097441Y-270669D01*
X743506Y-95077D02*
X835012D01*
X736587Y180118D02*
X743506Y173199D01*
Y-95077D02*
Y173199D01*
X478346Y258858D02*
X524606D01*
X476378Y256890D02*
X478346Y258858D01*
X472149Y173520D02*
Y195575D01*
Y173520D02*
X484252Y161417D01*
X647638D01*
X472149Y195575D02*
X474409Y197835D01*
X647638Y161417D02*
X666338Y180118D01*
X1095181Y-268409D02*
X1097441Y-270669D01*
X1099653Y-269685D02*
X1162402D01*
X1257874Y-372733D02*
X1258520Y-372087D01*
X1211276D02*
X1212598Y-373409D01*
X1261811Y-301866D02*
Y-268701D01*
X1258520Y-305158D02*
X1261811Y-301866D01*
X1210630Y-304512D02*
X1211276Y-305158D01*
X1210630Y-304512D02*
Y-269685D01*
X718504Y-301559D02*
Y-260827D01*
X552165Y-264764D02*
X601010D01*
X581693Y-239173D02*
X635827D01*
X665016Y-305158D02*
Y-268362D01*
X635827Y-239173D02*
X665016Y-268362D01*
X601010Y-264764D02*
X607929Y-271683D01*
Y-305158D02*
Y-271683D01*
X718504Y-301559D02*
X722102Y-305158D01*
X1023284D02*
X1023622Y-304819D01*
Y-271654D01*
X1101040Y-305158D02*
X1164032D01*
X1023284D02*
X1101040D01*
X1257874Y-411417D02*
Y-372733D01*
X1212598Y-411417D02*
Y-373409D01*
X1300197Y95472D02*
X1302165Y97441D01*
X1300197Y95472D02*
X1302165Y93504D01*
X799213Y104331D02*
X800197Y105315D01*
X437008Y33465D02*
X450788Y47244D01*
D32*
X712598Y-125984D02*
X743506Y-95077D01*
X625984Y-125984D02*
X712598D01*
D33*
X799213Y375984D02*
X818898Y356299D01*
Y273622D02*
Y356299D01*
D34*
X1111220Y500000D02*
D03*
X1032480D02*
D03*
X953740D02*
D03*
X796260D02*
D03*
X875000D02*
D03*
D35*
X717520D02*
D03*
D36*
X-46307Y168795D02*
D03*
Y-167425D02*
D03*
X139913Y168795D02*
D03*
Y-167425D02*
D03*
D37*
X157630Y-93803D02*
D03*
Y95173D02*
D03*
Y-62307D02*
D03*
Y63677D02*
D03*
Y-30811D02*
D03*
Y32181D02*
D03*
X185189Y-109551D02*
D03*
Y110921D02*
D03*
Y-78055D02*
D03*
Y79425D02*
D03*
Y-46559D02*
D03*
Y47929D02*
D03*
Y-15063D02*
D03*
Y16433D02*
D03*
D38*
X1345472Y-60039D02*
D03*
X1313484D02*
D03*
X1281496D02*
D03*
X712598Y-214567D02*
D03*
X744095D02*
D03*
X774606Y-275591D02*
D03*
Y-246063D02*
D03*
X146654Y270669D02*
D03*
X300197D02*
D03*
X269488D02*
D03*
X238779D02*
D03*
X208071D02*
D03*
X177362D02*
D03*
X586614Y557087D02*
D03*
X553149D02*
D03*
X519685D02*
D03*
X486220D02*
D03*
X452756D02*
D03*
X419291D02*
D03*
X608268Y197835D02*
D03*
Y241142D02*
D03*
X1455709Y189961D02*
D03*
X1408465Y265748D02*
D03*
X1430118Y245079D02*
D03*
X1452756Y225394D02*
D03*
X1488189Y325787D02*
D03*
X1507874Y221457D02*
D03*
X1537402Y187008D02*
D03*
X1507874D02*
D03*
X1418307Y-220472D02*
D03*
X1451772D02*
D03*
X1485236D02*
D03*
X1500000Y-191929D02*
D03*
X1469980D02*
D03*
X1439961D02*
D03*
X208661Y139764D02*
D03*
X239173D02*
D03*
X271654D02*
D03*
Y168307D02*
D03*
X239173D02*
D03*
X208661D02*
D03*
X247047Y-165354D02*
D03*
X215551D02*
D03*
X246063Y-136811D02*
D03*
X215551D02*
D03*
X558071Y-421260D02*
D03*
X523130D02*
D03*
X488189D02*
D03*
X423228Y-385827D02*
D03*
Y-353839D02*
D03*
Y-321850D02*
D03*
X477362Y-214567D02*
D03*
X445374D02*
D03*
X413386D02*
D03*
X381398D02*
D03*
X349409D02*
D03*
X275590Y-262795D02*
D03*
X243766D02*
D03*
X211942D02*
D03*
X180118D02*
D03*
X1139764Y418307D02*
D03*
Y386811D02*
D03*
Y357284D02*
D03*
Y328740D02*
D03*
X1109252D02*
D03*
Y357284D02*
D03*
Y386811D02*
D03*
Y418307D02*
D03*
X682087Y420276D02*
D03*
Y387795D02*
D03*
Y357284D02*
D03*
Y328740D02*
D03*
X713583D02*
D03*
Y357284D02*
D03*
Y387795D02*
D03*
Y420276D02*
D03*
X462598Y350394D02*
D03*
X438976Y327756D02*
D03*
X417323Y306102D02*
D03*
X392716Y282480D02*
D03*
X391732Y237205D02*
D03*
X370079Y259842D02*
D03*
X1007874Y-212598D02*
D03*
X1099409Y60039D02*
D03*
X1063976D02*
D03*
X1030512D02*
D03*
X1361220Y56102D02*
D03*
X1021654Y273622D02*
D03*
X552165Y-62008D02*
D03*
X520669Y-61024D02*
D03*
X487205D02*
D03*
X774606Y-214567D02*
D03*
X864173Y-62008D02*
D03*
X910433Y269685D02*
D03*
X878937Y260827D02*
D03*
Y291339D02*
D03*
X866142Y332677D02*
D03*
X329724Y-66929D02*
D03*
X361221Y-57087D02*
D03*
X383858Y59055D02*
D03*
X309055D02*
D03*
X344488Y70866D02*
D03*
X1204724Y214341D02*
D03*
X1177165Y203740D02*
D03*
X1202756Y263779D02*
D03*
X1350350Y223382D02*
D03*
X1246063Y-205709D02*
D03*
X1163643Y-228346D02*
D03*
X1144685Y-205709D02*
D03*
X1186516Y-252644D02*
D03*
X1181995Y-70087D02*
D03*
X934037Y-62601D02*
D03*
X1516732Y51275D02*
D03*
X1461983Y30143D02*
D03*
X1519685Y-66929D02*
D03*
X1471457Y-35946D02*
D03*
X1445809Y-92520D02*
D03*
X1427568Y-115739D02*
D03*
X313594Y141747D02*
D03*
X326772Y106299D02*
D03*
X350394Y31496D02*
D03*
X326772Y-19685D02*
D03*
X324869Y9844D02*
D03*
X1152469Y-69791D02*
D03*
X969578D02*
D03*
X708661Y55249D02*
D03*
X767128D02*
D03*
X476378Y256890D02*
D03*
X474409Y197835D02*
D03*
X444882D02*
D03*
X759842Y236220D02*
D03*
X1210630Y-269685D02*
D03*
X1023622Y-271654D02*
D03*
X581693Y-239173D02*
D03*
X718504Y-260827D02*
D03*
X1162402Y-269685D02*
D03*
X1097441Y-270669D02*
D03*
X552165Y-264764D02*
D03*
X1261811Y-268701D02*
D03*
X1212598Y-411417D02*
D03*
X1257874D02*
D03*
X1392716Y60039D02*
D03*
X1497680Y-15956D02*
D03*
X1483549Y9974D02*
D03*
X1500238Y80329D02*
D03*
X1499407Y109845D02*
D03*
X289370Y-27559D02*
D03*
X1391732Y-69882D02*
D03*
X295276Y-119094D02*
D03*
Y-89567D02*
D03*
X1391732Y175197D02*
D03*
Y-184055D02*
D03*
X74953Y-112634D02*
D03*
X109252Y92520D02*
D03*
X963583Y212598D02*
D03*
%TF.MD5,d61a7093caace6c2d0098ea4d01b3ee6*%
M02*
