%TF.GenerationSoftware,Altium Limited,Altium Designer,21.6.4 (81)*%
G04 Layer_Color=32768*
%FSLAX26Y26*%
%MOIN*%
%TF.SameCoordinates,57458678-C278-4CFF-9AA2-19D65F52AC30*%
%TF.FilePolarity,Positive*%
%TF.FileFunction,Other,Mechanical_15*%
%TF.Part,Single*%
G01*
G75*
%TA.AperFunction,NonConductor*%
%ADD47C,0.003937*%
%ADD48C,0.001968*%
D47*
X606299Y-27559D02*
X645669D01*
X625984Y-47244D02*
Y-7874D01*
X466536Y-206693D02*
Y151575D01*
X785433Y-206693D02*
Y151575D01*
X466536Y-206693D02*
X785433D01*
X466536Y151575D02*
X785433D01*
X588583Y219488D02*
X627953D01*
X608268Y199803D02*
Y239173D01*
X1041339Y19685D02*
X1080709D01*
X1061024Y0D02*
Y39370D01*
X956693Y-84646D02*
X1165354D01*
Y124016D01*
X956693D02*
X1165354D01*
X956693Y-84646D02*
Y124016D01*
X963583Y192913D02*
Y232284D01*
X943898Y212598D02*
X983268D01*
D48*
X1840551Y-2860D02*
X1879921D01*
X1860236Y-22545D02*
Y16825D01*
X914370Y480315D02*
Y519685D01*
X894685Y500000D02*
X934055D01*
X662402Y550197D02*
X1166339D01*
Y449803D02*
Y550197D01*
X662402Y449803D02*
X1166339D01*
X662402D02*
Y550197D01*
X-18748Y685D02*
X20622D01*
X937Y-19000D02*
Y20370D01*
X732283Y146654D02*
Y292323D01*
X484252Y146654D02*
Y292323D01*
Y146654D02*
X732283D01*
X484252Y292323D02*
X732283D01*
X888779Y137795D02*
X1038386D01*
X888779Y287402D02*
X1038386D01*
Y137795D02*
Y287402D01*
X888779Y137795D02*
Y287402D01*
%TF.MD5,47f083f00c037dfdf00af1b409a3be2d*%
M02*
