%TF.GenerationSoftware,Altium Limited,Altium Designer,21.6.4 (81)*%
G04 Layer_Color=8388736*
%FSLAX26Y26*%
%MOIN*%
%TF.SameCoordinates,57458678-C278-4CFF-9AA2-19D65F52AC30*%
%TF.FilePolarity,Positive*%
%TF.FileFunction,Other,Top_3D_Body*%
%TF.Part,Single*%
G01*
G75*
%TA.AperFunction,NonConductor*%
%ADD44C,0.005906*%
%ADD46C,0.007874*%
%ADD47C,0.003937*%
D44*
X-206415Y67614D02*
Y55806D01*
X-205103Y51870D01*
X-203791Y50558D01*
X-201167Y49245D01*
X-197231D01*
X-194606Y50558D01*
X-193294Y51870D01*
X-191982Y55806D01*
Y67614D01*
X-219536D01*
X-198543Y23398D02*
X-195918Y24710D01*
X-193294Y27334D01*
X-191982Y29958D01*
Y35206D01*
X-193294Y37831D01*
X-195918Y40455D01*
X-198543Y41767D01*
X-202479Y43079D01*
X-209039D01*
X-212975Y41767D01*
X-215599Y40455D01*
X-218223Y37831D01*
X-219536Y35206D01*
Y29958D01*
X-218223Y27334D01*
X-215599Y24710D01*
X-212975Y23398D01*
X-191982Y15657D02*
X-219536D01*
X-191982D02*
Y3848D01*
X-193294Y-88D01*
X-194606Y-1400D01*
X-197231Y-2712D01*
X-199855D01*
X-202479Y-1400D01*
X-203791Y-88D01*
X-205103Y3848D01*
Y15657D02*
Y3848D01*
X-206415Y-88D01*
X-207727Y-1400D01*
X-210351Y-2712D01*
X-214287D01*
X-216911Y-1400D01*
X-218223Y-88D01*
X-219536Y3848D01*
Y15657D01*
X-191982Y-47584D02*
Y-30528D01*
X-219536D01*
Y-47584D01*
X-205103Y-30528D02*
Y-41024D01*
X-191982Y-67921D02*
X-219536D01*
X-205103D02*
X-202479Y-65297D01*
X-201167Y-62673D01*
Y-58737D01*
X-202479Y-56113D01*
X-205103Y-53489D01*
X-209039Y-52176D01*
X-211663D01*
X-215599Y-53489D01*
X-218223Y-56113D01*
X-219536Y-58737D01*
Y-62673D01*
X-218223Y-65297D01*
X-215599Y-67921D01*
X-201167Y-91013D02*
X-222160D01*
X-226096Y-89701D01*
X-227408Y-88389D01*
X-228720Y-85765D01*
Y-81829D01*
X-227408Y-79205D01*
X-205103Y-91013D02*
X-202479Y-88389D01*
X-201167Y-85765D01*
Y-81829D01*
X-202479Y-79205D01*
X-205103Y-76581D01*
X-209039Y-75269D01*
X-211663D01*
X-215599Y-76581D01*
X-218223Y-79205D01*
X-219536Y-81829D01*
Y-85765D01*
X-218223Y-88389D01*
X-215599Y-91013D01*
X-209039Y-98361D02*
Y-114106D01*
X-206415D01*
X-203791Y-112793D01*
X-202479Y-111481D01*
X-201167Y-108857D01*
Y-104921D01*
X-202479Y-102297D01*
X-205103Y-99673D01*
X-209039Y-98361D01*
X-211663D01*
X-215599Y-99673D01*
X-218223Y-102297D01*
X-219536Y-104921D01*
Y-108857D01*
X-218223Y-111481D01*
X-215599Y-114106D01*
D46*
X1232284Y261811D02*
X1267716D01*
X1232284Y194882D02*
Y261811D01*
Y194882D02*
X1267716D01*
Y261811D01*
X1275591D02*
X1311024D01*
X1275591Y194882D02*
Y261811D01*
Y194882D02*
X1311024D01*
Y261811D01*
D47*
X-182134Y-171362D02*
Y172732D01*
%TF.MD5,bcd71111ad3ba8fb1e79e69d5d12e0df*%
M02*
