%TF.GenerationSoftware,Altium Limited,Altium Designer,21.6.4 (81)*%
G04 Layer_Color=65535*
%FSLAX26Y26*%
%MOIN*%
%TF.SameCoordinates,57458678-C278-4CFF-9AA2-19D65F52AC30*%
%TF.FilePolarity,Positive*%
%TF.FileFunction,Legend,Top*%
%TF.Part,Single*%
G01*
G75*
%TA.AperFunction,NonConductor*%
%ADD43C,0.006693*%
%ADD44C,0.005906*%
%ADD45C,0.009842*%
%ADD46C,0.007874*%
G36*
X395320Y-157757D02*
X398790D01*
Y-158024D01*
X401193D01*
Y-158291D01*
X403061D01*
Y-158558D01*
X404663D01*
Y-158824D01*
X405998D01*
Y-159091D01*
X407332D01*
Y-159358D01*
X408400D01*
Y-159625D01*
X409468D01*
Y-159892D01*
X410535D01*
Y-160159D01*
X411603D01*
Y-160426D01*
X412404D01*
Y-160693D01*
X413471D01*
Y-160960D01*
X414272D01*
Y-161227D01*
X415073D01*
Y-161494D01*
X415874D01*
Y-161761D01*
X416408D01*
Y-162028D01*
X417209D01*
Y-162294D01*
X418009D01*
Y-162561D01*
X418543D01*
Y-162828D01*
X419344D01*
Y-163095D01*
X419878D01*
Y-163362D01*
X420412D01*
Y-163629D01*
X420945D01*
Y-163896D01*
X421746D01*
Y-164163D01*
X422280D01*
Y-164430D01*
X422814D01*
Y-164697D01*
X423348D01*
Y-164964D01*
X423882D01*
Y-165231D01*
X424149D01*
Y-165498D01*
X424683D01*
Y-165765D01*
X425216D01*
Y-166031D01*
X425750D01*
Y-166298D01*
X426284D01*
Y-166565D01*
X426551D01*
Y-166832D01*
X427085D01*
Y-167099D01*
X427619D01*
Y-167366D01*
X427886D01*
Y-167633D01*
X428420D01*
Y-167900D01*
X428686D01*
Y-168167D01*
X429220D01*
Y-168434D01*
X429487D01*
Y-168701D01*
X430021D01*
Y-168968D01*
X430288D01*
Y-169235D01*
X430822D01*
Y-169502D01*
X431089D01*
Y-169768D01*
X431356D01*
Y-170035D01*
X431890D01*
Y-170302D01*
X432156D01*
Y-170569D01*
X432423D01*
Y-170836D01*
X432957D01*
Y-171103D01*
X433224D01*
Y-171370D01*
X433491D01*
Y-171637D01*
X433758D01*
Y-171904D01*
X434292D01*
Y-172171D01*
X434559D01*
Y-172438D01*
X434826D01*
Y-172705D01*
X435093D01*
Y-172972D01*
X435360D01*
Y-173239D01*
X435627D01*
Y-173506D01*
X435894D01*
Y-173772D01*
X436427D01*
Y-174039D01*
X436694D01*
Y-174306D01*
X436961D01*
Y-174573D01*
X437228D01*
Y-174840D01*
X437495D01*
Y-175107D01*
X437762D01*
Y-175374D01*
X438029D01*
Y-175641D01*
X438296D01*
Y-175908D01*
X438563D01*
Y-176175D01*
X438830D01*
Y-176442D01*
X439097D01*
Y-176976D01*
X439364D01*
Y-177243D01*
X439630D01*
Y-177509D01*
X439897D01*
Y-177776D01*
X440164D01*
Y-178043D01*
X440431D01*
Y-178310D01*
X440698D01*
Y-178844D01*
X440965D01*
Y-179111D01*
X441232D01*
Y-179378D01*
X441499D01*
Y-179912D01*
X441766D01*
Y-180179D01*
X442033D01*
Y-180446D01*
X442300D01*
Y-180980D01*
X442567D01*
Y-181246D01*
X442834D01*
Y-181513D01*
X443101D01*
Y-182047D01*
X443368D01*
Y-182314D01*
X443634D01*
Y-182848D01*
X443901D01*
Y-183115D01*
X444168D01*
Y-183649D01*
X444435D01*
Y-183916D01*
X444702D01*
Y-184450D01*
X444969D01*
Y-184716D01*
X445236D01*
Y-185250D01*
X445503D01*
Y-185784D01*
X445770D01*
Y-186051D01*
X446037D01*
Y-186585D01*
X446304D01*
Y-187119D01*
X446571D01*
Y-187653D01*
X446838D01*
Y-188187D01*
X447104D01*
Y-188720D01*
X447371D01*
Y-188987D01*
X447638D01*
Y-189254D01*
X448172D01*
Y-189521D01*
X448706D01*
Y-189788D01*
X449507D01*
Y-190055D01*
X450575D01*
Y-190322D01*
X451375D01*
Y-190589D01*
X452176D01*
Y-190856D01*
X453244D01*
Y-191123D01*
X454045D01*
Y-191390D01*
X454845D01*
Y-191657D01*
X455379D01*
Y-191924D01*
X456180D01*
Y-192190D01*
X456714D01*
Y-192457D01*
X457515D01*
Y-192724D01*
X458048D01*
Y-192991D01*
X458582D01*
Y-193258D01*
X459383D01*
Y-193525D01*
X459917D01*
Y-193792D01*
X460451D01*
Y-194059D01*
X460985D01*
Y-194326D01*
X461252D01*
Y-194593D01*
X461786D01*
Y-194860D01*
X462319D01*
Y-195127D01*
X462853D01*
Y-195394D01*
X463387D01*
Y-195661D01*
X463654D01*
Y-195928D01*
X464188D01*
Y-196194D01*
X464455D01*
Y-196461D01*
X464989D01*
Y-196728D01*
X465523D01*
Y-196995D01*
X465789D01*
Y-197262D01*
X466323D01*
Y-197529D01*
X466590D01*
Y-197796D01*
X466857D01*
Y-198063D01*
X467391D01*
Y-198330D01*
X467658D01*
Y-198597D01*
X467925D01*
Y-198864D01*
X468459D01*
Y-199131D01*
X468726D01*
Y-199398D01*
X468993D01*
Y-199665D01*
X469526D01*
Y-199931D01*
X469793D01*
Y-200198D01*
X470060D01*
Y-200465D01*
X470327D01*
Y-200732D01*
X470594D01*
Y-200999D01*
X471128D01*
Y-201266D01*
X471395D01*
Y-201533D01*
X471662D01*
Y-201800D01*
X471929D01*
Y-202067D01*
X472196D01*
Y-202334D01*
X472463D01*
Y-202601D01*
X472730D01*
Y-202868D01*
X472997D01*
Y-203135D01*
X473264D01*
Y-203401D01*
X473530D01*
Y-203668D01*
X473797D01*
Y-203935D01*
X474064D01*
Y-204202D01*
X474331D01*
Y-204469D01*
X474598D01*
Y-204736D01*
X474865D01*
Y-205003D01*
X475132D01*
Y-205270D01*
X475399D01*
Y-205537D01*
X475666D01*
Y-205804D01*
X475933D01*
Y-206071D01*
X476200D01*
Y-206605D01*
X476467D01*
Y-206872D01*
X476733D01*
Y-207138D01*
X477000D01*
Y-207405D01*
X477267D01*
Y-207672D01*
X477534D01*
Y-208206D01*
X477801D01*
Y-208473D01*
X478068D01*
Y-208740D01*
X478335D01*
Y-209007D01*
X478602D01*
Y-209541D01*
X478869D01*
Y-209808D01*
X479136D01*
Y-210075D01*
X479403D01*
Y-210609D01*
X479670D01*
Y-210875D01*
X479937D01*
Y-211409D01*
X480204D01*
Y-211676D01*
X480471D01*
Y-212210D01*
X480738D01*
Y-212477D01*
X481004D01*
Y-213011D01*
X481271D01*
Y-213278D01*
X481538D01*
Y-213812D01*
X481805D01*
Y-214345D01*
X482072D01*
Y-214613D01*
X482339D01*
Y-215146D01*
X482606D01*
Y-215680D01*
X482873D01*
Y-216214D01*
X483140D01*
Y-216748D01*
X483407D01*
Y-217282D01*
X483674D01*
Y-217816D01*
X483941D01*
Y-218350D01*
X484208D01*
Y-218883D01*
X484474D01*
Y-219417D01*
X484741D01*
Y-219951D01*
X485008D01*
Y-220485D01*
X485275D01*
Y-221286D01*
X485542D01*
Y-221820D01*
X485809D01*
Y-222620D01*
X486076D01*
Y-223154D01*
X486343D01*
Y-223955D01*
X486610D01*
Y-224756D01*
X486877D01*
Y-225556D01*
X487144D01*
Y-226357D01*
X487411D01*
Y-227158D01*
X487678D01*
Y-227959D01*
X487945D01*
Y-229027D01*
X488212D01*
Y-229827D01*
X488478D01*
Y-230895D01*
X488745D01*
Y-231963D01*
X489012D01*
Y-233298D01*
X489279D01*
Y-234632D01*
X489546D01*
Y-236234D01*
X489813D01*
Y-238102D01*
X490080D01*
Y-242106D01*
X490347D01*
Y-249847D01*
X490080D01*
Y-254652D01*
X489813D01*
Y-257855D01*
X489546D01*
Y-259990D01*
X489279D01*
Y-261859D01*
X489012D01*
Y-263193D01*
X488745D01*
Y-264528D01*
X488478D01*
Y-265596D01*
X488212D01*
Y-266930D01*
X487945D01*
Y-267998D01*
X487678D01*
Y-268799D01*
X487411D01*
Y-269867D01*
X487144D01*
Y-270934D01*
X486877D01*
Y-271735D01*
X486610D01*
Y-272803D01*
X486343D01*
Y-273604D01*
X486076D01*
Y-274404D01*
X485809D01*
Y-275205D01*
X485542D01*
Y-276006D01*
X485275D01*
Y-277074D01*
X485008D01*
Y-277608D01*
X484741D01*
Y-278408D01*
X484474D01*
Y-279209D01*
X484208D01*
Y-280010D01*
X483941D01*
Y-280811D01*
X483674D01*
Y-281345D01*
X483407D01*
Y-282145D01*
X483140D01*
Y-282679D01*
X482873D01*
Y-283480D01*
X482606D01*
Y-284014D01*
X482339D01*
Y-284548D01*
X482072D01*
Y-285349D01*
X481805D01*
Y-285882D01*
X481538D01*
Y-286416D01*
X481271D01*
Y-287484D01*
X481538D01*
Y-288018D01*
X481805D01*
Y-288285D01*
X482072D01*
Y-288819D01*
X482339D01*
Y-289086D01*
X482606D01*
Y-289352D01*
X482873D01*
Y-289886D01*
X483140D01*
Y-290153D01*
X483407D01*
Y-290687D01*
X483674D01*
Y-290954D01*
X483941D01*
Y-291488D01*
X484208D01*
Y-292022D01*
X484474D01*
Y-292289D01*
X484741D01*
Y-292822D01*
X485008D01*
Y-293356D01*
X485275D01*
Y-293890D01*
X485542D01*
Y-294424D01*
X485809D01*
Y-294958D01*
X486076D01*
Y-295492D01*
X486343D01*
Y-296026D01*
X486610D01*
Y-296560D01*
X486877D01*
Y-297093D01*
X487144D01*
Y-297894D01*
X487411D01*
Y-298428D01*
X487678D01*
Y-299229D01*
X487945D01*
Y-300030D01*
X488212D01*
Y-300830D01*
X488478D01*
Y-301631D01*
X488745D01*
Y-302699D01*
X489012D01*
Y-303767D01*
X489279D01*
Y-305101D01*
X489546D01*
Y-306436D01*
X489813D01*
Y-308304D01*
X490080D01*
Y-311241D01*
X490347D01*
Y-315511D01*
X490080D01*
Y-318448D01*
X489813D01*
Y-320049D01*
X489546D01*
Y-321651D01*
X489279D01*
Y-322719D01*
X489012D01*
Y-323786D01*
X488745D01*
Y-324587D01*
X488478D01*
Y-325388D01*
X488212D01*
Y-326189D01*
X487945D01*
Y-326989D01*
X487678D01*
Y-327523D01*
X487411D01*
Y-328324D01*
X487144D01*
Y-328858D01*
X486877D01*
Y-329392D01*
X486610D01*
Y-329926D01*
X486343D01*
Y-330459D01*
X486076D01*
Y-330993D01*
X485809D01*
Y-331527D01*
X485542D01*
Y-331794D01*
X485275D01*
Y-332328D01*
X485008D01*
Y-332862D01*
X484741D01*
Y-333129D01*
X484474D01*
Y-333663D01*
X484208D01*
Y-333930D01*
X483941D01*
Y-334463D01*
X483674D01*
Y-334730D01*
X483407D01*
Y-334997D01*
X483140D01*
Y-335531D01*
X482873D01*
Y-335798D01*
X482606D01*
Y-336065D01*
X482339D01*
Y-336599D01*
X482072D01*
Y-336866D01*
X481805D01*
Y-337133D01*
X481538D01*
Y-337400D01*
X481271D01*
Y-337666D01*
X481004D01*
Y-338200D01*
X480738D01*
Y-338467D01*
X480471D01*
Y-338734D01*
X480204D01*
Y-339001D01*
X479937D01*
Y-339268D01*
X479670D01*
Y-339535D01*
X479403D01*
Y-339802D01*
X479136D01*
Y-340069D01*
X478869D01*
Y-340336D01*
X478602D01*
Y-340603D01*
X478335D01*
Y-340870D01*
X478068D01*
Y-341137D01*
X477801D01*
Y-341404D01*
X477267D01*
Y-341670D01*
X477000D01*
Y-341937D01*
X476733D01*
Y-342204D01*
X476467D01*
Y-342471D01*
X476200D01*
Y-342738D01*
X475666D01*
Y-343005D01*
X475399D01*
Y-343272D01*
X475132D01*
Y-343539D01*
X474598D01*
Y-343806D01*
X474331D01*
Y-344073D01*
X474064D01*
Y-344340D01*
X473530D01*
Y-344607D01*
X473264D01*
Y-344874D01*
X472730D01*
Y-345140D01*
X472463D01*
Y-345407D01*
X471929D01*
Y-345674D01*
X471395D01*
Y-345941D01*
X471128D01*
Y-346208D01*
X470594D01*
Y-346475D01*
X470060D01*
Y-346742D01*
X469526D01*
Y-347009D01*
X469260D01*
Y-347276D01*
X468726D01*
Y-347543D01*
X468192D01*
Y-347810D01*
X467925D01*
Y-348077D01*
X467391D01*
Y-348344D01*
X467124D01*
Y-348611D01*
X466857D01*
Y-348877D01*
X466590D01*
Y-349945D01*
X466857D01*
Y-350746D01*
X467124D01*
Y-351547D01*
X467391D01*
Y-352348D01*
X467658D01*
Y-353415D01*
X467925D01*
Y-354483D01*
X468192D01*
Y-355551D01*
X468459D01*
Y-357152D01*
X468726D01*
Y-358754D01*
X468993D01*
Y-360889D01*
X469260D01*
Y-368630D01*
X468993D01*
Y-370232D01*
X468726D01*
Y-371300D01*
X468459D01*
Y-372100D01*
X468192D01*
Y-372901D01*
X467925D01*
Y-373435D01*
X467658D01*
Y-374236D01*
X467391D01*
Y-374769D01*
X467124D01*
Y-375303D01*
X466857D01*
Y-375837D01*
X466590D01*
Y-376371D01*
X466323D01*
Y-376638D01*
X466056D01*
Y-377172D01*
X465789D01*
Y-377439D01*
X465523D01*
Y-377973D01*
X465256D01*
Y-378240D01*
X464989D01*
Y-378774D01*
X464722D01*
Y-379040D01*
X464455D01*
Y-379307D01*
X464188D01*
Y-379841D01*
X463921D01*
Y-380108D01*
X463654D01*
Y-380375D01*
X463387D01*
Y-380642D01*
X463120D01*
Y-380909D01*
X462853D01*
Y-381176D01*
X462586D01*
Y-381443D01*
X462319D01*
Y-381710D01*
X462053D01*
Y-381977D01*
X461786D01*
Y-382244D01*
X461519D01*
Y-382510D01*
X461252D01*
Y-382777D01*
X460985D01*
Y-383044D01*
X460718D01*
Y-383311D01*
X460451D01*
Y-383578D01*
X459917D01*
Y-383845D01*
X459650D01*
Y-384112D01*
X459383D01*
Y-384379D01*
X458849D01*
Y-384646D01*
X458582D01*
Y-384913D01*
X458315D01*
Y-385180D01*
X457782D01*
Y-385447D01*
X457515D01*
Y-385714D01*
X456981D01*
Y-385981D01*
X456714D01*
Y-386248D01*
X456180D01*
Y-386514D01*
X455646D01*
Y-386781D01*
X455379D01*
Y-387048D01*
X454845D01*
Y-387315D01*
X454312D01*
Y-387582D01*
X453778D01*
Y-387849D01*
X453244D01*
Y-388116D01*
X452710D01*
Y-388383D01*
X452176D01*
Y-388650D01*
X451375D01*
Y-388917D01*
X450841D01*
Y-389184D01*
X450041D01*
Y-389451D01*
X449507D01*
Y-389718D01*
X448706D01*
Y-389985D01*
X447905D01*
Y-390251D01*
X447104D01*
Y-390518D01*
X446037D01*
Y-390785D01*
X444969D01*
Y-391052D01*
X443901D01*
Y-391319D01*
X442834D01*
Y-391586D01*
X441232D01*
Y-391853D01*
X439630D01*
Y-392120D01*
X437495D01*
Y-392387D01*
X435093D01*
Y-392654D01*
X433491D01*
Y-392921D01*
X432423D01*
Y-393188D01*
X431890D01*
Y-393454D01*
X431623D01*
Y-393721D01*
X431356D01*
Y-393988D01*
X431089D01*
Y-394522D01*
X430822D01*
Y-395056D01*
X430555D01*
Y-395590D01*
X430288D01*
Y-396124D01*
X430021D01*
Y-396658D01*
X429754D01*
Y-397192D01*
X429487D01*
Y-397725D01*
X429220D01*
Y-398259D01*
X428953D01*
Y-398793D01*
X428686D01*
Y-399060D01*
X428420D01*
Y-399594D01*
X428153D01*
Y-400128D01*
X427886D01*
Y-400395D01*
X427619D01*
Y-400929D01*
X427352D01*
Y-401195D01*
X427085D01*
Y-401462D01*
X426818D01*
Y-401996D01*
X426551D01*
Y-402263D01*
X426284D01*
Y-402530D01*
X426017D01*
Y-403064D01*
X425750D01*
Y-403331D01*
X425483D01*
Y-403598D01*
X425216D01*
Y-403865D01*
X424949D01*
Y-404399D01*
X424683D01*
Y-404666D01*
X424416D01*
Y-404933D01*
X424149D01*
Y-405199D01*
X423882D01*
Y-405466D01*
X423615D01*
Y-405733D01*
X423348D01*
Y-406000D01*
X423081D01*
Y-406267D01*
X422814D01*
Y-406534D01*
X422547D01*
Y-406801D01*
X422280D01*
Y-407068D01*
X422013D01*
Y-407335D01*
X421746D01*
Y-407602D01*
X421479D01*
Y-407869D01*
X420945D01*
Y-408136D01*
X420679D01*
Y-408402D01*
X420412D01*
Y-408670D01*
X420145D01*
Y-408936D01*
X419878D01*
Y-409203D01*
X419344D01*
Y-409470D01*
X419077D01*
Y-409737D01*
X418810D01*
Y-410004D01*
X418276D01*
Y-410271D01*
X418009D01*
Y-410538D01*
X417475D01*
Y-410805D01*
X417209D01*
Y-411072D01*
X416675D01*
Y-411339D01*
X416408D01*
Y-411606D01*
X415874D01*
Y-411873D01*
X415607D01*
Y-412139D01*
X415073D01*
Y-412406D01*
X414539D01*
Y-412673D01*
X414272D01*
Y-412940D01*
X413738D01*
Y-413207D01*
X413205D01*
Y-413474D01*
X412671D01*
Y-413741D01*
X412137D01*
Y-414008D01*
X411603D01*
Y-414275D01*
X411069D01*
Y-414542D01*
X410535D01*
Y-414809D01*
X409735D01*
Y-415076D01*
X409201D01*
Y-415343D01*
X408400D01*
Y-415610D01*
X407866D01*
Y-415877D01*
X407065D01*
Y-416144D01*
X406264D01*
Y-416410D01*
X405464D01*
Y-416677D01*
X404663D01*
Y-416944D01*
X403862D01*
Y-417211D01*
X402794D01*
Y-417478D01*
X401727D01*
Y-417745D01*
X400659D01*
Y-418012D01*
X399324D01*
Y-418279D01*
X397990D01*
Y-418546D01*
X396121D01*
Y-418813D01*
X392918D01*
Y-419080D01*
X389982D01*
Y-418813D01*
X387312D01*
Y-418546D01*
X385711D01*
Y-418279D01*
X384643D01*
Y-418012D01*
X383575D01*
Y-417745D01*
X382775D01*
Y-417478D01*
X381974D01*
Y-417211D01*
X381173D01*
Y-416944D01*
X380639D01*
Y-416677D01*
X380105D01*
Y-416410D01*
X379572D01*
Y-416144D01*
X379038D01*
Y-415877D01*
X378504D01*
Y-415610D01*
X377970D01*
Y-415343D01*
X377436D01*
Y-415076D01*
X377169D01*
Y-414809D01*
X376635D01*
Y-414542D01*
X376368D01*
Y-414275D01*
X375835D01*
Y-414008D01*
X375568D01*
Y-413741D01*
X375034D01*
Y-413474D01*
X374767D01*
Y-413207D01*
X374500D01*
Y-412940D01*
X374233D01*
Y-412673D01*
X373699D01*
Y-412406D01*
X373432D01*
Y-412139D01*
X373165D01*
Y-411873D01*
X372898D01*
Y-411606D01*
X372632D01*
Y-411339D01*
X372365D01*
Y-411072D01*
X372098D01*
Y-410805D01*
X371831D01*
Y-410538D01*
X371564D01*
Y-410271D01*
X371030D01*
Y-410004D01*
X370763D01*
Y-409737D01*
X370496D01*
Y-409470D01*
X369962D01*
Y-409737D01*
X369695D01*
Y-410004D01*
X369161D01*
Y-410271D01*
X368894D01*
Y-410538D01*
X368627D01*
Y-410805D01*
X368361D01*
Y-411072D01*
X368094D01*
Y-411339D01*
X367827D01*
Y-411606D01*
X367560D01*
Y-411873D01*
X367293D01*
Y-412139D01*
X367026D01*
Y-412406D01*
X366759D01*
Y-412673D01*
X366225D01*
Y-412940D01*
X365958D01*
Y-413207D01*
X365691D01*
Y-413474D01*
X365424D01*
Y-413741D01*
X364890D01*
Y-414008D01*
X364624D01*
Y-414275D01*
X364357D01*
Y-414542D01*
X363823D01*
Y-414809D01*
X363289D01*
Y-415076D01*
X363022D01*
Y-415343D01*
X362488D01*
Y-415610D01*
X361954D01*
Y-415877D01*
X361421D01*
Y-416144D01*
X360887D01*
Y-416410D01*
X360353D01*
Y-416677D01*
X359819D01*
Y-416944D01*
X359285D01*
Y-417211D01*
X358484D01*
Y-417478D01*
X357683D01*
Y-417745D01*
X356616D01*
Y-418012D01*
X355815D01*
Y-418279D01*
X354480D01*
Y-418546D01*
X352879D01*
Y-418813D01*
X350476D01*
Y-419080D01*
X343002D01*
Y-418813D01*
X339799D01*
Y-418546D01*
X337664D01*
Y-418279D01*
X335795D01*
Y-418012D01*
X334461D01*
Y-417745D01*
X333126D01*
Y-417478D01*
X332058D01*
Y-417211D01*
X330991D01*
Y-416944D01*
X329923D01*
Y-416677D01*
X329122D01*
Y-416410D01*
X328054D01*
Y-416144D01*
X327254D01*
Y-415877D01*
X326720D01*
Y-415610D01*
X325919D01*
Y-415343D01*
X325118D01*
Y-415076D01*
X324584D01*
Y-414809D01*
X324050D01*
Y-414542D01*
X323517D01*
Y-414275D01*
X322983D01*
Y-414008D01*
X322449D01*
Y-413741D01*
X321915D01*
Y-413474D01*
X321381D01*
Y-413207D01*
X321114D01*
Y-412940D01*
X320580D01*
Y-412673D01*
X320313D01*
Y-412406D01*
X320047D01*
Y-412139D01*
X319513D01*
Y-411873D01*
X319246D01*
Y-411606D01*
X318979D01*
Y-411339D01*
X318712D01*
Y-411072D01*
X318178D01*
Y-410805D01*
X317911D01*
Y-410538D01*
X317644D01*
Y-410271D01*
X317377D01*
Y-410004D01*
X317110D01*
Y-409737D01*
X316843D01*
Y-409470D01*
X316577D01*
Y-409203D01*
X316310D01*
Y-408936D01*
X316043D01*
Y-408670D01*
X315776D01*
Y-408402D01*
X315509D01*
Y-408136D01*
X315242D01*
Y-407869D01*
X314975D01*
Y-407602D01*
X314708D01*
Y-407335D01*
X314441D01*
Y-407068D01*
X314174D01*
Y-406801D01*
X313907D01*
Y-406534D01*
X313640D01*
Y-406000D01*
X313373D01*
Y-405733D01*
X313106D01*
Y-405466D01*
X312839D01*
Y-405199D01*
X312573D01*
Y-404666D01*
X312306D01*
Y-404399D01*
X312039D01*
Y-404132D01*
X311772D01*
Y-403598D01*
X311505D01*
Y-403331D01*
X311238D01*
Y-402797D01*
X310971D01*
Y-402263D01*
X310704D01*
Y-401996D01*
X310437D01*
Y-401462D01*
X310170D01*
Y-400929D01*
X309903D01*
Y-400395D01*
X309636D01*
Y-399861D01*
X309369D01*
Y-399327D01*
X309103D01*
Y-398793D01*
X308836D01*
Y-398259D01*
X308302D01*
Y-397992D01*
X306967D01*
Y-397725D01*
X305632D01*
Y-397459D01*
X304298D01*
Y-397192D01*
X302963D01*
Y-396925D01*
X301895D01*
Y-396658D01*
X300828D01*
Y-396391D01*
X299760D01*
Y-396124D01*
X298959D01*
Y-395857D01*
X298158D01*
Y-395590D01*
X297358D01*
Y-395323D01*
X296557D01*
Y-395056D01*
X295756D01*
Y-394789D01*
X295222D01*
Y-394522D01*
X294421D01*
Y-394255D01*
X293888D01*
Y-393988D01*
X293354D01*
Y-393721D01*
X292820D01*
Y-393454D01*
X292286D01*
Y-393188D01*
X291752D01*
Y-392921D01*
X291218D01*
Y-392654D01*
X290684D01*
Y-392387D01*
X290151D01*
Y-392120D01*
X289617D01*
Y-391853D01*
X289083D01*
Y-391586D01*
X288549D01*
Y-391319D01*
X288282D01*
Y-391052D01*
X287748D01*
Y-390785D01*
X287481D01*
Y-390518D01*
X286947D01*
Y-390251D01*
X286680D01*
Y-389985D01*
X286147D01*
Y-389718D01*
X285880D01*
Y-389451D01*
X285346D01*
Y-389184D01*
X285079D01*
Y-388917D01*
X284812D01*
Y-388650D01*
X284278D01*
Y-388383D01*
X284011D01*
Y-388116D01*
X283744D01*
Y-387849D01*
X283210D01*
Y-387582D01*
X282943D01*
Y-387315D01*
X282677D01*
Y-387048D01*
X282410D01*
Y-386781D01*
X282143D01*
Y-386514D01*
X281876D01*
Y-386248D01*
X281342D01*
Y-385981D01*
X281075D01*
Y-385714D01*
X280808D01*
Y-385447D01*
X280541D01*
Y-385180D01*
X280274D01*
Y-384913D01*
X280007D01*
Y-384646D01*
X279740D01*
Y-384379D01*
X279473D01*
Y-383845D01*
X279207D01*
Y-383578D01*
X278940D01*
Y-383311D01*
X278673D01*
Y-383044D01*
X278406D01*
Y-382777D01*
X278139D01*
Y-382510D01*
X277872D01*
Y-382244D01*
X277605D01*
Y-381710D01*
X277338D01*
Y-381443D01*
X277071D01*
Y-381176D01*
X276804D01*
Y-380642D01*
X276537D01*
Y-380375D01*
X276270D01*
Y-379841D01*
X276003D01*
Y-379574D01*
X275736D01*
Y-379040D01*
X275469D01*
Y-378774D01*
X275203D01*
Y-378240D01*
X274936D01*
Y-377706D01*
X274669D01*
Y-377439D01*
X274402D01*
Y-376905D01*
X274135D01*
Y-376371D01*
X273868D01*
Y-375837D01*
X273601D01*
Y-375303D01*
X273334D01*
Y-374503D01*
X273067D01*
Y-373969D01*
X272800D01*
Y-373168D01*
X272533D01*
Y-372367D01*
X272266D01*
Y-371300D01*
X271999D01*
Y-370232D01*
X271733D01*
Y-368897D01*
X271466D01*
Y-366762D01*
X271199D01*
Y-359021D01*
X271466D01*
Y-357152D01*
X271733D01*
Y-355551D01*
X271999D01*
Y-354483D01*
X272266D01*
Y-353415D01*
X272533D01*
Y-352615D01*
X272800D01*
Y-351547D01*
X273067D01*
Y-350479D01*
X273334D01*
Y-349411D01*
X273601D01*
Y-348877D01*
X273334D01*
Y-348344D01*
X273067D01*
Y-348077D01*
X272800D01*
Y-347810D01*
X272266D01*
Y-347543D01*
X271733D01*
Y-347276D01*
X271466D01*
Y-347009D01*
X270932D01*
Y-346742D01*
X270398D01*
Y-346475D01*
X269864D01*
Y-346208D01*
X269330D01*
Y-345941D01*
X269063D01*
Y-345674D01*
X268529D01*
Y-345407D01*
X267995D01*
Y-345140D01*
X267729D01*
Y-344874D01*
X267195D01*
Y-344607D01*
X266928D01*
Y-344340D01*
X266661D01*
Y-344073D01*
X266127D01*
Y-343806D01*
X265860D01*
Y-343539D01*
X265593D01*
Y-343272D01*
X265059D01*
Y-343005D01*
X264792D01*
Y-342738D01*
X264525D01*
Y-342471D01*
X264259D01*
Y-342204D01*
X263992D01*
Y-341937D01*
X263458D01*
Y-341670D01*
X263191D01*
Y-341404D01*
X262924D01*
Y-341137D01*
X262657D01*
Y-340870D01*
X262390D01*
Y-340603D01*
X262123D01*
Y-340336D01*
X261856D01*
Y-340069D01*
X261589D01*
Y-339802D01*
X261322D01*
Y-339535D01*
X261055D01*
Y-339268D01*
X260788D01*
Y-339001D01*
X260522D01*
Y-338734D01*
X260255D01*
Y-338467D01*
X259988D01*
Y-337933D01*
X259721D01*
Y-337666D01*
X259454D01*
Y-337400D01*
X259187D01*
Y-337133D01*
X258920D01*
Y-336866D01*
X258653D01*
Y-336599D01*
X258386D01*
Y-336065D01*
X258119D01*
Y-335798D01*
X257852D01*
Y-335531D01*
X257585D01*
Y-334997D01*
X257318D01*
Y-334730D01*
X257051D01*
Y-334463D01*
X256784D01*
Y-333930D01*
X256518D01*
Y-333663D01*
X256251D01*
Y-333129D01*
X255984D01*
Y-332862D01*
X255717D01*
Y-332328D01*
X255450D01*
Y-331794D01*
X255183D01*
Y-331527D01*
X254916D01*
Y-330993D01*
X254649D01*
Y-330459D01*
X254382D01*
Y-329926D01*
X254115D01*
Y-329392D01*
X253848D01*
Y-328858D01*
X253581D01*
Y-328057D01*
X253314D01*
Y-327523D01*
X253048D01*
Y-326989D01*
X252781D01*
Y-326189D01*
X252514D01*
Y-325388D01*
X252247D01*
Y-324587D01*
X251980D01*
Y-323519D01*
X251713D01*
Y-322452D01*
X251446D01*
Y-320850D01*
X251179D01*
Y-317914D01*
X250912D01*
Y-308037D01*
X251179D01*
Y-305101D01*
X251446D01*
Y-303767D01*
X251713D01*
Y-302966D01*
X251980D01*
Y-301898D01*
X252247D01*
Y-301097D01*
X252514D01*
Y-300296D01*
X252781D01*
Y-299496D01*
X253048D01*
Y-298962D01*
X253314D01*
Y-298161D01*
X253581D01*
Y-297627D01*
X253848D01*
Y-296826D01*
X254115D01*
Y-296293D01*
X254382D01*
Y-295759D01*
X254649D01*
Y-295225D01*
X254916D01*
Y-294691D01*
X255183D01*
Y-294157D01*
X255450D01*
Y-293623D01*
X255717D01*
Y-293089D01*
X255984D01*
Y-292556D01*
X256251D01*
Y-292022D01*
X256518D01*
Y-291488D01*
X256784D01*
Y-291221D01*
X257051D01*
Y-290687D01*
X257318D01*
Y-290153D01*
X257585D01*
Y-289886D01*
X257852D01*
Y-289352D01*
X258119D01*
Y-288819D01*
X258386D01*
Y-288552D01*
X258653D01*
Y-288018D01*
X258920D01*
Y-287751D01*
X259187D01*
Y-286416D01*
X258920D01*
Y-285882D01*
X258653D01*
Y-285349D01*
X258386D01*
Y-284815D01*
X258119D01*
Y-284014D01*
X257852D01*
Y-283480D01*
X257585D01*
Y-282679D01*
X257318D01*
Y-282145D01*
X257051D01*
Y-281345D01*
X256784D01*
Y-280811D01*
X256518D01*
Y-280010D01*
X256251D01*
Y-279209D01*
X255984D01*
Y-278675D01*
X255717D01*
Y-277875D01*
X255450D01*
Y-277074D01*
X255183D01*
Y-276273D01*
X254916D01*
Y-275472D01*
X254649D01*
Y-274404D01*
X254382D01*
Y-273604D01*
X254115D01*
Y-272803D01*
X253848D01*
Y-271735D01*
X253581D01*
Y-270934D01*
X253314D01*
Y-269867D01*
X253048D01*
Y-269066D01*
X252781D01*
Y-267998D01*
X252514D01*
Y-266930D01*
X252247D01*
Y-265863D01*
X251980D01*
Y-264528D01*
X251713D01*
Y-263193D01*
X251446D01*
Y-261859D01*
X251179D01*
Y-259990D01*
X250912D01*
Y-257855D01*
X250645D01*
Y-254919D01*
X250378D01*
Y-250114D01*
X250111D01*
Y-242106D01*
X250378D01*
Y-238102D01*
X250645D01*
Y-236234D01*
X250912D01*
Y-234632D01*
X251179D01*
Y-233298D01*
X251446D01*
Y-231963D01*
X251713D01*
Y-230895D01*
X251980D01*
Y-229827D01*
X252247D01*
Y-228760D01*
X252514D01*
Y-227959D01*
X252781D01*
Y-226891D01*
X253048D01*
Y-226090D01*
X253314D01*
Y-225290D01*
X253581D01*
Y-224489D01*
X253848D01*
Y-223955D01*
X254115D01*
Y-223154D01*
X254382D01*
Y-222620D01*
X254649D01*
Y-221820D01*
X254916D01*
Y-221286D01*
X255183D01*
Y-220485D01*
X255450D01*
Y-219951D01*
X255717D01*
Y-219417D01*
X255984D01*
Y-218883D01*
X256251D01*
Y-218350D01*
X256518D01*
Y-217816D01*
X256784D01*
Y-217282D01*
X257051D01*
Y-216748D01*
X257318D01*
Y-216214D01*
X257585D01*
Y-215680D01*
X257852D01*
Y-215146D01*
X258119D01*
Y-214879D01*
X258386D01*
Y-214345D01*
X258653D01*
Y-213812D01*
X258920D01*
Y-213545D01*
X259187D01*
Y-213011D01*
X259454D01*
Y-212744D01*
X259721D01*
Y-212210D01*
X259988D01*
Y-211943D01*
X260255D01*
Y-211409D01*
X260522D01*
Y-211142D01*
X260788D01*
Y-210609D01*
X261055D01*
Y-210342D01*
X261322D01*
Y-209808D01*
X261589D01*
Y-209541D01*
X261856D01*
Y-209274D01*
X262123D01*
Y-208740D01*
X262390D01*
Y-208473D01*
X262657D01*
Y-208206D01*
X262924D01*
Y-207672D01*
X263191D01*
Y-207405D01*
X263458D01*
Y-207138D01*
X263725D01*
Y-206872D01*
X263992D01*
Y-206605D01*
X264259D01*
Y-206071D01*
X264525D01*
Y-205804D01*
X264792D01*
Y-205537D01*
X265059D01*
Y-205270D01*
X265326D01*
Y-205003D01*
X265593D01*
Y-204736D01*
X265860D01*
Y-204469D01*
X266127D01*
Y-204202D01*
X266394D01*
Y-203935D01*
X266661D01*
Y-203668D01*
X266928D01*
Y-203401D01*
X267195D01*
Y-203135D01*
X267462D01*
Y-202868D01*
X267729D01*
Y-202601D01*
X267995D01*
Y-202334D01*
X268262D01*
Y-202067D01*
X268529D01*
Y-201800D01*
X268796D01*
Y-201533D01*
X269063D01*
Y-201266D01*
X269330D01*
Y-200999D01*
X269597D01*
Y-200732D01*
X270131D01*
Y-200465D01*
X270398D01*
Y-200198D01*
X270665D01*
Y-199931D01*
X270932D01*
Y-199665D01*
X271199D01*
Y-199398D01*
X271733D01*
Y-199131D01*
X271999D01*
Y-198864D01*
X272266D01*
Y-198597D01*
X272800D01*
Y-198330D01*
X273067D01*
Y-198063D01*
X273334D01*
Y-197796D01*
X273868D01*
Y-197529D01*
X274135D01*
Y-197262D01*
X274669D01*
Y-196995D01*
X274936D01*
Y-196728D01*
X275469D01*
Y-196461D01*
X275736D01*
Y-196194D01*
X276270D01*
Y-195928D01*
X276537D01*
Y-195661D01*
X277071D01*
Y-195394D01*
X277605D01*
Y-195127D01*
X278139D01*
Y-194860D01*
X278406D01*
Y-194593D01*
X278940D01*
Y-194326D01*
X279473D01*
Y-194059D01*
X280007D01*
Y-193792D01*
X280541D01*
Y-193525D01*
X281075D01*
Y-193258D01*
X281609D01*
Y-192991D01*
X282410D01*
Y-192724D01*
X282943D01*
Y-192457D01*
X283477D01*
Y-192190D01*
X284278D01*
Y-191924D01*
X284812D01*
Y-191657D01*
X285613D01*
Y-191390D01*
X286414D01*
Y-191123D01*
X287214D01*
Y-190856D01*
X288282D01*
Y-190589D01*
X289083D01*
Y-190322D01*
X289884D01*
Y-190055D01*
X290951D01*
Y-189788D01*
X291485D01*
Y-189521D01*
X292286D01*
Y-189254D01*
X292553D01*
Y-188987D01*
X293087D01*
Y-188720D01*
X293354D01*
Y-188187D01*
X293621D01*
Y-187653D01*
X293888D01*
Y-187119D01*
X294154D01*
Y-186585D01*
X294421D01*
Y-186051D01*
X294688D01*
Y-185517D01*
X294955D01*
Y-184983D01*
X295222D01*
Y-184716D01*
X295489D01*
Y-184183D01*
X295756D01*
Y-183649D01*
X296023D01*
Y-183382D01*
X296290D01*
Y-182848D01*
X296557D01*
Y-182581D01*
X296824D01*
Y-182314D01*
X297091D01*
Y-181780D01*
X297358D01*
Y-181513D01*
X297625D01*
Y-180980D01*
X297892D01*
Y-180713D01*
X298158D01*
Y-180446D01*
X298425D01*
Y-180179D01*
X298692D01*
Y-179645D01*
X298959D01*
Y-179378D01*
X299226D01*
Y-179111D01*
X299493D01*
Y-178844D01*
X299760D01*
Y-178577D01*
X300027D01*
Y-178043D01*
X300294D01*
Y-177776D01*
X300561D01*
Y-177509D01*
X300828D01*
Y-177243D01*
X301095D01*
Y-176976D01*
X301362D01*
Y-176709D01*
X301628D01*
Y-176442D01*
X301895D01*
Y-176175D01*
X302162D01*
Y-175908D01*
X302429D01*
Y-175641D01*
X302696D01*
Y-175374D01*
X302963D01*
Y-175107D01*
X303230D01*
Y-174840D01*
X303497D01*
Y-174573D01*
X303764D01*
Y-174306D01*
X304031D01*
Y-174039D01*
X304298D01*
Y-173772D01*
X304565D01*
Y-173506D01*
X304832D01*
Y-173239D01*
X305099D01*
Y-172972D01*
X305365D01*
Y-172705D01*
X305632D01*
Y-172438D01*
X305899D01*
Y-172171D01*
X306433D01*
Y-171904D01*
X306700D01*
Y-171637D01*
X306967D01*
Y-171370D01*
X307234D01*
Y-171103D01*
X307501D01*
Y-170836D01*
X308035D01*
Y-170569D01*
X308302D01*
Y-170302D01*
X308569D01*
Y-170035D01*
X309103D01*
Y-169768D01*
X309369D01*
Y-169502D01*
X309636D01*
Y-169235D01*
X310170D01*
Y-168968D01*
X310437D01*
Y-168701D01*
X310971D01*
Y-168434D01*
X311238D01*
Y-168167D01*
X311772D01*
Y-167900D01*
X312039D01*
Y-167633D01*
X312573D01*
Y-167366D01*
X312839D01*
Y-167099D01*
X313373D01*
Y-166832D01*
X313640D01*
Y-166565D01*
X314174D01*
Y-166298D01*
X314708D01*
Y-166031D01*
X314975D01*
Y-165765D01*
X315509D01*
Y-165498D01*
X316043D01*
Y-165231D01*
X316577D01*
Y-164964D01*
X317110D01*
Y-164697D01*
X317644D01*
Y-164430D01*
X318178D01*
Y-164163D01*
X318712D01*
Y-163896D01*
X319246D01*
Y-163629D01*
X319780D01*
Y-163362D01*
X320313D01*
Y-163095D01*
X321114D01*
Y-162828D01*
X321648D01*
Y-162561D01*
X322449D01*
Y-162294D01*
X322983D01*
Y-162028D01*
X323784D01*
Y-161761D01*
X324584D01*
Y-161494D01*
X325385D01*
Y-161227D01*
X326186D01*
Y-160960D01*
X326987D01*
Y-160693D01*
X328054D01*
Y-160426D01*
X329122D01*
Y-160159D01*
X329923D01*
Y-159892D01*
X330991D01*
Y-159625D01*
X332325D01*
Y-159358D01*
X333393D01*
Y-159091D01*
X334728D01*
Y-158824D01*
X336062D01*
Y-158558D01*
X337664D01*
Y-158291D01*
X339265D01*
Y-158024D01*
X340867D01*
Y-157757D01*
X342736D01*
Y-157490D01*
X351811D01*
Y-157757D01*
X355014D01*
Y-158024D01*
X356616D01*
Y-158291D01*
X357950D01*
Y-158558D01*
X358751D01*
Y-158824D01*
X359819D01*
Y-159091D01*
X360620D01*
Y-159358D01*
X361154D01*
Y-159625D01*
X361954D01*
Y-159892D01*
X362488D01*
Y-160159D01*
X363022D01*
Y-160426D01*
X363556D01*
Y-160693D01*
X363823D01*
Y-160960D01*
X364357D01*
Y-161227D01*
X364624D01*
Y-161494D01*
X365158D01*
Y-161761D01*
X365424D01*
Y-162028D01*
X365691D01*
Y-162294D01*
X365958D01*
Y-162561D01*
X366492D01*
Y-162828D01*
X366759D01*
Y-163095D01*
X367026D01*
Y-163362D01*
X367293D01*
Y-163629D01*
X367560D01*
Y-163896D01*
X367827D01*
Y-164163D01*
X368094D01*
Y-164430D01*
X368361D01*
Y-164697D01*
X368627D01*
Y-164964D01*
X368894D01*
Y-165231D01*
X369161D01*
Y-165498D01*
X369428D01*
Y-165765D01*
X369695D01*
Y-166031D01*
X369962D01*
Y-166298D01*
X370496D01*
Y-166031D01*
X370763D01*
Y-165765D01*
X371030D01*
Y-165498D01*
X371297D01*
Y-165231D01*
X371564D01*
Y-164964D01*
X371831D01*
Y-164697D01*
X372098D01*
Y-164430D01*
X372365D01*
Y-164163D01*
X372632D01*
Y-163896D01*
X372898D01*
Y-163629D01*
X373165D01*
Y-163362D01*
X373432D01*
Y-163095D01*
X373699D01*
Y-162828D01*
X373966D01*
Y-162561D01*
X374500D01*
Y-162294D01*
X374767D01*
Y-162028D01*
X375034D01*
Y-161761D01*
X375568D01*
Y-161494D01*
X375835D01*
Y-161227D01*
X376101D01*
Y-160960D01*
X376635D01*
Y-160693D01*
X377169D01*
Y-160426D01*
X377703D01*
Y-160159D01*
X378237D01*
Y-159892D01*
X378771D01*
Y-159625D01*
X379305D01*
Y-159358D01*
X380105D01*
Y-159091D01*
X380639D01*
Y-158824D01*
X381707D01*
Y-158558D01*
X382775D01*
Y-158291D01*
X383842D01*
Y-158024D01*
X385444D01*
Y-157757D01*
X387846D01*
Y-157490D01*
X395320D01*
Y-157757D01*
D02*
G37*
%LPC*%
G36*
X349943Y-168167D02*
X344604D01*
Y-168434D01*
X340066D01*
Y-168701D01*
X337931D01*
Y-168968D01*
X336329D01*
Y-169235D01*
X335262D01*
Y-169502D01*
X333927D01*
Y-169768D01*
X333126D01*
Y-170035D01*
X332058D01*
Y-170302D01*
X330991D01*
Y-170569D01*
X330190D01*
Y-170836D01*
X329389D01*
Y-171103D01*
X328588D01*
Y-171370D01*
X328054D01*
Y-171637D01*
X327254D01*
Y-171904D01*
X326453D01*
Y-172171D01*
X325919D01*
Y-172438D01*
X325118D01*
Y-172705D01*
X324584D01*
Y-172972D01*
X324050D01*
Y-173239D01*
X323517D01*
Y-173506D01*
X322983D01*
Y-173772D01*
X322449D01*
Y-174039D01*
X321915D01*
Y-174306D01*
X321381D01*
Y-174573D01*
X320847D01*
Y-174840D01*
X320313D01*
Y-175107D01*
X319780D01*
Y-175374D01*
X319513D01*
Y-175641D01*
X318979D01*
Y-175908D01*
X318445D01*
Y-176175D01*
X318178D01*
Y-176442D01*
X317644D01*
Y-176709D01*
X317377D01*
Y-176976D01*
X316843D01*
Y-177243D01*
X316577D01*
Y-177509D01*
X316043D01*
Y-177776D01*
X315776D01*
Y-178043D01*
X315242D01*
Y-178310D01*
X314975D01*
Y-178577D01*
X314708D01*
Y-178844D01*
X314441D01*
Y-179111D01*
X313907D01*
Y-179378D01*
X313640D01*
Y-179645D01*
X313373D01*
Y-179912D01*
X313106D01*
Y-180179D01*
X312573D01*
Y-180446D01*
X312306D01*
Y-180713D01*
X312039D01*
Y-180980D01*
X311772D01*
Y-181246D01*
X311505D01*
Y-181513D01*
X311238D01*
Y-181780D01*
X310971D01*
Y-182047D01*
X310704D01*
Y-182314D01*
X310437D01*
Y-182581D01*
X310170D01*
Y-182848D01*
X309903D01*
Y-183115D01*
X309636D01*
Y-183382D01*
X309369D01*
Y-183649D01*
X309103D01*
Y-183916D01*
X308836D01*
Y-184183D01*
X308569D01*
Y-184450D01*
X308302D01*
Y-184716D01*
X308035D01*
Y-185250D01*
X307768D01*
Y-185517D01*
X307501D01*
Y-185784D01*
X307234D01*
Y-186051D01*
X306967D01*
Y-186585D01*
X306700D01*
Y-186852D01*
X306433D01*
Y-187119D01*
X306166D01*
Y-187653D01*
X305899D01*
Y-187920D01*
X305632D01*
Y-188453D01*
X305365D01*
Y-188720D01*
X305099D01*
Y-189254D01*
X304832D01*
Y-189521D01*
X304565D01*
Y-190055D01*
X304298D01*
Y-190589D01*
X304031D01*
Y-191123D01*
X303764D01*
Y-191657D01*
X303497D01*
Y-192190D01*
X303230D01*
Y-192724D01*
X302963D01*
Y-193258D01*
X302696D01*
Y-193792D01*
X302429D01*
Y-194593D01*
X302162D01*
Y-195127D01*
X301895D01*
Y-195928D01*
X301628D01*
Y-196728D01*
X301362D01*
Y-197529D01*
X301095D01*
Y-198330D01*
X300828D01*
Y-198597D01*
X300027D01*
Y-198864D01*
X298692D01*
Y-199131D01*
X297358D01*
Y-199398D01*
X296023D01*
Y-199665D01*
X294955D01*
Y-199931D01*
X293621D01*
Y-200198D01*
X292820D01*
Y-200465D01*
X291752D01*
Y-200732D01*
X290951D01*
Y-200999D01*
X290151D01*
Y-201266D01*
X289350D01*
Y-201533D01*
X288549D01*
Y-201800D01*
X287748D01*
Y-202067D01*
X287214D01*
Y-202334D01*
X286680D01*
Y-202601D01*
X285880D01*
Y-202868D01*
X285346D01*
Y-203135D01*
X284812D01*
Y-203401D01*
X284278D01*
Y-203668D01*
X283744D01*
Y-203935D01*
X283210D01*
Y-204202D01*
X282943D01*
Y-204469D01*
X282410D01*
Y-204736D01*
X281876D01*
Y-205003D01*
X281609D01*
Y-205270D01*
X281075D01*
Y-205537D01*
X280541D01*
Y-205804D01*
X280274D01*
Y-206071D01*
X280007D01*
Y-206338D01*
X279473D01*
Y-206605D01*
X279207D01*
Y-206872D01*
X278673D01*
Y-207138D01*
X278406D01*
Y-207405D01*
X278139D01*
Y-207672D01*
X277872D01*
Y-207939D01*
X277338D01*
Y-208206D01*
X277071D01*
Y-208473D01*
X276804D01*
Y-208740D01*
X276537D01*
Y-209007D01*
X276270D01*
Y-209274D01*
X276003D01*
Y-209541D01*
X275469D01*
Y-209808D01*
X275203D01*
Y-210075D01*
X274936D01*
Y-210342D01*
X274669D01*
Y-210609D01*
X274402D01*
Y-210875D01*
X274135D01*
Y-211142D01*
X273868D01*
Y-211409D01*
X273601D01*
Y-211676D01*
X273334D01*
Y-211943D01*
X273067D01*
Y-212210D01*
X272800D01*
Y-212744D01*
X272533D01*
Y-213011D01*
X272266D01*
Y-213278D01*
X271999D01*
Y-213545D01*
X271733D01*
Y-213812D01*
X271466D01*
Y-214079D01*
X271199D01*
Y-214613D01*
X270932D01*
Y-214879D01*
X270665D01*
Y-215146D01*
X270398D01*
Y-215413D01*
X270131D01*
Y-215947D01*
X269864D01*
Y-216214D01*
X269597D01*
Y-216748D01*
X269330D01*
Y-217015D01*
X269063D01*
Y-217282D01*
X268796D01*
Y-217816D01*
X268529D01*
Y-218083D01*
X268262D01*
Y-218616D01*
X267995D01*
Y-219150D01*
X267729D01*
Y-219417D01*
X267462D01*
Y-219951D01*
X267195D01*
Y-220485D01*
X266928D01*
Y-221019D01*
X266661D01*
Y-221286D01*
X266394D01*
Y-221820D01*
X266127D01*
Y-222353D01*
X265860D01*
Y-222887D01*
X265593D01*
Y-223421D01*
X265326D01*
Y-223955D01*
X265059D01*
Y-224756D01*
X264792D01*
Y-225290D01*
X264525D01*
Y-225823D01*
X264259D01*
Y-226624D01*
X263992D01*
Y-227158D01*
X263725D01*
Y-227959D01*
X263458D01*
Y-228760D01*
X263191D01*
Y-229560D01*
X262924D01*
Y-230361D01*
X262657D01*
Y-231162D01*
X262390D01*
Y-232230D01*
X262123D01*
Y-233030D01*
X261856D01*
Y-234365D01*
X261589D01*
Y-235433D01*
X261322D01*
Y-237035D01*
X261055D01*
Y-239170D01*
X260788D01*
Y-243708D01*
X260522D01*
Y-249313D01*
X260788D01*
Y-254385D01*
X261055D01*
Y-257054D01*
X261322D01*
Y-259190D01*
X261589D01*
Y-260524D01*
X261856D01*
Y-261859D01*
X262123D01*
Y-262926D01*
X262390D01*
Y-263994D01*
X262657D01*
Y-265062D01*
X262924D01*
Y-266130D01*
X263191D01*
Y-266930D01*
X263458D01*
Y-267998D01*
X263725D01*
Y-268799D01*
X263992D01*
Y-269867D01*
X264259D01*
Y-270668D01*
X264525D01*
Y-271468D01*
X264792D01*
Y-272536D01*
X265059D01*
Y-273337D01*
X265326D01*
Y-274137D01*
X265593D01*
Y-274938D01*
X265860D01*
Y-275739D01*
X266127D01*
Y-276540D01*
X266394D01*
Y-277341D01*
X266661D01*
Y-278141D01*
X266928D01*
Y-278675D01*
X267195D01*
Y-278942D01*
X267729D01*
Y-278675D01*
X268262D01*
Y-278408D01*
X268529D01*
Y-278141D01*
X269063D01*
Y-277875D01*
X269330D01*
Y-277608D01*
X269864D01*
Y-277341D01*
X270131D01*
Y-277074D01*
X270665D01*
Y-276807D01*
X270932D01*
Y-276540D01*
X271199D01*
Y-276273D01*
X271733D01*
Y-276006D01*
X271999D01*
Y-275739D01*
X272533D01*
Y-275472D01*
X272800D01*
Y-275205D01*
X273334D01*
Y-274938D01*
X273601D01*
Y-274671D01*
X274135D01*
Y-274404D01*
X274669D01*
Y-274137D01*
X274936D01*
Y-273871D01*
X275469D01*
Y-273604D01*
X276003D01*
Y-273337D01*
X276270D01*
Y-273070D01*
X276804D01*
Y-272803D01*
X277338D01*
Y-272536D01*
X277872D01*
Y-272269D01*
X278406D01*
Y-272002D01*
X278940D01*
Y-271735D01*
X279473D01*
Y-271468D01*
X280007D01*
Y-271201D01*
X280541D01*
Y-270934D01*
X281342D01*
Y-270668D01*
X281876D01*
Y-270401D01*
X282410D01*
Y-270134D01*
X283210D01*
Y-269867D01*
X284011D01*
Y-269600D01*
X284812D01*
Y-269333D01*
X285613D01*
Y-269066D01*
X286414D01*
Y-268799D01*
X287481D01*
Y-268532D01*
X288549D01*
Y-268265D01*
X289884D01*
Y-267998D01*
X291485D01*
Y-267731D01*
X293888D01*
Y-267464D01*
X301895D01*
Y-267731D01*
X304298D01*
Y-267998D01*
X306166D01*
Y-268265D01*
X307768D01*
Y-268532D01*
X309103D01*
Y-268799D01*
X310437D01*
Y-269066D01*
X311505D01*
Y-269333D01*
X312573D01*
Y-269600D01*
X313373D01*
Y-269867D01*
X314441D01*
Y-270134D01*
X315242D01*
Y-270401D01*
X316043D01*
Y-270668D01*
X316843D01*
Y-270934D01*
X317644D01*
Y-271201D01*
X318178D01*
Y-271468D01*
X318979D01*
Y-271735D01*
X319513D01*
Y-272002D01*
X320313D01*
Y-272269D01*
X320847D01*
Y-272536D01*
X321381D01*
Y-272803D01*
X322182D01*
Y-273070D01*
X322716D01*
Y-273337D01*
X323250D01*
Y-273604D01*
X323784D01*
Y-273871D01*
X324050D01*
Y-274137D01*
X324584D01*
Y-274404D01*
X325118D01*
Y-274671D01*
X325652D01*
Y-274938D01*
X326186D01*
Y-275205D01*
X326453D01*
Y-275472D01*
X326987D01*
Y-275739D01*
X327521D01*
Y-276006D01*
X327788D01*
Y-276273D01*
X328321D01*
Y-276540D01*
X328588D01*
Y-276807D01*
X328855D01*
Y-277074D01*
X329389D01*
Y-277341D01*
X329656D01*
Y-277608D01*
X329923D01*
Y-277875D01*
X330457D01*
Y-278141D01*
X330724D01*
Y-278408D01*
X330991D01*
Y-278675D01*
X331258D01*
Y-278942D01*
X331524D01*
Y-279209D01*
X331791D01*
Y-279476D01*
X332058D01*
Y-279743D01*
X332325D01*
Y-280277D01*
X332592D01*
Y-280544D01*
X332859D01*
Y-281078D01*
X333126D01*
Y-281611D01*
X333393D01*
Y-284014D01*
X333126D01*
Y-285082D01*
X332859D01*
Y-285615D01*
X332592D01*
Y-285882D01*
X332325D01*
Y-286149D01*
X332058D01*
Y-286416D01*
X331791D01*
Y-286683D01*
X331524D01*
Y-286950D01*
X331258D01*
Y-287217D01*
X330724D01*
Y-287484D01*
X330190D01*
Y-287751D01*
X329389D01*
Y-288018D01*
X326987D01*
Y-287751D01*
X326186D01*
Y-287484D01*
X325652D01*
Y-287217D01*
X325385D01*
Y-286950D01*
X324851D01*
Y-286683D01*
X324584D01*
Y-286416D01*
X324050D01*
Y-286149D01*
X323784D01*
Y-285882D01*
X323517D01*
Y-285615D01*
X322983D01*
Y-285349D01*
X322716D01*
Y-285082D01*
X322182D01*
Y-284815D01*
X321915D01*
Y-284548D01*
X321381D01*
Y-284281D01*
X320847D01*
Y-284014D01*
X320580D01*
Y-283747D01*
X320047D01*
Y-283480D01*
X319513D01*
Y-283213D01*
X318979D01*
Y-282946D01*
X318445D01*
Y-282679D01*
X317911D01*
Y-282412D01*
X317377D01*
Y-282145D01*
X316577D01*
Y-281878D01*
X316043D01*
Y-281611D01*
X315509D01*
Y-281345D01*
X314708D01*
Y-281078D01*
X313907D01*
Y-280811D01*
X313373D01*
Y-280544D01*
X312573D01*
Y-280277D01*
X311772D01*
Y-280010D01*
X310971D01*
Y-279743D01*
X309903D01*
Y-279476D01*
X309103D01*
Y-279209D01*
X308035D01*
Y-278942D01*
X306700D01*
Y-278675D01*
X305365D01*
Y-278408D01*
X303230D01*
Y-278141D01*
X293354D01*
Y-278408D01*
X291218D01*
Y-278675D01*
X289884D01*
Y-278942D01*
X289083D01*
Y-279209D01*
X288015D01*
Y-279476D01*
X287481D01*
Y-279743D01*
X286680D01*
Y-280010D01*
X286147D01*
Y-280277D01*
X285346D01*
Y-280544D01*
X284812D01*
Y-280811D01*
X284278D01*
Y-281078D01*
X283744D01*
Y-281345D01*
X283210D01*
Y-281611D01*
X282677D01*
Y-281878D01*
X282143D01*
Y-282145D01*
X281609D01*
Y-282412D01*
X281075D01*
Y-282679D01*
X280808D01*
Y-282946D01*
X280274D01*
Y-283213D01*
X279740D01*
Y-283480D01*
X279473D01*
Y-283747D01*
X278940D01*
Y-284014D01*
X278673D01*
Y-284281D01*
X278139D01*
Y-284548D01*
X277872D01*
Y-284815D01*
X277338D01*
Y-285082D01*
X277071D01*
Y-285349D01*
X276537D01*
Y-285615D01*
X276270D01*
Y-285882D01*
X276003D01*
Y-286149D01*
X275469D01*
Y-286416D01*
X275203D01*
Y-286683D01*
X274936D01*
Y-286950D01*
X274669D01*
Y-287217D01*
X274135D01*
Y-287484D01*
X273868D01*
Y-287751D01*
X273601D01*
Y-288018D01*
X273334D01*
Y-288285D01*
X273067D01*
Y-288552D01*
X272533D01*
Y-288819D01*
X272266D01*
Y-289086D01*
X271999D01*
Y-289352D01*
X271733D01*
Y-289619D01*
X271466D01*
Y-289886D01*
X271199D01*
Y-290153D01*
X270932D01*
Y-290420D01*
X270665D01*
Y-290687D01*
X270398D01*
Y-290954D01*
X270131D01*
Y-291221D01*
X269864D01*
Y-291488D01*
X269597D01*
Y-291755D01*
X269330D01*
Y-292022D01*
X269063D01*
Y-292289D01*
X268796D01*
Y-292556D01*
X268529D01*
Y-293089D01*
X268262D01*
Y-293356D01*
X267995D01*
Y-293623D01*
X267729D01*
Y-293890D01*
X267462D01*
Y-294424D01*
X267195D01*
Y-294691D01*
X266928D01*
Y-294958D01*
X266661D01*
Y-295492D01*
X266394D01*
Y-295759D01*
X266127D01*
Y-296293D01*
X265860D01*
Y-296560D01*
X265593D01*
Y-297093D01*
X265326D01*
Y-297627D01*
X265059D01*
Y-298161D01*
X264792D01*
Y-298695D01*
X264525D01*
Y-299229D01*
X264259D01*
Y-299763D01*
X263992D01*
Y-300296D01*
X263725D01*
Y-300830D01*
X263458D01*
Y-301631D01*
X263191D01*
Y-302432D01*
X262924D01*
Y-302966D01*
X262657D01*
Y-304034D01*
X262390D01*
Y-304834D01*
X262123D01*
Y-305902D01*
X261856D01*
Y-307237D01*
X261589D01*
Y-308838D01*
X261322D01*
Y-312575D01*
X261055D01*
Y-314177D01*
X261322D01*
Y-317914D01*
X261589D01*
Y-319515D01*
X261856D01*
Y-320850D01*
X262123D01*
Y-321651D01*
X262390D01*
Y-322452D01*
X262657D01*
Y-323252D01*
X262924D01*
Y-324053D01*
X263191D01*
Y-324587D01*
X263458D01*
Y-325121D01*
X263725D01*
Y-325655D01*
X263992D01*
Y-326189D01*
X264259D01*
Y-326722D01*
X264525D01*
Y-326989D01*
X264792D01*
Y-327523D01*
X265059D01*
Y-327790D01*
X265326D01*
Y-328324D01*
X265593D01*
Y-328591D01*
X265860D01*
Y-329125D01*
X266127D01*
Y-329392D01*
X266394D01*
Y-329926D01*
X266661D01*
Y-330192D01*
X266928D01*
Y-330459D01*
X267195D01*
Y-330726D01*
X267462D01*
Y-330993D01*
X267729D01*
Y-331527D01*
X267995D01*
Y-331794D01*
X268262D01*
Y-332061D01*
X268529D01*
Y-332328D01*
X268796D01*
Y-332595D01*
X269063D01*
Y-332862D01*
X269330D01*
Y-333129D01*
X269597D01*
Y-333396D01*
X269864D01*
Y-333663D01*
X270398D01*
Y-333930D01*
X270665D01*
Y-334196D01*
X270932D01*
Y-334463D01*
X271199D01*
Y-334730D01*
X271733D01*
Y-334997D01*
X271999D01*
Y-335264D01*
X272266D01*
Y-335531D01*
X272800D01*
Y-335798D01*
X273067D01*
Y-336065D01*
X273601D01*
Y-336332D01*
X273868D01*
Y-336599D01*
X274402D01*
Y-336866D01*
X274936D01*
Y-337133D01*
X275469D01*
Y-337400D01*
X275736D01*
Y-337666D01*
X276270D01*
Y-337933D01*
X276804D01*
Y-338200D01*
X277338D01*
Y-338467D01*
X277872D01*
Y-338734D01*
X278406D01*
Y-339001D01*
X278940D01*
Y-339268D01*
X279740D01*
Y-339535D01*
X280274D01*
Y-339802D01*
X280808D01*
Y-340069D01*
X281342D01*
Y-340336D01*
X282143D01*
Y-340603D01*
X282677D01*
Y-340870D01*
X283210D01*
Y-341137D01*
X284011D01*
Y-341404D01*
X284545D01*
Y-341670D01*
X285346D01*
Y-341937D01*
X285880D01*
Y-342204D01*
X286414D01*
Y-342471D01*
X286947D01*
Y-342738D01*
X287481D01*
Y-343005D01*
X288015D01*
Y-343272D01*
X288282D01*
Y-343806D01*
X288015D01*
Y-344340D01*
X287748D01*
Y-344874D01*
X287481D01*
Y-345407D01*
X287214D01*
Y-345941D01*
X286947D01*
Y-346475D01*
X286680D01*
Y-347009D01*
X286414D01*
Y-347543D01*
X286147D01*
Y-348077D01*
X285880D01*
Y-348611D01*
X285613D01*
Y-349144D01*
X285346D01*
Y-349678D01*
X285079D01*
Y-350212D01*
X284812D01*
Y-350746D01*
X284545D01*
Y-351280D01*
X284278D01*
Y-351814D01*
X284011D01*
Y-352615D01*
X283744D01*
Y-353148D01*
X283477D01*
Y-353682D01*
X283210D01*
Y-354483D01*
X282943D01*
Y-355284D01*
X282677D01*
Y-355818D01*
X282410D01*
Y-356885D01*
X282143D01*
Y-357686D01*
X281876D01*
Y-358754D01*
X281609D01*
Y-360622D01*
X281342D01*
Y-364359D01*
X281609D01*
Y-365961D01*
X281876D01*
Y-367296D01*
X282143D01*
Y-368363D01*
X282410D01*
Y-369164D01*
X282677D01*
Y-369965D01*
X282943D01*
Y-370499D01*
X283210D01*
Y-371300D01*
X283477D01*
Y-371833D01*
X283744D01*
Y-372367D01*
X284011D01*
Y-372901D01*
X284278D01*
Y-373168D01*
X284545D01*
Y-373702D01*
X284812D01*
Y-374236D01*
X285079D01*
Y-374503D01*
X285346D01*
Y-375036D01*
X285613D01*
Y-375303D01*
X285880D01*
Y-375570D01*
X286147D01*
Y-376104D01*
X286414D01*
Y-376371D01*
X286680D01*
Y-376638D01*
X286947D01*
Y-376905D01*
X287214D01*
Y-377172D01*
X287481D01*
Y-377439D01*
X287748D01*
Y-377706D01*
X288015D01*
Y-377973D01*
X288282D01*
Y-378240D01*
X288549D01*
Y-378507D01*
X288816D01*
Y-378774D01*
X289083D01*
Y-379040D01*
X289350D01*
Y-379307D01*
X289617D01*
Y-379574D01*
X289884D01*
Y-379841D01*
X290151D01*
Y-380108D01*
X290684D01*
Y-380375D01*
X290951D01*
Y-380642D01*
X291218D01*
Y-380909D01*
X291752D01*
Y-381176D01*
X292019D01*
Y-381443D01*
X292286D01*
Y-381710D01*
X292820D01*
Y-381977D01*
X293354D01*
Y-382244D01*
X293621D01*
Y-382510D01*
X294154D01*
Y-382777D01*
X294688D01*
Y-383044D01*
X295222D01*
Y-383311D01*
X295489D01*
Y-383578D01*
X296023D01*
Y-383845D01*
X296557D01*
Y-384112D01*
X297358D01*
Y-384379D01*
X297892D01*
Y-384646D01*
X298425D01*
Y-384913D01*
X299226D01*
Y-385180D01*
X299760D01*
Y-385447D01*
X300561D01*
Y-385714D01*
X301362D01*
Y-385981D01*
X302429D01*
Y-386248D01*
X303497D01*
Y-386514D01*
X304832D01*
Y-386781D01*
X306433D01*
Y-387048D01*
X308035D01*
Y-387315D01*
X309903D01*
Y-387582D01*
X312573D01*
Y-387849D01*
X315776D01*
Y-388116D01*
X316310D01*
Y-388383D01*
X316577D01*
Y-388917D01*
X316843D01*
Y-389451D01*
X317110D01*
Y-390251D01*
X317377D01*
Y-391052D01*
X317644D01*
Y-391853D01*
X317911D01*
Y-392654D01*
X318178D01*
Y-393188D01*
X318445D01*
Y-393988D01*
X318712D01*
Y-394522D01*
X318979D01*
Y-395323D01*
X319246D01*
Y-395857D01*
X319513D01*
Y-396391D01*
X319780D01*
Y-396925D01*
X320047D01*
Y-397459D01*
X320313D01*
Y-397725D01*
X320580D01*
Y-398259D01*
X320847D01*
Y-398793D01*
X321114D01*
Y-399060D01*
X321381D01*
Y-399594D01*
X321648D01*
Y-399861D01*
X321915D01*
Y-400128D01*
X322182D01*
Y-400395D01*
X322449D01*
Y-400929D01*
X322716D01*
Y-401195D01*
X322983D01*
Y-401462D01*
X323250D01*
Y-401729D01*
X323517D01*
Y-401996D01*
X323784D01*
Y-402263D01*
X324050D01*
Y-402530D01*
X324584D01*
Y-402797D01*
X324851D01*
Y-403064D01*
X325118D01*
Y-403331D01*
X325652D01*
Y-403598D01*
X325919D01*
Y-403865D01*
X326453D01*
Y-404132D01*
X326720D01*
Y-404399D01*
X327254D01*
Y-404666D01*
X327788D01*
Y-404933D01*
X328321D01*
Y-405199D01*
X328855D01*
Y-405466D01*
X329389D01*
Y-405733D01*
X330190D01*
Y-406000D01*
X330991D01*
Y-406267D01*
X331791D01*
Y-406534D01*
X332592D01*
Y-406801D01*
X333393D01*
Y-407068D01*
X334461D01*
Y-407335D01*
X335528D01*
Y-407602D01*
X336863D01*
Y-407869D01*
X338465D01*
Y-408136D01*
X341401D01*
Y-408402D01*
X351277D01*
Y-408136D01*
X353146D01*
Y-407869D01*
X354213D01*
Y-407602D01*
X355281D01*
Y-407335D01*
X355815D01*
Y-407068D01*
X356349D01*
Y-406801D01*
X356883D01*
Y-406534D01*
X357416D01*
Y-406267D01*
X357950D01*
Y-406000D01*
X358217D01*
Y-405733D01*
X358484D01*
Y-405466D01*
X359018D01*
Y-405199D01*
X359285D01*
Y-404933D01*
X359552D01*
Y-404666D01*
X359819D01*
Y-404399D01*
X360086D01*
Y-404132D01*
X360353D01*
Y-403865D01*
X360620D01*
Y-403598D01*
X360887D01*
Y-403331D01*
X361154D01*
Y-403064D01*
X361421D01*
Y-402797D01*
X361687D01*
Y-402530D01*
X361954D01*
Y-401996D01*
X362221D01*
Y-401729D01*
X362488D01*
Y-401195D01*
X362755D01*
Y-400929D01*
X363022D01*
Y-400395D01*
X363289D01*
Y-399861D01*
X363556D01*
Y-399060D01*
X363823D01*
Y-398259D01*
X364090D01*
Y-397192D01*
X364357D01*
Y-395857D01*
X364624D01*
Y-391052D01*
X364890D01*
Y-342204D01*
X365158D01*
Y-316312D01*
Y-316045D01*
Y-304034D01*
X364890D01*
Y-225556D01*
X364624D01*
Y-193792D01*
X364357D01*
Y-180980D01*
X364090D01*
Y-179378D01*
X363823D01*
Y-178310D01*
X363556D01*
Y-177243D01*
X363289D01*
Y-176442D01*
X363022D01*
Y-175641D01*
X362755D01*
Y-175107D01*
X362488D01*
Y-174573D01*
X362221D01*
Y-174039D01*
X361954D01*
Y-173506D01*
X361687D01*
Y-172972D01*
X361421D01*
Y-172438D01*
X361154D01*
Y-172171D01*
X360887D01*
Y-171904D01*
X360620D01*
Y-171637D01*
X360353D01*
Y-171103D01*
X360086D01*
Y-170836D01*
X359819D01*
Y-170569D01*
X359285D01*
Y-170302D01*
X359018D01*
Y-170035D01*
X358751D01*
Y-169768D01*
X358217D01*
Y-169502D01*
X357950D01*
Y-169235D01*
X357416D01*
Y-168968D01*
X356349D01*
Y-168701D01*
X354480D01*
Y-168434D01*
X349943D01*
Y-168167D01*
D02*
G37*
G36*
X399324Y-168434D02*
X385444D01*
Y-168701D01*
X384109D01*
Y-168968D01*
X383309D01*
Y-169235D01*
X382508D01*
Y-169502D01*
X382241D01*
Y-169768D01*
X381707D01*
Y-170035D01*
X381440D01*
Y-170302D01*
X380906D01*
Y-170569D01*
X380639D01*
Y-170836D01*
X380372D01*
Y-171103D01*
X380105D01*
Y-171370D01*
X379839D01*
Y-171904D01*
X379572D01*
Y-172171D01*
X379305D01*
Y-172438D01*
X379038D01*
Y-172972D01*
X378771D01*
Y-173506D01*
X378504D01*
Y-173772D01*
X378237D01*
Y-174573D01*
X377970D01*
Y-175107D01*
X377703D01*
Y-175908D01*
X377436D01*
Y-176709D01*
X377169D01*
Y-177776D01*
X376902D01*
Y-178844D01*
X376635D01*
Y-180179D01*
X376368D01*
Y-182047D01*
X376101D01*
Y-184450D01*
X375835D01*
Y-187119D01*
Y-187386D01*
Y-191123D01*
X375568D01*
Y-227959D01*
X375301D01*
Y-355284D01*
X375568D01*
Y-390518D01*
X375835D01*
Y-396124D01*
X376101D01*
Y-397192D01*
X376368D01*
Y-398259D01*
X376635D01*
Y-399060D01*
X376902D01*
Y-399594D01*
X377169D01*
Y-400395D01*
X377436D01*
Y-400929D01*
X377703D01*
Y-401195D01*
X377970D01*
Y-401729D01*
X378237D01*
Y-402263D01*
X378504D01*
Y-402530D01*
X378771D01*
Y-402797D01*
X379038D01*
Y-403064D01*
X379305D01*
Y-403598D01*
X379572D01*
Y-403865D01*
X379839D01*
Y-404132D01*
X380105D01*
Y-404399D01*
X380372D01*
Y-404666D01*
X380906D01*
Y-404933D01*
X381173D01*
Y-405199D01*
X381440D01*
Y-405466D01*
X381974D01*
Y-405733D01*
X382241D01*
Y-406000D01*
X382775D01*
Y-406267D01*
X383042D01*
Y-406534D01*
X383575D01*
Y-406801D01*
X384109D01*
Y-407068D01*
X384643D01*
Y-407335D01*
X385177D01*
Y-407602D01*
X385978D01*
Y-407869D01*
X388380D01*
Y-408136D01*
X394253D01*
Y-407869D01*
X398257D01*
Y-407602D01*
X399591D01*
Y-407335D01*
X400659D01*
Y-407068D01*
X401460D01*
Y-406801D01*
X402260D01*
Y-406534D01*
X402794D01*
Y-406267D01*
X403595D01*
Y-406000D01*
X404129D01*
Y-405733D01*
X404930D01*
Y-405466D01*
X405464D01*
Y-405199D01*
X406264D01*
Y-404933D01*
X406798D01*
Y-404666D01*
X407332D01*
Y-404399D01*
X407866D01*
Y-404132D01*
X408400D01*
Y-403865D01*
X408934D01*
Y-403598D01*
X409468D01*
Y-403331D01*
X410001D01*
Y-403064D01*
X410268D01*
Y-402797D01*
X410802D01*
Y-402530D01*
X411069D01*
Y-402263D01*
X411603D01*
Y-401996D01*
X411870D01*
Y-401729D01*
X412404D01*
Y-401462D01*
X412671D01*
Y-401195D01*
X412938D01*
Y-400929D01*
X413471D01*
Y-400662D01*
X413738D01*
Y-400395D01*
X414005D01*
Y-400128D01*
X414272D01*
Y-399861D01*
X414539D01*
Y-399594D01*
X414806D01*
Y-399327D01*
X415073D01*
Y-399060D01*
X415340D01*
Y-398793D01*
X415607D01*
Y-398526D01*
X415874D01*
Y-398259D01*
X416141D01*
Y-397992D01*
X416408D01*
Y-397725D01*
X416675D01*
Y-397459D01*
X416942D01*
Y-397192D01*
X417209D01*
Y-396658D01*
X417475D01*
Y-396391D01*
X417742D01*
Y-396124D01*
X418009D01*
Y-395857D01*
X418276D01*
Y-395323D01*
X418543D01*
Y-395056D01*
X418810D01*
Y-394789D01*
X419077D01*
Y-394255D01*
X419344D01*
Y-393988D01*
X419611D01*
Y-393454D01*
X419878D01*
Y-393188D01*
X420145D01*
Y-392654D01*
X420412D01*
Y-392120D01*
X420679D01*
Y-390785D01*
X420145D01*
Y-390518D01*
X419878D01*
Y-390251D01*
X419611D01*
Y-389985D01*
X419077D01*
Y-389718D01*
X418810D01*
Y-389451D01*
X418276D01*
Y-389184D01*
X417742D01*
Y-388917D01*
X417209D01*
Y-388650D01*
X416942D01*
Y-388383D01*
X416408D01*
Y-388116D01*
X415874D01*
Y-387849D01*
X415607D01*
Y-387582D01*
X415073D01*
Y-387315D01*
X414539D01*
Y-387048D01*
X414272D01*
Y-386781D01*
X413738D01*
Y-386514D01*
X413471D01*
Y-386248D01*
X412938D01*
Y-385981D01*
X412671D01*
Y-385714D01*
X412404D01*
Y-385447D01*
X411870D01*
Y-385180D01*
X411603D01*
Y-384913D01*
X411336D01*
Y-384646D01*
X410802D01*
Y-384379D01*
X410535D01*
Y-384112D01*
X410268D01*
Y-383845D01*
X410001D01*
Y-383578D01*
X409735D01*
Y-383311D01*
X409468D01*
Y-383044D01*
X408934D01*
Y-382777D01*
X408667D01*
Y-382510D01*
X408400D01*
Y-382244D01*
X408133D01*
Y-381977D01*
X407866D01*
Y-381710D01*
X407599D01*
Y-381443D01*
X407332D01*
Y-381176D01*
X407065D01*
Y-380909D01*
X406798D01*
Y-380642D01*
X406531D01*
Y-380108D01*
X406264D01*
Y-379841D01*
X405998D01*
Y-379574D01*
X405731D01*
Y-379307D01*
X405464D01*
Y-379040D01*
X405197D01*
Y-378774D01*
X404930D01*
Y-378240D01*
X404663D01*
Y-377973D01*
X404396D01*
Y-377706D01*
X404129D01*
Y-377172D01*
X403862D01*
Y-376905D01*
X403595D01*
Y-376371D01*
X403328D01*
Y-376104D01*
X403061D01*
Y-375570D01*
X402794D01*
Y-375303D01*
X402527D01*
Y-374769D01*
X402260D01*
Y-374236D01*
X401994D01*
Y-373969D01*
X401727D01*
Y-373435D01*
X401460D01*
Y-372901D01*
X401193D01*
Y-372367D01*
X400926D01*
Y-371833D01*
X400659D01*
Y-371300D01*
X400392D01*
Y-370766D01*
X400125D01*
Y-369965D01*
X399858D01*
Y-369431D01*
X399591D01*
Y-368630D01*
X399324D01*
Y-368096D01*
X399057D01*
Y-367296D01*
X398790D01*
Y-366228D01*
X398524D01*
Y-365427D01*
X398257D01*
Y-364359D01*
X397990D01*
Y-363292D01*
X397723D01*
Y-362224D01*
X397456D01*
Y-360622D01*
X397189D01*
Y-358754D01*
X396922D01*
Y-356351D01*
X396655D01*
Y-349678D01*
X396922D01*
Y-348877D01*
X397189D01*
Y-348611D01*
X397456D01*
Y-348077D01*
X397723D01*
Y-347810D01*
X397990D01*
Y-347543D01*
X398257D01*
Y-347276D01*
X398524D01*
Y-347009D01*
X399057D01*
Y-346742D01*
X399324D01*
Y-346475D01*
X399858D01*
Y-346208D01*
X400659D01*
Y-345941D01*
X402794D01*
Y-346208D01*
X403595D01*
Y-346475D01*
X404129D01*
Y-346742D01*
X404396D01*
Y-347009D01*
X404663D01*
Y-347276D01*
X404930D01*
Y-347543D01*
X405197D01*
Y-347810D01*
X405464D01*
Y-348344D01*
X405731D01*
Y-348611D01*
X405998D01*
Y-349144D01*
X406264D01*
Y-349945D01*
X406531D01*
Y-350746D01*
X406798D01*
Y-352081D01*
X407065D01*
Y-356085D01*
X407332D01*
Y-357953D01*
X407599D01*
Y-359555D01*
X407866D01*
Y-360889D01*
X408133D01*
Y-361957D01*
X408400D01*
Y-362758D01*
X408667D01*
Y-363825D01*
X408934D01*
Y-364626D01*
X409201D01*
Y-365427D01*
X409468D01*
Y-365961D01*
X409735D01*
Y-366762D01*
X410001D01*
Y-367296D01*
X410268D01*
Y-367829D01*
X410535D01*
Y-368363D01*
X410802D01*
Y-368897D01*
X411069D01*
Y-369164D01*
X411336D01*
Y-369698D01*
X411603D01*
Y-369965D01*
X411870D01*
Y-370499D01*
X412137D01*
Y-370766D01*
X412404D01*
Y-371033D01*
X412671D01*
Y-371566D01*
X412938D01*
Y-371833D01*
X413205D01*
Y-372100D01*
X413471D01*
Y-372367D01*
X413738D01*
Y-372634D01*
X414005D01*
Y-373168D01*
X414272D01*
Y-373435D01*
X414539D01*
Y-373702D01*
X414806D01*
Y-373969D01*
X415073D01*
Y-374236D01*
X415340D01*
Y-374503D01*
X415607D01*
Y-374769D01*
X415874D01*
Y-375036D01*
X416141D01*
Y-375303D01*
X416675D01*
Y-375570D01*
X416942D01*
Y-375837D01*
X417209D01*
Y-376104D01*
X417475D01*
Y-376371D01*
X417742D01*
Y-376638D01*
X418276D01*
Y-376905D01*
X418543D01*
Y-377172D01*
X418810D01*
Y-377439D01*
X419344D01*
Y-377706D01*
X419611D01*
Y-377973D01*
X419878D01*
Y-378240D01*
X420412D01*
Y-378507D01*
X420679D01*
Y-378774D01*
X421212D01*
Y-379040D01*
X421746D01*
Y-379307D01*
X422013D01*
Y-379574D01*
X422547D01*
Y-379841D01*
X423081D01*
Y-380108D01*
X423615D01*
Y-380375D01*
X424149D01*
Y-380642D01*
X424683D01*
Y-380909D01*
X425216D01*
Y-381176D01*
X426017D01*
Y-381443D01*
X426551D01*
Y-381710D01*
X427886D01*
Y-381977D01*
X435360D01*
Y-381710D01*
X438029D01*
Y-381443D01*
X439897D01*
Y-381176D01*
X441232D01*
Y-380909D01*
X442300D01*
Y-380642D01*
X443368D01*
Y-380375D01*
X444435D01*
Y-380108D01*
X445236D01*
Y-379841D01*
X446037D01*
Y-379574D01*
X446838D01*
Y-379307D01*
X447371D01*
Y-379040D01*
X447905D01*
Y-378774D01*
X448706D01*
Y-378507D01*
X449240D01*
Y-378240D01*
X449774D01*
Y-377973D01*
X450308D01*
Y-377706D01*
X450841D01*
Y-377439D01*
X451108D01*
Y-377172D01*
X451642D01*
Y-376905D01*
X452176D01*
Y-376638D01*
X452443D01*
Y-376371D01*
X452710D01*
Y-376104D01*
X453244D01*
Y-375837D01*
X453511D01*
Y-375570D01*
X453778D01*
Y-375303D01*
X454045D01*
Y-375036D01*
X454579D01*
Y-374769D01*
X454845D01*
Y-374503D01*
X455112D01*
Y-374236D01*
X455379D01*
Y-373969D01*
X455646D01*
Y-373702D01*
X455913D01*
Y-373168D01*
X456180D01*
Y-372901D01*
X456447D01*
Y-372634D01*
X456714D01*
Y-372100D01*
X456981D01*
Y-371833D01*
X457248D01*
Y-371300D01*
X457515D01*
Y-370766D01*
X457782D01*
Y-370232D01*
X458048D01*
Y-369431D01*
X458315D01*
Y-368630D01*
X458582D01*
Y-367562D01*
X458849D01*
Y-365427D01*
X459116D01*
Y-363292D01*
X458849D01*
Y-360889D01*
X458582D01*
Y-359555D01*
X458315D01*
Y-358220D01*
X458048D01*
Y-357419D01*
X457782D01*
Y-356351D01*
X457515D01*
Y-355551D01*
X457248D01*
Y-354750D01*
X456981D01*
Y-353949D01*
X456714D01*
Y-353148D01*
X456447D01*
Y-352615D01*
X456180D01*
Y-351814D01*
X455913D01*
Y-351280D01*
X455646D01*
Y-350479D01*
X455379D01*
Y-349945D01*
X455112D01*
Y-349144D01*
X454845D01*
Y-348611D01*
X454579D01*
Y-348077D01*
X454312D01*
Y-347276D01*
X454045D01*
Y-346742D01*
X453778D01*
Y-345941D01*
X453511D01*
Y-345407D01*
X453244D01*
Y-344607D01*
X452977D01*
Y-343539D01*
X452710D01*
Y-343005D01*
X452977D01*
Y-342738D01*
X453511D01*
Y-342471D01*
X454045D01*
Y-342204D01*
X454579D01*
Y-341937D01*
X455112D01*
Y-341670D01*
X455913D01*
Y-341404D01*
X456447D01*
Y-341137D01*
X457248D01*
Y-340870D01*
X457782D01*
Y-340603D01*
X458315D01*
Y-340336D01*
X459116D01*
Y-340069D01*
X459650D01*
Y-339802D01*
X460184D01*
Y-339535D01*
X460985D01*
Y-339268D01*
X461519D01*
Y-339001D01*
X462053D01*
Y-338734D01*
X462586D01*
Y-338467D01*
X463120D01*
Y-338200D01*
X463654D01*
Y-337933D01*
X464188D01*
Y-337666D01*
X464722D01*
Y-337400D01*
X465256D01*
Y-337133D01*
X465789D01*
Y-336866D01*
X466056D01*
Y-336599D01*
X466590D01*
Y-336332D01*
X467124D01*
Y-336065D01*
X467391D01*
Y-335798D01*
X467925D01*
Y-335531D01*
X468192D01*
Y-335264D01*
X468726D01*
Y-334997D01*
X468993D01*
Y-334730D01*
X469260D01*
Y-334463D01*
X469793D01*
Y-334196D01*
X470060D01*
Y-333930D01*
X470327D01*
Y-333663D01*
X470594D01*
Y-333396D01*
X470861D01*
Y-333129D01*
X471128D01*
Y-332862D01*
X471662D01*
Y-332595D01*
X471929D01*
Y-332328D01*
X472196D01*
Y-332061D01*
X472463D01*
Y-331794D01*
X472730D01*
Y-331260D01*
X472997D01*
Y-330993D01*
X473264D01*
Y-330726D01*
X473530D01*
Y-330459D01*
X473797D01*
Y-330192D01*
X474064D01*
Y-329659D01*
X474331D01*
Y-329392D01*
X474598D01*
Y-329125D01*
X474865D01*
Y-328591D01*
X475132D01*
Y-328324D01*
X475399D01*
Y-327790D01*
X475666D01*
Y-327523D01*
X475933D01*
Y-326989D01*
X476200D01*
Y-326722D01*
X476467D01*
Y-326189D01*
X476733D01*
Y-325655D01*
X477000D01*
Y-325121D01*
X477267D01*
Y-324587D01*
X477534D01*
Y-323786D01*
X477801D01*
Y-323252D01*
X478068D01*
Y-322452D01*
X478335D01*
Y-321918D01*
X478602D01*
Y-320850D01*
X478869D01*
Y-320049D01*
X479136D01*
Y-318715D01*
X479403D01*
Y-317380D01*
X479670D01*
Y-314711D01*
X479937D01*
Y-311507D01*
X479670D01*
Y-308838D01*
X479403D01*
Y-307504D01*
X479136D01*
Y-306169D01*
X478869D01*
Y-305101D01*
X478602D01*
Y-304300D01*
X478335D01*
Y-303500D01*
X478068D01*
Y-302699D01*
X477801D01*
Y-301898D01*
X477534D01*
Y-301364D01*
X477267D01*
Y-300830D01*
X477000D01*
Y-300296D01*
X476733D01*
Y-299496D01*
X476467D01*
Y-299229D01*
X476200D01*
Y-298695D01*
X475933D01*
Y-298161D01*
X475666D01*
Y-297627D01*
X475399D01*
Y-297360D01*
X475132D01*
Y-296826D01*
X474865D01*
Y-296560D01*
X474064D01*
Y-296826D01*
X473797D01*
Y-297093D01*
X473530D01*
Y-297360D01*
X473264D01*
Y-297627D01*
X472997D01*
Y-298161D01*
X472730D01*
Y-298428D01*
X472463D01*
Y-298695D01*
X472196D01*
Y-298962D01*
X471929D01*
Y-299229D01*
X471662D01*
Y-299496D01*
X471395D01*
Y-299763D01*
X471128D01*
Y-300030D01*
X470861D01*
Y-300296D01*
X470594D01*
Y-300563D01*
X470060D01*
Y-300830D01*
X469793D01*
Y-301097D01*
X469526D01*
Y-301364D01*
X469260D01*
Y-301631D01*
X468726D01*
Y-301898D01*
X468459D01*
Y-302165D01*
X468192D01*
Y-302432D01*
X467925D01*
Y-302699D01*
X467391D01*
Y-302966D01*
X467124D01*
Y-303233D01*
X466590D01*
Y-303500D01*
X466323D01*
Y-303767D01*
X466056D01*
Y-304034D01*
X465523D01*
Y-304300D01*
X465256D01*
Y-304567D01*
X464722D01*
Y-304834D01*
X464455D01*
Y-305101D01*
X463921D01*
Y-305368D01*
X463654D01*
Y-305635D01*
X463120D01*
Y-305902D01*
X462586D01*
Y-306169D01*
X462319D01*
Y-306436D01*
X461786D01*
Y-306703D01*
X461252D01*
Y-306970D01*
X460985D01*
Y-307237D01*
X460451D01*
Y-307504D01*
X459917D01*
Y-307771D01*
X459383D01*
Y-308037D01*
X458849D01*
Y-308304D01*
X458315D01*
Y-308571D01*
X457515D01*
Y-308838D01*
X456981D01*
Y-309105D01*
X456447D01*
Y-309372D01*
X455646D01*
Y-309639D01*
X454845D01*
Y-309906D01*
X454312D01*
Y-310173D01*
X453511D01*
Y-310440D01*
X452710D01*
Y-310707D01*
X451909D01*
Y-310974D01*
X451108D01*
Y-311241D01*
X450308D01*
Y-311507D01*
X449240D01*
Y-311774D01*
X448439D01*
Y-312041D01*
X447371D01*
Y-312308D01*
X446304D01*
Y-312575D01*
X444969D01*
Y-312842D01*
X443634D01*
Y-313109D01*
X442300D01*
Y-313376D01*
X440698D01*
Y-313643D01*
X438830D01*
Y-313910D01*
X436427D01*
Y-314177D01*
X426818D01*
Y-313910D01*
X425483D01*
Y-313643D01*
X424949D01*
Y-313376D01*
X424683D01*
Y-313109D01*
X424416D01*
Y-312842D01*
X424149D01*
Y-312575D01*
X423882D01*
Y-312041D01*
X423615D01*
Y-311774D01*
X423348D01*
Y-311241D01*
X423081D01*
Y-310173D01*
X422814D01*
Y-308304D01*
X423081D01*
Y-307237D01*
X423348D01*
Y-306703D01*
X423615D01*
Y-306169D01*
X423882D01*
Y-305902D01*
X424149D01*
Y-305635D01*
X424416D01*
Y-305368D01*
X424683D01*
Y-305101D01*
X424949D01*
Y-304834D01*
X425483D01*
Y-304567D01*
X426284D01*
Y-304300D01*
X428153D01*
Y-304034D01*
X430288D01*
Y-303767D01*
X433224D01*
Y-303500D01*
X435894D01*
Y-303233D01*
X438296D01*
Y-302966D01*
X440164D01*
Y-302699D01*
X441499D01*
Y-302432D01*
X443101D01*
Y-302165D01*
X444435D01*
Y-301898D01*
X445503D01*
Y-301631D01*
X446571D01*
Y-301364D01*
X447638D01*
Y-301097D01*
X448439D01*
Y-300830D01*
X449240D01*
Y-300563D01*
X450041D01*
Y-300296D01*
X450841D01*
Y-300030D01*
X451642D01*
Y-299763D01*
X452176D01*
Y-299496D01*
X452977D01*
Y-299229D01*
X453511D01*
Y-298962D01*
X454045D01*
Y-298695D01*
X454579D01*
Y-298428D01*
X455112D01*
Y-298161D01*
X455646D01*
Y-297894D01*
X456180D01*
Y-297627D01*
X456714D01*
Y-297360D01*
X457248D01*
Y-297093D01*
X457782D01*
Y-296826D01*
X458048D01*
Y-296560D01*
X458582D01*
Y-296293D01*
X458849D01*
Y-296026D01*
X459383D01*
Y-295759D01*
X459650D01*
Y-295492D01*
X460184D01*
Y-295225D01*
X460451D01*
Y-294958D01*
X460718D01*
Y-294691D01*
X461252D01*
Y-294424D01*
X461519D01*
Y-294157D01*
X461786D01*
Y-293890D01*
X462053D01*
Y-293623D01*
X462319D01*
Y-293356D01*
X462853D01*
Y-293089D01*
X463120D01*
Y-292822D01*
X463387D01*
Y-292556D01*
X463654D01*
Y-292289D01*
X463921D01*
Y-292022D01*
X464188D01*
Y-291755D01*
X464455D01*
Y-291488D01*
X464722D01*
Y-291221D01*
X464989D01*
Y-290954D01*
X465256D01*
Y-290420D01*
X465523D01*
Y-290153D01*
X465789D01*
Y-289886D01*
X466056D01*
Y-289619D01*
X466323D01*
Y-289086D01*
X466590D01*
Y-288819D01*
X466857D01*
Y-288552D01*
X467124D01*
Y-288018D01*
X467391D01*
Y-287751D01*
X467658D01*
Y-287217D01*
X467925D01*
Y-286950D01*
X468192D01*
Y-286416D01*
X468459D01*
Y-286149D01*
X468726D01*
Y-285615D01*
X468993D01*
Y-285082D01*
X469260D01*
Y-284548D01*
X469526D01*
Y-284014D01*
X469793D01*
Y-283480D01*
X470060D01*
Y-282946D01*
X470327D01*
Y-282679D01*
X470594D01*
Y-282145D01*
X470861D01*
Y-281611D01*
X471128D01*
Y-281078D01*
X471395D01*
Y-280811D01*
X471662D01*
Y-280277D01*
X471929D01*
Y-280010D01*
X472196D01*
Y-279476D01*
X472463D01*
Y-279209D01*
X472730D01*
Y-278942D01*
X472997D01*
Y-278408D01*
X473264D01*
Y-277875D01*
X473530D01*
Y-277341D01*
X473797D01*
Y-276807D01*
X474064D01*
Y-276273D01*
X474331D01*
Y-275472D01*
X474598D01*
Y-274938D01*
X474865D01*
Y-274137D01*
X475132D01*
Y-273337D01*
X475399D01*
Y-272536D01*
X475666D01*
Y-271735D01*
X475933D01*
Y-270934D01*
X476200D01*
Y-270134D01*
X476467D01*
Y-269066D01*
X476733D01*
Y-268265D01*
X477000D01*
Y-267197D01*
X477267D01*
Y-266130D01*
X477534D01*
Y-265329D01*
X477801D01*
Y-264261D01*
X478068D01*
Y-262926D01*
X478335D01*
Y-261859D01*
X478602D01*
Y-260524D01*
X478869D01*
Y-259190D01*
X479136D01*
Y-257054D01*
X479403D01*
Y-254385D01*
X479670D01*
Y-249313D01*
X479937D01*
Y-243708D01*
X479670D01*
Y-239437D01*
X479403D01*
Y-237035D01*
X479136D01*
Y-235433D01*
X478869D01*
Y-234365D01*
X478602D01*
Y-233030D01*
X478335D01*
Y-232230D01*
X478068D01*
Y-231162D01*
X477801D01*
Y-230361D01*
X477534D01*
Y-229560D01*
X477267D01*
Y-228760D01*
X477000D01*
Y-227959D01*
X476733D01*
Y-227158D01*
X476467D01*
Y-226624D01*
X476200D01*
Y-225823D01*
X475933D01*
Y-225290D01*
X475666D01*
Y-224756D01*
X475399D01*
Y-223955D01*
X475132D01*
Y-223421D01*
X474865D01*
Y-222887D01*
X474598D01*
Y-222353D01*
X474331D01*
Y-221820D01*
X474064D01*
Y-221286D01*
X473797D01*
Y-221019D01*
X473530D01*
Y-220485D01*
X473264D01*
Y-219951D01*
X472997D01*
Y-219417D01*
X472730D01*
Y-219150D01*
X472463D01*
Y-218616D01*
X472196D01*
Y-218083D01*
X471929D01*
Y-217816D01*
X471662D01*
Y-217282D01*
X471395D01*
Y-217015D01*
X471128D01*
Y-216748D01*
X470861D01*
Y-216214D01*
X470594D01*
Y-215947D01*
X470327D01*
Y-215413D01*
X470060D01*
Y-215146D01*
X469793D01*
Y-214879D01*
X469526D01*
Y-214613D01*
X469260D01*
Y-214079D01*
X468993D01*
Y-213812D01*
X468726D01*
Y-213545D01*
X468459D01*
Y-213278D01*
X468192D01*
Y-213011D01*
X467925D01*
Y-212744D01*
X467658D01*
Y-212210D01*
X467391D01*
Y-211943D01*
X467124D01*
Y-211676D01*
X466857D01*
Y-211409D01*
X466590D01*
Y-211142D01*
X466323D01*
Y-210875D01*
X466056D01*
Y-210609D01*
X465789D01*
Y-210342D01*
X465523D01*
Y-210075D01*
X465256D01*
Y-209808D01*
X464989D01*
Y-209541D01*
X464455D01*
Y-209274D01*
X464188D01*
Y-209007D01*
X463921D01*
Y-208740D01*
X463654D01*
Y-208473D01*
X463387D01*
Y-208206D01*
X463120D01*
Y-207939D01*
X462586D01*
Y-207672D01*
X462319D01*
Y-207405D01*
X462053D01*
Y-207138D01*
X461786D01*
Y-206872D01*
X461252D01*
Y-206605D01*
X460985D01*
Y-206338D01*
X460718D01*
Y-206071D01*
X460184D01*
Y-205804D01*
X459917D01*
Y-205537D01*
X459383D01*
Y-205270D01*
X459116D01*
Y-205003D01*
X458582D01*
Y-204736D01*
X458048D01*
Y-204469D01*
X457782D01*
Y-204202D01*
X457248D01*
Y-203935D01*
X456714D01*
Y-203668D01*
X456180D01*
Y-203401D01*
X455646D01*
Y-203135D01*
X455112D01*
Y-202868D01*
X454579D01*
Y-202601D01*
X454045D01*
Y-202334D01*
X453244D01*
Y-202067D01*
X452710D01*
Y-201800D01*
X451909D01*
Y-201533D01*
X451108D01*
Y-201266D01*
X450308D01*
Y-200999D01*
X449507D01*
Y-200732D01*
X448706D01*
Y-200465D01*
X447638D01*
Y-200198D01*
X446838D01*
Y-199931D01*
X445503D01*
Y-199665D01*
X444435D01*
Y-199398D01*
X443101D01*
Y-199131D01*
X441766D01*
Y-198864D01*
X440431D01*
Y-198597D01*
X439630D01*
Y-198330D01*
X439364D01*
Y-197529D01*
X439097D01*
Y-196728D01*
X438830D01*
Y-195928D01*
X438563D01*
Y-195127D01*
X438296D01*
Y-194593D01*
X438029D01*
Y-193792D01*
X437762D01*
Y-193258D01*
X437495D01*
Y-192724D01*
X437228D01*
Y-192190D01*
X436961D01*
Y-191657D01*
X436694D01*
Y-191123D01*
X436427D01*
Y-190589D01*
X436160D01*
Y-190055D01*
X435894D01*
Y-189788D01*
X435627D01*
Y-189254D01*
X435360D01*
Y-188720D01*
X435093D01*
Y-188453D01*
X434826D01*
Y-187920D01*
X434559D01*
Y-187653D01*
X434292D01*
Y-187119D01*
X434025D01*
Y-186852D01*
X433758D01*
Y-186585D01*
X433491D01*
Y-186051D01*
X433224D01*
Y-185784D01*
X432957D01*
Y-185517D01*
X432690D01*
Y-185250D01*
X432423D01*
Y-184716D01*
X432156D01*
Y-184450D01*
X431890D01*
Y-184183D01*
X431623D01*
Y-183916D01*
X431356D01*
Y-183649D01*
X431089D01*
Y-183382D01*
X430822D01*
Y-183115D01*
X430555D01*
Y-182848D01*
X430288D01*
Y-182581D01*
X430021D01*
Y-182314D01*
X429754D01*
Y-182047D01*
X429487D01*
Y-181780D01*
X429220D01*
Y-181513D01*
X428953D01*
Y-181246D01*
X428686D01*
Y-180980D01*
X428420D01*
Y-180713D01*
X428153D01*
Y-180446D01*
X427886D01*
Y-180179D01*
X427352D01*
Y-179912D01*
X427085D01*
Y-179645D01*
X426818D01*
Y-179378D01*
X426551D01*
Y-179111D01*
X426017D01*
Y-178844D01*
X425750D01*
Y-178577D01*
X425483D01*
Y-178310D01*
X425216D01*
Y-178043D01*
X424683D01*
Y-177776D01*
X424416D01*
Y-177509D01*
X423882D01*
Y-177243D01*
X423615D01*
Y-176976D01*
X423081D01*
Y-176709D01*
X422814D01*
Y-176442D01*
X422280D01*
Y-176175D01*
X421746D01*
Y-175908D01*
X421479D01*
Y-175641D01*
X420945D01*
Y-175374D01*
X420679D01*
Y-175107D01*
X420145D01*
Y-174840D01*
X419611D01*
Y-174573D01*
X419077D01*
Y-174306D01*
X418543D01*
Y-174039D01*
X418009D01*
Y-173772D01*
X417475D01*
Y-173506D01*
X416942D01*
Y-173239D01*
X416408D01*
Y-172972D01*
X415874D01*
Y-172705D01*
X415073D01*
Y-172438D01*
X414539D01*
Y-172171D01*
X413738D01*
Y-171904D01*
X413205D01*
Y-171637D01*
X412404D01*
Y-171370D01*
X411603D01*
Y-171103D01*
X410802D01*
Y-170836D01*
X410001D01*
Y-170569D01*
X409201D01*
Y-170302D01*
X408400D01*
Y-170035D01*
X407332D01*
Y-169768D01*
X406264D01*
Y-169502D01*
X405197D01*
Y-169235D01*
X403862D01*
Y-168968D01*
X402260D01*
Y-168701D01*
X399324D01*
Y-168434D01*
D02*
G37*
%LPD*%
G36*
X340333Y-210342D02*
X341134D01*
Y-210609D01*
X341668D01*
Y-210875D01*
X341935D01*
Y-211142D01*
X342202D01*
Y-211409D01*
X342469D01*
Y-211676D01*
X342736D01*
Y-211943D01*
X343002D01*
Y-212477D01*
X343269D01*
Y-213278D01*
X343536D01*
Y-214613D01*
X343803D01*
Y-217282D01*
X343536D01*
Y-218883D01*
X343269D01*
Y-219951D01*
X343002D01*
Y-221019D01*
X342736D01*
Y-221820D01*
X342469D01*
Y-222353D01*
X342202D01*
Y-223154D01*
X341935D01*
Y-223688D01*
X341668D01*
Y-224222D01*
X341401D01*
Y-224756D01*
X341134D01*
Y-225290D01*
X340867D01*
Y-225556D01*
X340600D01*
Y-226090D01*
X340333D01*
Y-226357D01*
X340066D01*
Y-226891D01*
X339799D01*
Y-227158D01*
X339532D01*
Y-227692D01*
X339265D01*
Y-227959D01*
X338998D01*
Y-228226D01*
X338732D01*
Y-228760D01*
X338465D01*
Y-229027D01*
X338198D01*
Y-229294D01*
X337931D01*
Y-229560D01*
X337664D01*
Y-229827D01*
X337397D01*
Y-230094D01*
X337130D01*
Y-230361D01*
X336863D01*
Y-230628D01*
X336596D01*
Y-230895D01*
X336329D01*
Y-231162D01*
X336062D01*
Y-231429D01*
X335795D01*
Y-231696D01*
X335528D01*
Y-231963D01*
X335262D01*
Y-232230D01*
X334995D01*
Y-232497D01*
X334728D01*
Y-232764D01*
X334461D01*
Y-233030D01*
X333927D01*
Y-233298D01*
X333660D01*
Y-233564D01*
X333393D01*
Y-233831D01*
X332859D01*
Y-234098D01*
X332592D01*
Y-234365D01*
X332325D01*
Y-234632D01*
X331791D01*
Y-234899D01*
X331524D01*
Y-235166D01*
X330991D01*
Y-235433D01*
X330724D01*
Y-235700D01*
X330190D01*
Y-235967D01*
X329656D01*
Y-236234D01*
X329122D01*
Y-236501D01*
X328855D01*
Y-236768D01*
X328321D01*
Y-237035D01*
X327788D01*
Y-237301D01*
X327254D01*
Y-237568D01*
X326453D01*
Y-237835D01*
X325919D01*
Y-238102D01*
X325118D01*
Y-238369D01*
X324584D01*
Y-238636D01*
X323784D01*
Y-238903D01*
X322983D01*
Y-239170D01*
X321915D01*
Y-239437D01*
X320847D01*
Y-239704D01*
X319780D01*
Y-239971D01*
X318445D01*
Y-240238D01*
X316843D01*
Y-240505D01*
X314975D01*
Y-240772D01*
X312573D01*
Y-241038D01*
X306967D01*
Y-240772D01*
X305899D01*
Y-240505D01*
X305365D01*
Y-240238D01*
X304832D01*
Y-239971D01*
X304298D01*
Y-239704D01*
X304031D01*
Y-239437D01*
X303764D01*
Y-239170D01*
X303497D01*
Y-238903D01*
X303230D01*
Y-238369D01*
X302963D01*
Y-238102D01*
X302696D01*
Y-237301D01*
X302429D01*
Y-234365D01*
X302696D01*
Y-233831D01*
X302963D01*
Y-233298D01*
X303230D01*
Y-232764D01*
X303497D01*
Y-232497D01*
X303764D01*
Y-232230D01*
X304031D01*
Y-231963D01*
X304565D01*
Y-231696D01*
X304832D01*
Y-231429D01*
X305632D01*
Y-231162D01*
X306700D01*
Y-230895D01*
X308035D01*
Y-230628D01*
X310437D01*
Y-230361D01*
X313106D01*
Y-230094D01*
X314975D01*
Y-229827D01*
X316310D01*
Y-229560D01*
X317644D01*
Y-229294D01*
X318712D01*
Y-229027D01*
X319780D01*
Y-228760D01*
X320580D01*
Y-228493D01*
X321381D01*
Y-228226D01*
X321915D01*
Y-227959D01*
X322716D01*
Y-227692D01*
X323250D01*
Y-227425D01*
X323784D01*
Y-227158D01*
X324317D01*
Y-226891D01*
X324851D01*
Y-226624D01*
X325385D01*
Y-226357D01*
X325652D01*
Y-226090D01*
X326186D01*
Y-225823D01*
X326720D01*
Y-225556D01*
X326987D01*
Y-225290D01*
X327254D01*
Y-225023D01*
X327788D01*
Y-224756D01*
X328054D01*
Y-224489D01*
X328321D01*
Y-224222D01*
X328588D01*
Y-223955D01*
X328855D01*
Y-223688D01*
X329122D01*
Y-223421D01*
X329389D01*
Y-223154D01*
X329656D01*
Y-222887D01*
X329923D01*
Y-222620D01*
X330190D01*
Y-222353D01*
X330457D01*
Y-222087D01*
X330724D01*
Y-221553D01*
X330991D01*
Y-221286D01*
X331258D01*
Y-220752D01*
X331524D01*
Y-220218D01*
X331791D01*
Y-219951D01*
X332058D01*
Y-219417D01*
X332325D01*
Y-218616D01*
X332592D01*
Y-218083D01*
X332859D01*
Y-217282D01*
X333126D01*
Y-216214D01*
X333393D01*
Y-215680D01*
Y-215413D01*
Y-215146D01*
X333660D01*
Y-214079D01*
X333927D01*
Y-213278D01*
X334194D01*
Y-212744D01*
X334461D01*
Y-212210D01*
X334728D01*
Y-211676D01*
X334995D01*
Y-211409D01*
X335262D01*
Y-211142D01*
X335528D01*
Y-210875D01*
X336062D01*
Y-210609D01*
X336596D01*
Y-210342D01*
X337397D01*
Y-210075D01*
X340333D01*
Y-210342D01*
D02*
G37*
G36*
X298692Y-314978D02*
X300294D01*
Y-315245D01*
X301628D01*
Y-315511D01*
X302696D01*
Y-315778D01*
X303497D01*
Y-316045D01*
X304565D01*
Y-316312D01*
X305365D01*
Y-316579D01*
X306166D01*
Y-316846D01*
X306700D01*
Y-317113D01*
X307501D01*
Y-317380D01*
X308035D01*
Y-317647D01*
X308836D01*
Y-317914D01*
X309369D01*
Y-318181D01*
X309903D01*
Y-318448D01*
X310437D01*
Y-318715D01*
X310971D01*
Y-318981D01*
X311505D01*
Y-319248D01*
X312039D01*
Y-319515D01*
X312306D01*
Y-319782D01*
X312839D01*
Y-320049D01*
X313373D01*
Y-320316D01*
X313907D01*
Y-320583D01*
X314174D01*
Y-320850D01*
X314708D01*
Y-321117D01*
X314975D01*
Y-321384D01*
X315509D01*
Y-321651D01*
X315776D01*
Y-321918D01*
X316043D01*
Y-322185D01*
X316577D01*
Y-322452D01*
X316843D01*
Y-322719D01*
X317110D01*
Y-322985D01*
X317377D01*
Y-323252D01*
X317911D01*
Y-323519D01*
X318178D01*
Y-323786D01*
X318445D01*
Y-324053D01*
X318712D01*
Y-324320D01*
X318979D01*
Y-324587D01*
X319246D01*
Y-324854D01*
X319513D01*
Y-325121D01*
X320047D01*
Y-325388D01*
X320313D01*
Y-325655D01*
X320580D01*
Y-325922D01*
X320847D01*
Y-326189D01*
X321114D01*
Y-326455D01*
X321381D01*
Y-326989D01*
X321648D01*
Y-327256D01*
X321915D01*
Y-327523D01*
X322182D01*
Y-327790D01*
X322449D01*
Y-328057D01*
X322716D01*
Y-328324D01*
X322983D01*
Y-328591D01*
X323250D01*
Y-329125D01*
X323517D01*
Y-329392D01*
X323784D01*
Y-329659D01*
X324050D01*
Y-329926D01*
X324317D01*
Y-330459D01*
X324584D01*
Y-330726D01*
X324851D01*
Y-331260D01*
X325118D01*
Y-331527D01*
X325385D01*
Y-332061D01*
X325652D01*
Y-332328D01*
X325919D01*
Y-332862D01*
X326186D01*
Y-333129D01*
X326453D01*
Y-333663D01*
X326720D01*
Y-334196D01*
X326987D01*
Y-334463D01*
X327254D01*
Y-334997D01*
X327521D01*
Y-335531D01*
X327788D01*
Y-336065D01*
X328054D01*
Y-336599D01*
X328321D01*
Y-337133D01*
X328588D01*
Y-337666D01*
X328855D01*
Y-338200D01*
X329122D01*
Y-338734D01*
X329389D01*
Y-339535D01*
X329656D01*
Y-340069D01*
X329923D01*
Y-340870D01*
X330190D01*
Y-341670D01*
X330457D01*
Y-342204D01*
X330724D01*
Y-343272D01*
X330991D01*
Y-344073D01*
X331258D01*
Y-344874D01*
X331524D01*
Y-345941D01*
X331791D01*
Y-347276D01*
X332058D01*
Y-348344D01*
X332325D01*
Y-349945D01*
X332592D01*
Y-351547D01*
X332859D01*
Y-353415D01*
X333126D01*
Y-356085D01*
X333393D01*
Y-361156D01*
X333126D01*
Y-363559D01*
X332859D01*
Y-364092D01*
X332592D01*
Y-364626D01*
X332325D01*
Y-364893D01*
X332058D01*
Y-365160D01*
X331524D01*
Y-365427D01*
X331258D01*
Y-365694D01*
X330724D01*
Y-365961D01*
X330190D01*
Y-366228D01*
X329122D01*
Y-366495D01*
X327521D01*
Y-366228D01*
X326453D01*
Y-365961D01*
X325919D01*
Y-365694D01*
X325385D01*
Y-365427D01*
X325118D01*
Y-365160D01*
X324851D01*
Y-364893D01*
X324584D01*
Y-364626D01*
X324317D01*
Y-364359D01*
X324050D01*
Y-363825D01*
X323784D01*
Y-363025D01*
X323517D01*
Y-361423D01*
X323250D01*
Y-359288D01*
X322983D01*
Y-357152D01*
X322716D01*
Y-355017D01*
X322449D01*
Y-352881D01*
X322182D01*
Y-351280D01*
X321915D01*
Y-349945D01*
X321648D01*
Y-348611D01*
X321381D01*
Y-347543D01*
X321114D01*
Y-346742D01*
X320847D01*
Y-345941D01*
X320580D01*
Y-345140D01*
X320313D01*
Y-344340D01*
X320047D01*
Y-343806D01*
X319780D01*
Y-343005D01*
X319513D01*
Y-342471D01*
X319246D01*
Y-341937D01*
X318979D01*
Y-341404D01*
X318712D01*
Y-340870D01*
X318445D01*
Y-340336D01*
X318178D01*
Y-339802D01*
X317911D01*
Y-339268D01*
X317644D01*
Y-338734D01*
X317377D01*
Y-338467D01*
X317110D01*
Y-337933D01*
X316843D01*
Y-337666D01*
X316577D01*
Y-337133D01*
X316310D01*
Y-336866D01*
X316043D01*
Y-336332D01*
X315776D01*
Y-336065D01*
X315509D01*
Y-335798D01*
X315242D01*
Y-335264D01*
X314975D01*
Y-334997D01*
X314708D01*
Y-334730D01*
X314441D01*
Y-334463D01*
X314174D01*
Y-334196D01*
X313907D01*
Y-333930D01*
X313640D01*
Y-333663D01*
X313373D01*
Y-333129D01*
X313106D01*
Y-332862D01*
X312573D01*
Y-332595D01*
X312306D01*
Y-332328D01*
X312039D01*
Y-332061D01*
X311772D01*
Y-331794D01*
X311505D01*
Y-331527D01*
X311238D01*
Y-331260D01*
X310704D01*
Y-330993D01*
X310437D01*
Y-330726D01*
X310170D01*
Y-330459D01*
X309636D01*
Y-330192D01*
X309369D01*
Y-329926D01*
X308836D01*
Y-329659D01*
X308569D01*
Y-329392D01*
X308035D01*
Y-329125D01*
X307501D01*
Y-328858D01*
X307234D01*
Y-328591D01*
X306700D01*
Y-328324D01*
X306166D01*
Y-328057D01*
X305632D01*
Y-327790D01*
X304832D01*
Y-327523D01*
X304298D01*
Y-327256D01*
X303764D01*
Y-326989D01*
X302963D01*
Y-326722D01*
X302162D01*
Y-326455D01*
X301628D01*
Y-326189D01*
X300561D01*
Y-325922D01*
X299760D01*
Y-325655D01*
X298959D01*
Y-325388D01*
X297892D01*
Y-325121D01*
X297091D01*
Y-324854D01*
X296290D01*
Y-324587D01*
X295489D01*
Y-324320D01*
X294955D01*
Y-324053D01*
X294421D01*
Y-323786D01*
X294154D01*
Y-323519D01*
X293621D01*
Y-323252D01*
X293354D01*
Y-322985D01*
X293087D01*
Y-322719D01*
X292820D01*
Y-322452D01*
X292553D01*
Y-321918D01*
X292286D01*
Y-320850D01*
X292019D01*
Y-318448D01*
X292286D01*
Y-317647D01*
X292553D01*
Y-316846D01*
X292820D01*
Y-316579D01*
X293087D01*
Y-316312D01*
X293354D01*
Y-316045D01*
X293621D01*
Y-315778D01*
X293888D01*
Y-315511D01*
X294154D01*
Y-315245D01*
X294688D01*
Y-314978D01*
X295489D01*
Y-314711D01*
X298692D01*
Y-314978D01*
D02*
G37*
G36*
X412404Y-220485D02*
X413471D01*
Y-220752D01*
X414005D01*
Y-221019D01*
X414539D01*
Y-221286D01*
X414806D01*
Y-221553D01*
X415340D01*
Y-221820D01*
X415607D01*
Y-222087D01*
X415874D01*
Y-222353D01*
X416141D01*
Y-222887D01*
X416408D01*
Y-223154D01*
X416675D01*
Y-223955D01*
X416942D01*
Y-224756D01*
X417209D01*
Y-225823D01*
X417475D01*
Y-227158D01*
X417742D01*
Y-228493D01*
X418009D01*
Y-229294D01*
X418276D01*
Y-230361D01*
X418543D01*
Y-231162D01*
X418810D01*
Y-231963D01*
X419077D01*
Y-232497D01*
X419344D01*
Y-233298D01*
X419611D01*
Y-233831D01*
X419878D01*
Y-234365D01*
X420145D01*
Y-234899D01*
X420412D01*
Y-235433D01*
X420679D01*
Y-235700D01*
X420945D01*
Y-236234D01*
X421212D01*
Y-236768D01*
X421479D01*
Y-237035D01*
X421746D01*
Y-237568D01*
X422013D01*
Y-237835D01*
X422280D01*
Y-238369D01*
X422547D01*
Y-238636D01*
X422814D01*
Y-238903D01*
X423081D01*
Y-239437D01*
X423348D01*
Y-239704D01*
X423615D01*
Y-239971D01*
X423882D01*
Y-240238D01*
X424149D01*
Y-240505D01*
X424416D01*
Y-240772D01*
X424683D01*
Y-241038D01*
X424949D01*
Y-241305D01*
X425216D01*
Y-241572D01*
X425483D01*
Y-241839D01*
X425750D01*
Y-242106D01*
X426017D01*
Y-242373D01*
X426284D01*
Y-242640D01*
X426551D01*
Y-242907D01*
X427085D01*
Y-243174D01*
X427352D01*
Y-243441D01*
X427619D01*
Y-243708D01*
X427886D01*
Y-243975D01*
X428420D01*
Y-244242D01*
X428686D01*
Y-244508D01*
X428953D01*
Y-244775D01*
X429487D01*
Y-245042D01*
X429754D01*
Y-245309D01*
X430288D01*
Y-245576D01*
X430555D01*
Y-245843D01*
X431089D01*
Y-246110D01*
X431623D01*
Y-246377D01*
X431890D01*
Y-246644D01*
X432423D01*
Y-246911D01*
X432957D01*
Y-247178D01*
X433491D01*
Y-247445D01*
X434025D01*
Y-247712D01*
X434559D01*
Y-247979D01*
X435360D01*
Y-248245D01*
X435894D01*
Y-248512D01*
X436694D01*
Y-248779D01*
X437228D01*
Y-249046D01*
X438296D01*
Y-249313D01*
X439097D01*
Y-249580D01*
X439897D01*
Y-249847D01*
X440965D01*
Y-250114D01*
X442033D01*
Y-250381D01*
X443368D01*
Y-250648D01*
X444969D01*
Y-250915D01*
X447104D01*
Y-251182D01*
X449774D01*
Y-251449D01*
X452443D01*
Y-251715D01*
X454045D01*
Y-251982D01*
X455379D01*
Y-252249D01*
X456180D01*
Y-252516D01*
X456714D01*
Y-252783D01*
X457248D01*
Y-253050D01*
X457515D01*
Y-253317D01*
X457782D01*
Y-253584D01*
X458048D01*
Y-253851D01*
X458315D01*
Y-254385D01*
X458582D01*
Y-254919D01*
X458849D01*
Y-255986D01*
X459116D01*
Y-257588D01*
X458849D01*
Y-258656D01*
X458582D01*
Y-259190D01*
X458315D01*
Y-259456D01*
X458048D01*
Y-259990D01*
X457782D01*
Y-260257D01*
X457515D01*
Y-260524D01*
X457248D01*
Y-260791D01*
X456981D01*
Y-261058D01*
X456447D01*
Y-261325D01*
X455913D01*
Y-261592D01*
X455379D01*
Y-261859D01*
X448439D01*
Y-261592D01*
X446037D01*
Y-261325D01*
X444168D01*
Y-261058D01*
X442300D01*
Y-260791D01*
X440965D01*
Y-260524D01*
X439630D01*
Y-260257D01*
X438296D01*
Y-259990D01*
X437228D01*
Y-259723D01*
X436427D01*
Y-259456D01*
X435627D01*
Y-259190D01*
X434826D01*
Y-258923D01*
X434025D01*
Y-258656D01*
X433224D01*
Y-258389D01*
X432690D01*
Y-258122D01*
X431890D01*
Y-257855D01*
X431356D01*
Y-257588D01*
X430555D01*
Y-257321D01*
X430021D01*
Y-257054D01*
X429487D01*
Y-256787D01*
X428953D01*
Y-256520D01*
X428420D01*
Y-256253D01*
X427886D01*
Y-255986D01*
X427352D01*
Y-255720D01*
X427085D01*
Y-255452D01*
X426551D01*
Y-255186D01*
X426017D01*
Y-254919D01*
X425483D01*
Y-254652D01*
X425216D01*
Y-254385D01*
X424683D01*
Y-254118D01*
X424416D01*
Y-253851D01*
X423882D01*
Y-253584D01*
X423615D01*
Y-253317D01*
X423081D01*
Y-253050D01*
X422814D01*
Y-252783D01*
X422280D01*
Y-252516D01*
X422013D01*
Y-252249D01*
X421746D01*
Y-251982D01*
X421212D01*
Y-251715D01*
X420945D01*
Y-251449D01*
X420679D01*
Y-251182D01*
X420412D01*
Y-250915D01*
X420145D01*
Y-250648D01*
X419611D01*
Y-250381D01*
X419344D01*
Y-250114D01*
X419077D01*
Y-249847D01*
X418810D01*
Y-249580D01*
X418543D01*
Y-249313D01*
X418276D01*
Y-249046D01*
X418009D01*
Y-248779D01*
X417742D01*
Y-248512D01*
X417475D01*
Y-248245D01*
X417209D01*
Y-247979D01*
X416942D01*
Y-247712D01*
X416675D01*
Y-247445D01*
X416408D01*
Y-247178D01*
X416141D01*
Y-246911D01*
X415874D01*
Y-246644D01*
X415607D01*
Y-246377D01*
X415340D01*
Y-246110D01*
X415073D01*
Y-245576D01*
X414806D01*
Y-245309D01*
X414539D01*
Y-245042D01*
X414272D01*
Y-244775D01*
X414005D01*
Y-244242D01*
X413738D01*
Y-243975D01*
X413471D01*
Y-243708D01*
X413205D01*
Y-243174D01*
X412938D01*
Y-242907D01*
X412671D01*
Y-242373D01*
X412404D01*
Y-242106D01*
X412137D01*
Y-241572D01*
X411870D01*
Y-241038D01*
X411603D01*
Y-240772D01*
X411336D01*
Y-240238D01*
X411069D01*
Y-239704D01*
X410802D01*
Y-239170D01*
X410535D01*
Y-238636D01*
X410268D01*
Y-238102D01*
X410001D01*
Y-237568D01*
X409735D01*
Y-236768D01*
X409468D01*
Y-236234D01*
X409201D01*
Y-235700D01*
X408934D01*
Y-234899D01*
X408667D01*
Y-234098D01*
X408400D01*
Y-233298D01*
X408133D01*
Y-232497D01*
X407866D01*
Y-231429D01*
X407599D01*
Y-230094D01*
X407332D01*
Y-228493D01*
X407065D01*
Y-225023D01*
X407332D01*
Y-223688D01*
X407599D01*
Y-223154D01*
X407866D01*
Y-222620D01*
X408133D01*
Y-222087D01*
X408400D01*
Y-221820D01*
X408667D01*
Y-221553D01*
X408934D01*
Y-221286D01*
X409201D01*
Y-221019D01*
X409735D01*
Y-220752D01*
X410268D01*
Y-220485D01*
X411336D01*
Y-220218D01*
X412404D01*
Y-220485D01*
D02*
G37*
D43*
X237083Y395179D02*
Y372220D01*
X241675Y367629D01*
X250858D01*
X255450Y372220D01*
Y395179D01*
X283000Y390587D02*
X278408Y395179D01*
X269225D01*
X264633Y390587D01*
Y385995D01*
X269225Y381404D01*
X278408D01*
X283000Y376812D01*
Y372220D01*
X278408Y367629D01*
X269225D01*
X264633Y372220D01*
X292183Y395179D02*
Y367629D01*
X305959D01*
X310550Y372220D01*
Y376812D01*
X305959Y381404D01*
X292183D01*
X305959D01*
X310550Y385995D01*
Y390587D01*
X305959Y395179D01*
X292183D01*
X319734Y381404D02*
X338100D01*
X365651Y390587D02*
X361059Y395179D01*
X351875D01*
X347284Y390587D01*
Y372220D01*
X351875Y367629D01*
X361059D01*
X365651Y372220D01*
X402384Y367629D02*
Y395179D01*
X416159D01*
X420751Y390587D01*
Y381404D01*
X416159Y376812D01*
X402384D01*
X434526Y367629D02*
X443709D01*
X448301Y372220D01*
Y381404D01*
X443709Y385995D01*
X434526D01*
X429934Y381404D01*
Y372220D01*
X434526Y367629D01*
X457485Y385995D02*
Y372220D01*
X462076Y367629D01*
X466668Y372220D01*
X471260Y367629D01*
X475851Y372220D01*
Y385995D01*
X498810Y367629D02*
X489627D01*
X485035Y372220D01*
Y381404D01*
X489627Y385995D01*
X498810D01*
X503402Y381404D01*
Y376812D01*
X485035D01*
X512585Y385995D02*
Y367629D01*
Y376812D01*
X517177Y381404D01*
X521768Y385995D01*
X526360D01*
X540135Y367629D02*
Y385995D01*
X544727D01*
X549319Y381404D01*
Y367629D01*
Y381404D01*
X553910Y385995D01*
X558502Y381404D01*
Y367629D01*
X581461D02*
X572277D01*
X567685Y372220D01*
Y381404D01*
X572277Y385995D01*
X581461D01*
X586052Y381404D01*
Y376812D01*
X567685D01*
X599827Y390587D02*
Y385995D01*
X595236D01*
X604419D01*
X599827D01*
Y372220D01*
X604419Y367629D01*
X631969D02*
X622786D01*
X618194Y372220D01*
Y381404D01*
X622786Y385995D01*
X631969D01*
X636561Y381404D01*
Y376812D01*
X618194D01*
X645744Y385995D02*
Y367629D01*
Y376812D01*
X650336Y381404D01*
X654928Y385995D01*
X659519D01*
X237083Y351243D02*
Y332876D01*
X246266Y323693D01*
X255450Y332876D01*
Y351243D01*
X264633Y323693D02*
X273817D01*
X269225D01*
Y351243D01*
X264633Y346651D01*
X287592Y323693D02*
Y328284D01*
X292183D01*
Y323693D01*
X287592D01*
X310550Y346651D02*
X315142Y351243D01*
X324325D01*
X328917Y346651D01*
Y328284D01*
X324325Y323693D01*
X315142D01*
X310550Y328284D01*
Y346651D01*
X308011Y464050D02*
Y424693D01*
X327690D01*
X334249Y431252D01*
Y437812D01*
X327690Y444372D01*
X308011D01*
X327690D01*
X334249Y450931D01*
Y457491D01*
X327690Y464050D01*
X308011D01*
X347368D02*
X360487D01*
X353928D01*
Y424693D01*
X347368D01*
X360487D01*
X406404Y457491D02*
X399845Y464050D01*
X386726D01*
X380166Y457491D01*
Y431252D01*
X386726Y424693D01*
X399845D01*
X406404Y431252D01*
Y444372D01*
X393285D01*
X458881Y464050D02*
Y424693D01*
X478560D01*
X485119Y431252D01*
Y437812D01*
X478560Y444372D01*
X458881D01*
X478560D01*
X485119Y450931D01*
Y457491D01*
X478560Y464050D01*
X458881D01*
X498238Y424693D02*
Y464050D01*
X517917D01*
X524476Y457491D01*
Y444372D01*
X517917Y437812D01*
X498238D01*
X511357D02*
X524476Y424693D01*
X537596D02*
Y450931D01*
X550715Y464050D01*
X563834Y450931D01*
Y424693D01*
Y444372D01*
X537596D01*
X576953Y464050D02*
X590072D01*
X583513D01*
Y424693D01*
X576953D01*
X590072D01*
X609751D02*
Y464050D01*
X635989Y424693D01*
Y464050D01*
X1211811Y293322D02*
X1192132D01*
Y303161D01*
X1195412Y306441D01*
X1201972D01*
X1205252Y303161D01*
Y293322D01*
X1211811Y316280D02*
Y322839D01*
X1208531Y326119D01*
X1201972D01*
X1198692Y322839D01*
Y316280D01*
X1201972Y313000D01*
X1208531D01*
X1211811Y316280D01*
X1198692Y332679D02*
X1208531D01*
X1211811Y335959D01*
X1208531Y339238D01*
X1211811Y342518D01*
X1208531Y345798D01*
X1198692D01*
X1211811Y362197D02*
Y355637D01*
X1208531Y352357D01*
X1201972D01*
X1198692Y355637D01*
Y362197D01*
X1201972Y365476D01*
X1205252D01*
Y352357D01*
X1198692Y372036D02*
X1211811D01*
X1205252D01*
X1201972Y375316D01*
X1198692Y378596D01*
Y381875D01*
X1327302Y300210D02*
X1324022Y296930D01*
Y290370D01*
X1327302Y287091D01*
X1330582D01*
X1333862Y290370D01*
Y296930D01*
X1337141Y300210D01*
X1340421D01*
X1343701Y296930D01*
Y290370D01*
X1340421Y287091D01*
X1327302Y310049D02*
X1330582D01*
Y306769D01*
Y313329D01*
Y310049D01*
X1340421D01*
X1343701Y313329D01*
X1330582Y326448D02*
Y333007D01*
X1333862Y336287D01*
X1343701D01*
Y326448D01*
X1340421Y323168D01*
X1337141Y326448D01*
Y336287D01*
X1327302Y346127D02*
X1330582D01*
Y342847D01*
Y349406D01*
Y346127D01*
X1340421D01*
X1343701Y349406D01*
X1330582Y359246D02*
X1340421D01*
X1343701Y362525D01*
Y372365D01*
X1330582D01*
X1343701Y378924D02*
Y388764D01*
X1340421Y392043D01*
X1337141Y388764D01*
Y382204D01*
X1333862Y378924D01*
X1330582Y382204D01*
Y392043D01*
D44*
X1193564Y565936D02*
X1184380Y561344D01*
X1175197Y552161D01*
Y542977D01*
X1179789Y538386D01*
X1188972D01*
X1193564Y542977D01*
Y547569D01*
X1188972Y552161D01*
X1175197D01*
X643701Y539370D02*
X652884D01*
X648293D01*
Y566920D01*
X643701Y562329D01*
X113855Y-202433D02*
X104671D01*
X109263D01*
Y-225391D01*
X104671Y-229983D01*
X100080D01*
X95488Y-225391D01*
X123038Y-234575D02*
X141405D01*
X150588Y-202433D02*
X159772D01*
X155180D01*
Y-229983D01*
X150588D01*
X159772D01*
X173547D02*
Y-202433D01*
X191914Y-229983D01*
Y-202433D01*
X1444241Y-135504D02*
X1435057D01*
X1439649D01*
Y-158462D01*
X1435057Y-163054D01*
X1430465D01*
X1425874Y-158462D01*
X1453424Y-167646D02*
X1471791D01*
X1494749Y-135504D02*
X1485566D01*
X1480974Y-140095D01*
Y-158462D01*
X1485566Y-163054D01*
X1494749D01*
X1499341Y-158462D01*
Y-140095D01*
X1494749Y-135504D01*
X1508524D02*
Y-158462D01*
X1513116Y-163054D01*
X1522299D01*
X1526891Y-158462D01*
Y-135504D01*
X1536074D02*
X1554441D01*
X1545258D01*
Y-163054D01*
X998691Y-174536D02*
X994099Y-179127D01*
Y-188311D01*
X998691Y-192902D01*
X1017057D01*
X1021649Y-188311D01*
Y-179127D01*
X1017057Y-174536D01*
X1021649Y-165352D02*
Y-156169D01*
Y-160761D01*
X994099D01*
X998691Y-165352D01*
X1021649Y-124027D02*
Y-142394D01*
X1003282Y-124027D01*
X998691D01*
X994099Y-128619D01*
Y-137802D01*
X998691Y-142394D01*
X1140423Y-163054D02*
X1135831Y-167646D01*
Y-176829D01*
X1140423Y-181421D01*
X1158790D01*
X1163381Y-176829D01*
Y-167646D01*
X1158790Y-163054D01*
X1163381Y-153871D02*
Y-144687D01*
Y-149279D01*
X1135831D01*
X1140423Y-153871D01*
X1163381Y-130912D02*
Y-121729D01*
Y-126320D01*
X1135831D01*
X1140423Y-130912D01*
X960626Y34770D02*
X937667D01*
X933076Y30178D01*
Y20994D01*
X937667Y16403D01*
X960626D01*
X956034Y7219D02*
X960626Y2628D01*
Y-6556D01*
X956034Y-11148D01*
X951442D01*
X946851Y-6556D01*
Y-1964D01*
Y-6556D01*
X942259Y-11148D01*
X937667D01*
X933076Y-6556D01*
Y2628D01*
X937667Y7219D01*
X942593Y135822D02*
Y112864D01*
X947184Y108272D01*
X956368D01*
X960960Y112864D01*
Y135822D01*
X988510Y108272D02*
X970143D01*
X988510Y126639D01*
Y131231D01*
X983918Y135822D01*
X974735D01*
X970143Y131231D01*
X593838Y322830D02*
Y299872D01*
X598430Y295280D01*
X607613D01*
X612205Y299872D01*
Y322830D01*
X621388Y295280D02*
X630572D01*
X625980D01*
Y322830D01*
X621388Y318238D01*
X1346136Y129926D02*
Y157476D01*
X1359911D01*
X1364503Y152884D01*
Y143701D01*
X1359911Y139109D01*
X1346136D01*
X1355319D02*
X1364503Y129926D01*
X1373686Y134517D02*
X1378278Y129926D01*
X1387461D01*
X1392053Y134517D01*
Y152884D01*
X1387461Y157476D01*
X1378278D01*
X1373686Y152884D01*
Y148292D01*
X1378278Y143701D01*
X1392053D01*
X1344168Y82682D02*
Y110232D01*
X1357943D01*
X1362534Y105640D01*
Y96457D01*
X1357943Y91865D01*
X1344168D01*
X1353351D02*
X1362534Y82682D01*
X1371718Y105640D02*
X1376309Y110232D01*
X1385493D01*
X1390084Y105640D01*
Y101048D01*
X1385493Y96457D01*
X1390084Y91865D01*
Y87273D01*
X1385493Y82682D01*
X1376309D01*
X1371718Y87273D01*
Y91865D01*
X1376309Y96457D01*
X1371718Y101048D01*
Y105640D01*
X1376309Y96457D02*
X1385493D01*
X702435Y-434051D02*
Y-406500D01*
X716210D01*
X720802Y-411092D01*
Y-420276D01*
X716210Y-424867D01*
X702435D01*
X711619D02*
X720802Y-434051D01*
X729985Y-406500D02*
X748352D01*
Y-411092D01*
X729985Y-429459D01*
Y-434051D01*
X754917Y354994D02*
X727366D01*
Y368769D01*
X731958Y373361D01*
X741141D01*
X745733Y368769D01*
Y354994D01*
Y364178D02*
X754917Y373361D01*
X727366Y400911D02*
X731958Y391728D01*
X741141Y382545D01*
X750325D01*
X754917Y387136D01*
Y396320D01*
X750325Y400911D01*
X745733D01*
X741141Y396320D01*
Y382545D01*
X1076451Y-432082D02*
Y-404532D01*
X1090226D01*
X1094818Y-409124D01*
Y-418307D01*
X1090226Y-422899D01*
X1076451D01*
X1085634D02*
X1094818Y-432082D01*
X1122368Y-404532D02*
X1104001D01*
Y-418307D01*
X1113185Y-413715D01*
X1117776D01*
X1122368Y-418307D01*
Y-427490D01*
X1117776Y-432082D01*
X1108593D01*
X1104001Y-427490D01*
X1058734Y136815D02*
Y164366D01*
X1072509D01*
X1077101Y159774D01*
Y150591D01*
X1072509Y145999D01*
X1058734D01*
X1067918D02*
X1077101Y136815D01*
X1100060D02*
Y164366D01*
X1086285Y150591D01*
X1104651D01*
X1117790Y135831D02*
Y163381D01*
X1131565D01*
X1136156Y158790D01*
Y149606D01*
X1131565Y145015D01*
X1117790D01*
X1126973D02*
X1136156Y135831D01*
X1145340Y158790D02*
X1149931Y163381D01*
X1159115D01*
X1163707Y158790D01*
Y154198D01*
X1159115Y149606D01*
X1154523D01*
X1159115D01*
X1163707Y145015D01*
Y140423D01*
X1159115Y135831D01*
X1149931D01*
X1145340Y140423D01*
X887475Y-18696D02*
Y8854D01*
X901250D01*
X905841Y4262D01*
Y-4921D01*
X901250Y-9513D01*
X887475D01*
X896658D02*
X905841Y-18696D01*
X933392D02*
X915025D01*
X933392Y-330D01*
Y4262D01*
X928800Y8854D01*
X919616D01*
X915025Y4262D01*
X417657Y-92515D02*
Y-64965D01*
X431432D01*
X436024Y-69557D01*
Y-78740D01*
X431432Y-83332D01*
X417657D01*
X426840D02*
X436024Y-92515D01*
X445207D02*
X454390D01*
X449799D01*
Y-64965D01*
X445207Y-69557D01*
X618444Y485241D02*
Y512791D01*
X632219D01*
X636811Y508199D01*
Y499016D01*
X632219Y494424D01*
X618444D01*
X645994Y485241D02*
X655178D01*
X650586D01*
Y512791D01*
X645994Y508199D01*
X479665Y161413D02*
Y133863D01*
X498031D01*
X507215D02*
X516398D01*
X511807D01*
Y161413D01*
X507215Y156821D01*
X1280516Y316608D02*
X1308066D01*
Y330383D01*
X1303475Y334975D01*
X1285108D01*
X1280516Y330383D01*
Y316608D01*
X1285108Y344159D02*
X1280516Y348750D01*
Y357934D01*
X1285108Y362525D01*
X1289699D01*
X1294291Y357934D01*
Y353342D01*
Y357934D01*
X1298883Y362525D01*
X1303475D01*
X1308066Y357934D01*
Y348750D01*
X1303475Y344159D01*
X1229335Y315624D02*
X1256885D01*
Y329399D01*
X1252294Y333991D01*
X1233927D01*
X1229335Y329399D01*
Y315624D01*
X1256885Y361541D02*
Y343174D01*
X1238518Y361541D01*
X1233927D01*
X1229335Y356950D01*
Y347766D01*
X1233927Y343174D01*
X802499Y-189965D02*
Y-217515D01*
X816274D01*
X820866Y-212924D01*
Y-194557D01*
X816274Y-189965D01*
X802499D01*
X830049Y-217515D02*
X839233D01*
X834641D01*
Y-189965D01*
X830049Y-194557D01*
X595150Y-407155D02*
X590558Y-402563D01*
X581375D01*
X576783Y-407155D01*
Y-425522D01*
X581375Y-430114D01*
X590558D01*
X595150Y-425522D01*
X604333Y-430114D02*
X613516D01*
X608925D01*
Y-402563D01*
X604333Y-407155D01*
X627292D02*
X631883Y-402563D01*
X641067D01*
X645658Y-407155D01*
Y-425522D01*
X641067Y-430114D01*
X631883D01*
X627292Y-425522D01*
Y-407155D01*
X660763Y-252628D02*
X656171Y-248036D01*
X646987D01*
X642396Y-252628D01*
Y-270994D01*
X646987Y-275586D01*
X656171D01*
X660763Y-270994D01*
X669946D02*
X674538Y-275586D01*
X683721D01*
X688313Y-270994D01*
Y-252628D01*
X683721Y-248036D01*
X674538D01*
X669946Y-252628D01*
Y-257219D01*
X674538Y-261811D01*
X688313D01*
X849739Y3278D02*
X845147Y7870D01*
X835964D01*
X831372Y3278D01*
Y-15089D01*
X835964Y-19681D01*
X845147D01*
X849739Y-15089D01*
X858922Y3278D02*
X863514Y7870D01*
X872697D01*
X877289Y3278D01*
Y-1314D01*
X872697Y-5906D01*
X877289Y-10497D01*
Y-15089D01*
X872697Y-19681D01*
X863514D01*
X858922Y-15089D01*
Y-10497D01*
X863514Y-5906D01*
X858922Y-1314D01*
Y3278D01*
X863514Y-5906D02*
X872697D01*
X1019030Y-409124D02*
X1014439Y-404532D01*
X1005255D01*
X1000663Y-409124D01*
Y-427490D01*
X1005255Y-432082D01*
X1014439D01*
X1019030Y-427490D01*
X1028214Y-404532D02*
X1046581D01*
Y-409124D01*
X1028214Y-427490D01*
Y-432082D01*
X1159778Y-409124D02*
X1155187Y-404532D01*
X1146003D01*
X1141412Y-409124D01*
Y-427490D01*
X1146003Y-432082D01*
X1155187D01*
X1159778Y-427490D01*
X1187329Y-404532D02*
X1178145Y-409124D01*
X1168962Y-418307D01*
Y-427490D01*
X1173553Y-432082D01*
X1182737D01*
X1187329Y-427490D01*
Y-422899D01*
X1182737Y-418307D01*
X1168962D01*
X1221786Y-409124D02*
X1217195Y-404532D01*
X1208011D01*
X1203419Y-409124D01*
Y-427490D01*
X1208011Y-432082D01*
X1217195D01*
X1221786Y-427490D01*
X1249336Y-404532D02*
X1230970D01*
Y-418307D01*
X1240153Y-413715D01*
X1244745D01*
X1249336Y-418307D01*
Y-427490D01*
X1244745Y-432082D01*
X1235561D01*
X1230970Y-427490D01*
X1295935Y-338253D02*
X1291343Y-342845D01*
Y-352028D01*
X1295935Y-356620D01*
X1314301D01*
X1318893Y-352028D01*
Y-342845D01*
X1314301Y-338253D01*
X1318893Y-315295D02*
X1291343D01*
X1305118Y-329070D01*
Y-310703D01*
X895999Y-232943D02*
X891407Y-228351D01*
X882224D01*
X877632Y-232943D01*
Y-251309D01*
X882224Y-255901D01*
X891407D01*
X895999Y-251309D01*
X905182Y-232943D02*
X909774Y-228351D01*
X918957D01*
X923549Y-232943D01*
Y-237534D01*
X918957Y-242126D01*
X914366D01*
X918957D01*
X923549Y-246718D01*
Y-251309D01*
X918957Y-255901D01*
X909774D01*
X905182Y-251309D01*
X816274Y161743D02*
X811683Y166334D01*
X802499D01*
X797908Y161743D01*
Y143376D01*
X802499Y138784D01*
X811683D01*
X816274Y143376D01*
X843825Y138784D02*
X825458D01*
X843825Y157151D01*
Y161743D01*
X839233Y166334D01*
X830049D01*
X825458Y161743D01*
X806102Y3278D02*
X801511Y7870D01*
X792327D01*
X787736Y3278D01*
Y-15089D01*
X792327Y-19681D01*
X801511D01*
X806102Y-15089D01*
X815286Y-19681D02*
X824469D01*
X819878D01*
Y7870D01*
X815286Y3278D01*
D45*
X1254921Y296260D02*
G03*
X1254921Y296260I-4921J0D01*
G01*
X1298228D02*
G03*
X1298228Y296260I-4921J0D01*
G01*
X696850Y152559D02*
G03*
X696850Y152559I-4921J0D01*
G01*
X947835Y68898D02*
G03*
X947835Y68898I-4921J0D01*
G01*
X875984Y273622D02*
G03*
X875984Y273622I-4921J0D01*
G01*
D46*
X846457Y316929D02*
X972441D01*
X846457Y435039D02*
X972441D01*
X476378Y-177165D02*
X576772D01*
X476378Y122047D02*
X576772D01*
X675197Y-177165D02*
X775591D01*
X675197Y122047D02*
X775591D01*
X476378Y-177165D02*
Y122047D01*
X775591Y-177165D02*
Y122047D01*
X1217520Y194882D02*
Y261811D01*
X1282480Y194882D02*
Y261811D01*
X1260827Y194882D02*
Y261811D01*
X1325787Y194882D02*
Y261811D01*
X670275Y542323D02*
X1158465D01*
Y457677D02*
Y542323D01*
X670275Y457677D02*
X1158465D01*
X670275D02*
Y542323D01*
X197787Y-170181D02*
Y-128843D01*
X-3000Y-170181D02*
X97394D01*
X182039D02*
X197787D01*
X182039Y172732D02*
X197787D01*
X-3000D02*
X97394D01*
X-174260D02*
X-89614D01*
X197787Y131394D02*
Y172732D01*
X-174260Y-163488D02*
X-89614D01*
X571850Y158465D02*
X644685D01*
X571850Y280512D02*
X644685D01*
X783465Y-141732D02*
X787898D01*
X849898D02*
X854331D01*
X783465Y-91677D02*
X854331D01*
Y-141732D02*
Y-62992D01*
X783465Y-141732D02*
Y-62992D01*
X787898D01*
X849898D02*
X854331D01*
X1129921Y-59055D02*
X1139764D01*
Y-49213D01*
X982284Y-59055D02*
X992126D01*
X982284D02*
Y-49213D01*
X1129921Y98425D02*
X1139764D01*
Y88583D02*
Y98425D01*
X990158D02*
X992126D01*
X982284Y90551D02*
X990158Y98425D01*
X982284Y88583D02*
Y90551D01*
X896654Y145669D02*
X923228D01*
X896654D02*
Y172244D01*
X1003937Y145669D02*
X1030512D01*
Y172244D01*
Y252953D02*
Y279528D01*
X1003937D02*
X1030512D01*
X896654D02*
X923228D01*
X896654Y252953D02*
Y279528D01*
%TF.MD5,e8c4f5d4cd9f26d3d7023484410cbefe*%
M02*
