%TF.GenerationSoftware,Altium Limited,Altium Designer,21.6.4 (81)*%
G04 Layer_Color=8388736*
%FSLAX26Y26*%
%MOIN*%
%TF.SameCoordinates,57458678-C278-4CFF-9AA2-19D65F52AC30*%
%TF.FilePolarity,Positive*%
%TF.FileFunction,Other,Top_Assembly*%
%TF.Part,Single*%
G01*
G75*
%TA.AperFunction,NonConductor*%
%ADD44C,0.005906*%
%ADD46C,0.007874*%
D44*
X1276044Y222441D02*
X1248494D01*
Y208666D01*
X1253086Y204074D01*
X1271453D01*
X1276044Y208666D01*
Y222441D01*
X1248494Y176524D02*
Y194891D01*
X1266861Y176524D01*
X1271453D01*
X1276044Y181116D01*
Y190299D01*
X1271453Y194891D01*
X1319351Y222441D02*
X1291801D01*
Y208666D01*
X1296393Y204074D01*
X1314760D01*
X1319351Y208666D01*
Y222441D01*
X1314760Y194891D02*
X1319351Y190299D01*
Y181116D01*
X1314760Y176524D01*
X1310168D01*
X1305576Y181116D01*
Y185707D01*
Y181116D01*
X1300985Y176524D01*
X1296393D01*
X1291801Y181116D01*
Y190299D01*
X1296393Y194891D01*
D46*
X1228347Y277559D02*
X1271653D01*
X1228347Y179134D02*
Y277559D01*
Y179134D02*
X1271653D01*
Y277559D01*
X1271654D02*
X1314961D01*
X1271654Y179134D02*
Y277559D01*
Y179134D02*
X1314961D01*
Y277559D01*
%TF.MD5,99e88a750e559a66aa559fefb505fa64*%
M02*
